<?xml version="1.0" encoding="utf-8" standalone="no"?>
<!DOCTYPE svg PUBLIC "-//W3C//DTD SVG 1.1//EN"
  "http://www.w3.org/Graphics/SVG/1.1/DTD/svg11.dtd">
<svg xmlns:xlink="http://www.w3.org/1999/xlink" width="604.8pt" height="360pt" viewBox="0 0 604.8 360" xmlns="http://www.w3.org/2000/svg" version="1.1">
 <metadata>
  <rdf:RDF xmlns:dc="http://purl.org/dc/elements/1.1/" xmlns:cc="http://creativecommons.org/ns#" xmlns:rdf="http://www.w3.org/1999/02/22-rdf-syntax-ns#">
   <cc:Work>
    <dc:type rdf:resource="http://purl.org/dc/dcmitype/StillImage"/>
    <dc:date>2026-03-22T16:24:58.366163</dc:date>
    <dc:format>image/svg+xml</dc:format>
    <dc:creator>
     <cc:Agent>
      <dc:title>Matplotlib v3.10.7, https://matplotlib.org/</dc:title>
     </cc:Agent>
    </dc:creator>
   </cc:Work>
  </rdf:RDF>
 </metadata>
 <defs>
  <style type="text/css">*{stroke-linejoin: round; stroke-linecap: butt}</style>
 </defs>
 <g id="figure_1">
  <g id="patch_1">
   <path d="M 0 360 
L 604.8 360 
L 604.8 0 
L 0 0 
z
" style="fill: #ffffff"/>
  </g>
  <g id="axes_1">
   <g id="patch_2">
    <path d="M 50.63 322.568 
L 594 322.568 
L 594 32.67 
L 50.63 32.67 
z
" style="fill: #ffffff"/>
   </g>
   <g id="patch_3">
    <path d="M 75.328636 322.568 
L 103.355458 322.568 
L 103.355458 102.383567 
L 75.328636 102.383567 
z
" clip-path="url(#p105f6fa93a)" style="fill: #9e9e9e; stroke: #ffffff; stroke-width: 0.8; stroke-linejoin: miter"/>
   </g>
   <g id="patch_4">
    <path d="M 162.912453 322.568 
L 190.939275 322.568 
L 190.939275 134.824533 
L 162.912453 134.824533 
z
" clip-path="url(#p105f6fa93a)" style="fill: #78909c; stroke: #ffffff; stroke-width: 0.8; stroke-linejoin: miter"/>
   </g>
   <g id="patch_5">
    <path d="M 250.49627 322.568 
L 278.523092 322.568 
L 278.523092 215.581833 
L 250.49627 215.581833 
z
" clip-path="url(#p105f6fa93a)" style="fill: #607d8b; stroke: #ffffff; stroke-width: 0.8; stroke-linejoin: miter"/>
   </g>
   <g id="patch_6">
    <path d="M 338.080087 322.568 
L 366.106908 322.568 
L 366.106908 62.350033 
L 338.080087 62.350033 
z
" clip-path="url(#p105f6fa93a)" style="fill: #ffb74d; stroke: #ffffff; stroke-width: 0.8; stroke-linejoin: miter"/>
   </g>
   <g id="patch_7">
    <path d="M 425.663904 322.568 
L 453.690725 322.568 
L 453.690725 54.757467 
L 425.663904 54.757467 
z
" clip-path="url(#p105f6fa93a)" style="fill: #ff9800; stroke: #ffffff; stroke-width: 0.8; stroke-linejoin: miter"/>
   </g>
   <g id="patch_8">
    <path d="M 513.247721 322.568 
L 541.274542 322.568 
L 541.274542 51.3063 
L 513.247721 51.3063 
z
" clip-path="url(#p105f6fa93a)" style="fill: #e65100; stroke: #ffffff; stroke-width: 0.8; stroke-linejoin: miter"/>
   </g>
   <g id="patch_9">
    <path d="M 103.355458 322.568 
L 131.382279 322.568 
L 131.382279 104.896016 
L 103.355458 104.896016 
z
" clip-path="url(#p105f6fa93a)" style="fill: url(#hff50fd4f11); opacity: 0.65; stroke: #ffffff; stroke-width: 0.8; stroke-linejoin: miter"/>
   </g>
   <g id="patch_10">
    <path d="M 190.939275 322.568 
L 218.966096 322.568 
L 218.966096 140.705321 
L 190.939275 140.705321 
z
" clip-path="url(#p105f6fa93a)" style="fill: url(#h547dae3937); opacity: 0.65; stroke: #ffffff; stroke-width: 0.8; stroke-linejoin: miter"/>
   </g>
   <g id="patch_11">
    <path d="M 278.523092 322.568 
L 306.549913 322.568 
L 306.549913 223.975071 
L 278.523092 223.975071 
z
" clip-path="url(#p105f6fa93a)" style="fill: url(#ha36304e706); opacity: 0.65; stroke: #ffffff; stroke-width: 0.8; stroke-linejoin: miter"/>
   </g>
   <g id="patch_12">
    <path d="M 366.106908 322.568 
L 394.13373 322.568 
L 394.13373 62.764173 
L 366.106908 62.764173 
z
" clip-path="url(#p105f6fa93a)" style="fill: url(#h2c6f2c747b); opacity: 0.65; stroke: #ffffff; stroke-width: 0.8; stroke-linejoin: miter"/>
   </g>
   <g id="patch_13">
    <path d="M 453.690725 322.568 
L 481.717547 322.568 
L 481.717547 55.03356 
L 453.690725 55.03356 
z
" clip-path="url(#p105f6fa93a)" style="fill: url(#h5ea22552fa); opacity: 0.65; stroke: #ffffff; stroke-width: 0.8; stroke-linejoin: miter"/>
   </g>
   <g id="patch_14">
    <path d="M 541.274542 322.568 
L 569.301364 322.568 
L 569.301364 51.444347 
L 541.274542 51.444347 
z
" clip-path="url(#p105f6fa93a)" style="fill: url(#h43abf2b487); opacity: 0.65; stroke: #ffffff; stroke-width: 0.8; stroke-linejoin: miter"/>
   </g>
   <g id="matplotlib.axis_1">
    <g id="xtick_1">
     <g id="line2d_1">
      <defs>
       <path id="m8177f39e70" d="M 0 0 
L 0 3.5 
" style="stroke: #000000; stroke-width: 0.8"/>
      </defs>
      <g>
       <use xlink:href="#m8177f39e70" x="103.355458" y="322.568" style="stroke: #000000; stroke-width: 0.8"/>
      </g>
     </g>
     <g id="text_1">
      <!-- RawVec -->
      <g transform="translate(87.746669 336.362687) scale(0.085 -0.085)">
       <defs>
        <path id="MicrosoftYaHei-52" d="M 4159 0 
L 3422 0 
L 2619 1344 
Q 2378 1747 2178 1892 
Q 1978 2038 1700 2038 
L 1250 2038 
L 1250 0 
L 625 0 
L 625 4841 
L 2100 4841 
Q 2806 4841 3206 4500 
Q 3606 4159 3606 3547 
Q 3606 2541 2531 2241 
L 2531 2225 
Q 2731 2141 2876 1984 
Q 3022 1828 3253 1450 
L 4159 0 
z
M 1250 4294 
L 1250 2584 
L 1988 2584 
Q 2416 2584 2683 2834 
Q 2950 3084 2950 3491 
Q 2950 3869 2706 4081 
Q 2463 4294 1997 4294 
L 1250 4294 
z
" transform="scale(0.015625)"/>
        <path id="MicrosoftYaHei-61" d="M 628 3216 
Q 1144 3538 1819 3538 
Q 3069 3538 3069 2225 
L 3069 0 
L 2463 0 
L 2463 534 
L 2447 534 
Q 2088 -81 1388 -81 
Q 884 -81 587 191 
Q 291 463 291 925 
Q 291 1894 1438 2053 
L 2463 2197 
Q 2463 3044 1763 3044 
Q 1141 3044 628 2625 
L 628 3216 
z
M 1653 1625 
Q 1228 1569 1067 1412 
Q 906 1256 906 975 
Q 906 728 1081 572 
Q 1256 416 1544 416 
Q 1944 416 2203 697 
Q 2463 978 2463 1403 
L 2463 1734 
L 1653 1625 
z
" transform="scale(0.015625)"/>
        <path id="MicrosoftYaHei-77" d="M 4975 3456 
L 3944 0 
L 3306 0 
L 2619 2425 
Q 2575 2581 2563 2756 
L 2550 2756 
Q 2541 2625 2478 2431 
L 1734 0 
L 1116 0 
L 78 3456 
L 716 3456 
L 1406 894 
Q 1438 778 1453 578 
L 1478 578 
Q 1491 750 1538 903 
L 2281 3456 
L 2847 3456 
L 3572 891 
Q 3603 778 3622 572 
L 3650 572 
Q 3656 709 3706 891 
L 4381 3456 
L 4975 3456 
z
" transform="scale(0.015625)"/>
        <path id="MicrosoftYaHei-56" d="M 4272 4841 
L 2494 0 
L 1800 0 
L 56 4841 
L 750 4841 
L 2053 1056 
Q 2119 869 2150 622 
L 2166 622 
Q 2191 838 2275 1063 
L 3603 4841 
L 4272 4841 
z
" transform="scale(0.015625)"/>
        <path id="MicrosoftYaHei-65" d="M 3363 1572 
L 944 1572 
Q 959 1019 1246 717 
Q 1534 416 2050 416 
Q 2631 416 3116 788 
L 3116 241 
Q 2659 -81 1906 -81 
Q 1156 -81 736 394 
Q 316 869 316 1713 
Q 316 2506 777 3022 
Q 1238 3538 1922 3538 
Q 2600 3538 2981 3102 
Q 3363 2666 3363 1881 
L 3363 1572 
z
M 2750 2063 
Q 2747 2531 2528 2787 
Q 2309 3044 1913 3044 
Q 1547 3044 1280 2772 
Q 1013 2500 944 2063 
L 2750 2063 
z
" transform="scale(0.015625)"/>
        <path id="MicrosoftYaHei-63" d="M 2934 156 
Q 2538 -81 1978 -81 
Q 1228 -81 772 400 
Q 316 881 316 1647 
Q 316 2497 808 3017 
Q 1300 3538 2125 3538 
Q 2600 3538 2938 3369 
L 2938 2763 
Q 2572 3031 2125 3031 
Q 1600 3031 1270 2667 
Q 941 2303 941 1697 
Q 941 1100 1252 762 
Q 1563 425 2091 425 
Q 2538 425 2934 719 
L 2934 156 
z
" transform="scale(0.015625)"/>
       </defs>
       <use xlink:href="#MicrosoftYaHei-52"/>
       <use xlink:href="#MicrosoftYaHei-61" transform="translate(65.283203 0)"/>
       <use xlink:href="#MicrosoftYaHei-77" transform="translate(120.556641 0)"/>
       <use xlink:href="#MicrosoftYaHei-56" transform="translate(199.511719 0)"/>
       <use xlink:href="#MicrosoftYaHei-65" transform="translate(260.388672 0)"/>
       <use xlink:href="#MicrosoftYaHei-63" transform="translate(317.126953 0)"/>
      </g>
      <!-- ResNet18 -->
      <g transform="translate(83.89577 346.629359) scale(0.085 -0.085)">
       <defs>
        <path id="MicrosoftYaHei-73" d="M 353 747 
Q 816 413 1350 413 
Q 2066 413 2066 881 
Q 2066 1081 1909 1211 
Q 1753 1341 1275 1519 
Q 700 1750 528 1976 
Q 356 2203 356 2525 
Q 356 2984 745 3261 
Q 1134 3538 1703 3538 
Q 2144 3538 2522 3384 
L 2522 2794 
Q 2134 3044 1644 3044 
Q 1350 3044 1165 2916 
Q 981 2788 981 2578 
Q 981 2372 1114 2256 
Q 1247 2141 1703 1959 
Q 2281 1744 2484 1512 
Q 2688 1281 2688 941 
Q 2688 466 2298 192 
Q 1909 -81 1291 -81 
Q 753 -81 353 122 
L 353 747 
z
" transform="scale(0.015625)"/>
        <path id="MicrosoftYaHei-4e" d="M 4578 0 
L 3838 0 
L 1403 3766 
Q 1300 3925 1238 4081 
L 1219 4081 
Q 1244 3919 1244 3403 
L 1244 0 
L 625 0 
L 625 4841 
L 1409 4841 
L 3778 1141 
Q 3947 878 3978 806 
L 3991 806 
Q 3959 1013 3959 1513 
L 3959 4841 
L 4578 4841 
L 4578 0 
z
" transform="scale(0.015625)"/>
        <path id="MicrosoftYaHei-74" d="M 2206 34 
Q 2006 -75 1666 -75 
Q 738 -75 738 953 
L 738 2950 
L 144 2950 
L 144 3456 
L 738 3456 
L 738 4288 
L 1347 4481 
L 1347 3456 
L 2206 3456 
L 2206 2950 
L 1347 2950 
L 1347 1063 
Q 1347 722 1462 575 
Q 1578 428 1847 428 
Q 2053 428 2206 544 
L 2206 34 
z
" transform="scale(0.015625)"/>
        <path id="MicrosoftYaHei-31" d="M 1781 0 
L 1781 4141 
Q 1638 3997 1295 3819 
Q 953 3641 663 3569 
L 663 4169 
Q 1047 4275 1484 4508 
Q 1922 4741 2156 4947 
L 2388 4947 
L 2388 0 
L 1781 0 
z
" transform="scale(0.015625)"/>
        <path id="MicrosoftYaHei-38" d="M 306 1350 
Q 306 1769 556 2122 
Q 806 2475 1200 2625 
Q 884 2803 700 3081 
Q 516 3359 516 3684 
Q 516 4028 692 4312 
Q 869 4597 1183 4759 
Q 1497 4922 1875 4922 
Q 2256 4922 2572 4761 
Q 2888 4600 3063 4315 
Q 3238 4031 3238 3684 
Q 3238 3366 3058 3086 
Q 2878 2806 2559 2625 
Q 2953 2472 3200 2119 
Q 3447 1766 3447 1350 
Q 3447 938 3250 611 
Q 3053 284 2690 103 
Q 2328 -78 1875 -78 
Q 1425 -78 1065 103 
Q 706 284 506 612 
Q 306 941 306 1350 
z
M 906 1378 
Q 906 947 1172 687 
Q 1438 428 1878 428 
Q 2309 428 2582 692 
Q 2856 956 2856 1378 
Q 2856 1778 2579 2051 
Q 2303 2325 1878 2325 
Q 1456 2325 1181 2058 
Q 906 1791 906 1378 
z
M 1081 3634 
Q 1081 3309 1312 3076 
Q 1544 2844 1878 2844 
Q 2206 2844 2445 3078 
Q 2684 3313 2684 3634 
Q 2684 3963 2454 4191 
Q 2225 4419 1878 4419 
Q 1534 4419 1307 4195 
Q 1081 3972 1081 3634 
z
" transform="scale(0.015625)"/>
       </defs>
       <use xlink:href="#MicrosoftYaHei-52"/>
       <use xlink:href="#MicrosoftYaHei-65" transform="translate(62.283203 0)"/>
       <use xlink:href="#MicrosoftYaHei-73" transform="translate(119.021484 0)"/>
       <use xlink:href="#MicrosoftYaHei-4e" transform="translate(165.310547 0)"/>
       <use xlink:href="#MicrosoftYaHei-65" transform="translate(246.609375 0)"/>
       <use xlink:href="#MicrosoftYaHei-74" transform="translate(303.347656 0)"/>
       <use xlink:href="#MicrosoftYaHei-31" transform="translate(340.603516 0)"/>
       <use xlink:href="#MicrosoftYaHei-38" transform="translate(399.246094 0)"/>
      </g>
     </g>
    </g>
    <g id="xtick_2">
     <g id="line2d_2">
      <g>
       <use xlink:href="#m8177f39e70" x="190.939275" y="322.568" style="stroke: #000000; stroke-width: 0.8"/>
      </g>
     </g>
     <g id="text_2">
      <!-- 1D-CNN -->
      <g transform="translate(173.617868 336.362687) scale(0.085 -0.085)">
       <defs>
        <path id="MicrosoftYaHei-44" d="M 625 0 
L 625 4841 
L 2006 4841 
Q 3106 4841 3836 4200 
Q 4566 3559 4566 2481 
Q 4566 1356 3836 678 
Q 3106 0 1956 0 
L 625 0 
z
M 1250 4284 
L 1250 553 
L 1953 553 
Q 2875 553 3392 1056 
Q 3909 1559 3909 2466 
Q 3909 3372 3378 3828 
Q 2847 4284 1981 4284 
L 1250 4284 
z
" transform="scale(0.015625)"/>
        <path id="MicrosoftYaHei-2d" d="M 2328 1681 
L 488 1681 
L 488 2153 
L 2328 2153 
L 2328 1681 
z
" transform="scale(0.015625)"/>
        <path id="MicrosoftYaHei-43" d="M 3938 200 
Q 3403 -81 2597 -81 
Q 1556 -81 934 580 
Q 313 1241 313 2328 
Q 313 3497 1013 4209 
Q 1713 4922 2791 4922 
Q 3484 4922 3938 4725 
L 3938 4072 
Q 3419 4359 2797 4359 
Q 1988 4359 1478 3820 
Q 969 3281 969 2366 
Q 969 1497 1444 986 
Q 1919 475 2688 475 
Q 3406 475 3938 800 
L 3938 200 
z
" transform="scale(0.015625)"/>
       </defs>
       <use xlink:href="#MicrosoftYaHei-31"/>
       <use xlink:href="#MicrosoftYaHei-44" transform="translate(58.642578 0)"/>
       <use xlink:href="#MicrosoftYaHei-2d" transform="translate(134.814453 0)"/>
       <use xlink:href="#MicrosoftYaHei-43" transform="translate(178.076172 0)"/>
       <use xlink:href="#MicrosoftYaHei-4e" transform="translate(244.970703 0)"/>
       <use xlink:href="#MicrosoftYaHei-4e" transform="translate(326.269531 0)"/>
      </g>
      <!-- (Wen '18) -->
      <g transform="translate(171.524079 346.629359) scale(0.085 -0.085)">
       <defs>
        <path id="MicrosoftYaHei-28" d="M 1531 -1100 
Q 478 100 478 1847 
Q 478 3594 1531 4841 
L 2072 4841 
Q 1016 3544 1016 1853 
Q 1016 166 2066 -1100 
L 1531 -1100 
z
" transform="scale(0.015625)"/>
        <path id="MicrosoftYaHei-57" d="M 6431 4841 
L 5075 0 
L 4347 0 
L 3372 3488 
Q 3306 3725 3294 3988 
L 3281 3988 
Q 3263 3728 3194 3494 
L 2209 0 
L 1488 0 
L 84 4841 
L 775 4841 
L 1763 1184 
Q 1828 938 1841 688 
L 1859 688 
Q 1875 875 1963 1184 
L 3009 4841 
L 3625 4841 
L 4625 1156 
Q 4675 975 4706 694 
L 4719 694 
Q 4734 897 4809 1169 
L 5759 4841 
L 6431 4841 
z
" transform="scale(0.015625)"/>
        <path id="MicrosoftYaHei-6e" d="M 3469 0 
L 2859 0 
L 2859 1966 
Q 2859 3031 2081 3031 
Q 1678 3031 1418 2731 
Q 1159 2431 1159 1972 
L 1159 0 
L 547 0 
L 547 3456 
L 1159 3456 
L 1159 2884 
L 1172 2884 
Q 1563 3538 2306 3538 
Q 2875 3538 3172 3173 
Q 3469 2809 3469 2113 
L 3469 0 
z
" transform="scale(0.015625)"/>
        <path id="MicrosoftYaHei-20" transform="scale(0.015625)"/>
        <path id="MicrosoftYaHei-27" d="M 1131 4847 
L 1028 3341 
L 609 3341 
L 509 4847 
L 1131 4847 
z
" transform="scale(0.015625)"/>
        <path id="MicrosoftYaHei-29" d="M 78 -1100 
Q 1131 163 1131 1853 
Q 1131 3547 72 4841 
L 616 4841 
Q 1672 3603 1672 1847 
Q 1672 91 616 -1100 
L 78 -1100 
z
" transform="scale(0.015625)"/>
       </defs>
       <use xlink:href="#MicrosoftYaHei-28"/>
       <use xlink:href="#MicrosoftYaHei-57" transform="translate(33.398438 0)"/>
       <use xlink:href="#MicrosoftYaHei-65" transform="translate(132.53125 0)"/>
       <use xlink:href="#MicrosoftYaHei-6e" transform="translate(189.269531 0)"/>
       <use xlink:href="#MicrosoftYaHei-20" transform="translate(250.890625 0)"/>
       <use xlink:href="#MicrosoftYaHei-27" transform="translate(280.480469 0)"/>
       <use xlink:href="#MicrosoftYaHei-31" transform="translate(306.115234 0)"/>
       <use xlink:href="#MicrosoftYaHei-38" transform="translate(364.757812 0)"/>
       <use xlink:href="#MicrosoftYaHei-29" transform="translate(423.400391 0)"/>
      </g>
     </g>
    </g>
    <g id="xtick_3">
     <g id="line2d_3">
      <g>
       <use xlink:href="#m8177f39e70" x="278.523092" y="322.568" style="stroke: #000000; stroke-width: 0.8"/>
      </g>
     </g>
     <g id="text_3">
      <!-- FlatVAE -->
      <g transform="translate(263.260943 336.362687) scale(0.085 -0.085)">
       <defs>
        <path id="MicrosoftYaHei-46" d="M 3119 4284 
L 1250 4284 
L 1250 2666 
L 2981 2666 
L 2981 2116 
L 1250 2116 
L 1250 0 
L 625 0 
L 625 4841 
L 3119 4841 
L 3119 4284 
z
" transform="scale(0.015625)"/>
        <path id="MicrosoftYaHei-6c" d="M 544 0 
L 544 5116 
L 1156 5116 
L 1156 0 
L 544 0 
z
" transform="scale(0.015625)"/>
        <path id="MicrosoftYaHei-41" d="M 4428 0 
L 3738 0 
L 3244 1325 
L 1228 1325 
L 763 0 
L 72 0 
L 1916 4841 
L 2584 4841 
L 4428 0 
z
M 3050 1872 
L 2319 3884 
Q 2284 3981 2244 4222 
L 2228 4222 
Q 2194 4003 2150 3884 
L 1425 1872 
L 3050 1872 
z
" transform="scale(0.015625)"/>
        <path id="MicrosoftYaHei-45" d="M 3228 0 
L 625 0 
L 625 4841 
L 3119 4841 
L 3119 4284 
L 1250 4284 
L 1250 2734 
L 2981 2734 
L 2981 2181 
L 1250 2181 
L 1250 553 
L 3228 553 
L 3228 0 
z
" transform="scale(0.015625)"/>
       </defs>
       <use xlink:href="#MicrosoftYaHei-46"/>
       <use xlink:href="#MicrosoftYaHei-6c" transform="translate(53.125 0)"/>
       <use xlink:href="#MicrosoftYaHei-61" transform="translate(79.736328 0)"/>
       <use xlink:href="#MicrosoftYaHei-74" transform="translate(135.009766 0)"/>
       <use xlink:href="#MicrosoftYaHei-56" transform="translate(172.265625 0)"/>
       <use xlink:href="#MicrosoftYaHei-41" transform="translate(233.767578 0)"/>
       <use xlink:href="#MicrosoftYaHei-45" transform="translate(304.128906 0)"/>
      </g>
      <!-- (GAP) -->
      <g transform="translate(266.932545 346.629359) scale(0.085 -0.085)">
       <defs>
        <path id="MicrosoftYaHei-47" d="M 4284 331 
Q 3559 -81 2647 -81 
Q 1597 -81 955 583 
Q 313 1247 313 2356 
Q 313 3478 1022 4200 
Q 1731 4922 2841 4922 
Q 3625 4922 4169 4672 
L 4169 3997 
Q 3588 4363 2784 4363 
Q 1994 4363 1481 3822 
Q 969 3281 969 2397 
Q 969 1488 1441 981 
Q 1913 475 2716 475 
Q 3269 475 3656 688 
L 3656 1997 
L 2606 1997 
L 2606 2550 
L 4284 2550 
L 4284 331 
z
" transform="scale(0.015625)"/>
        <path id="MicrosoftYaHei-50" d="M 1250 1809 
L 1250 0 
L 625 0 
L 625 4841 
L 2000 4841 
Q 2784 4841 3217 4462 
Q 3650 4084 3650 3381 
Q 3650 2669 3144 2226 
Q 2638 1784 1878 1809 
L 1250 1809 
z
M 1250 4291 
L 1250 2359 
L 1828 2359 
Q 2400 2359 2697 2617 
Q 2994 2875 2994 3356 
Q 2994 4291 1888 4291 
L 1250 4291 
z
" transform="scale(0.015625)"/>
       </defs>
       <use xlink:href="#MicrosoftYaHei-28"/>
       <use xlink:href="#MicrosoftYaHei-47" transform="translate(33.398438 0)"/>
       <use xlink:href="#MicrosoftYaHei-41" transform="translate(107.763672 0)"/>
       <use xlink:href="#MicrosoftYaHei-50" transform="translate(178.125 0)"/>
       <use xlink:href="#MicrosoftYaHei-29" transform="translate(239.306641 0)"/>
      </g>
     </g>
    </g>
    <g id="xtick_4">
     <g id="line2d_4">
      <g>
       <use xlink:href="#m8177f39e70" x="366.106908" y="322.568" style="stroke: #000000; stroke-width: 0.8"/>
      </g>
     </g>
     <g id="text_4">
      <!-- SpecRas -->
      <g transform="translate(349.305463 336.362687) scale(0.085 -0.085)">
       <defs>
        <path id="MicrosoftYaHei-53" d="M 400 909 
Q 622 716 994 591 
Q 1366 466 1700 466 
Q 2719 466 2719 1191 
Q 2719 1394 2609 1556 
Q 2500 1719 2309 1844 
Q 2119 1969 1594 2228 
Q 866 2591 634 2902 
Q 403 3213 403 3613 
Q 403 4216 887 4569 
Q 1372 4922 2109 4922 
Q 2831 4922 3169 4747 
L 3169 4066 
Q 2731 4369 2063 4369 
Q 1619 4369 1339 4183 
Q 1059 3997 1059 3666 
Q 1059 3372 1253 3187 
Q 1447 3003 2094 2684 
Q 2806 2344 3090 2003 
Q 3375 1663 3375 1238 
Q 3375 600 2912 259 
Q 2450 -81 1628 -81 
Q 1341 -81 958 -1 
Q 575 78 400 197 
L 400 909 
z
" transform="scale(0.015625)"/>
        <path id="MicrosoftYaHei-70" d="M 1159 488 
L 1159 -1591 
L 547 -1591 
L 547 3456 
L 1159 3456 
L 1159 2859 
L 1172 2859 
Q 1578 3538 2359 3538 
Q 3022 3538 3398 3073 
Q 3775 2609 3775 1828 
Q 3775 966 3348 442 
Q 2922 -81 2200 -81 
Q 1534 -81 1172 488 
L 1159 488 
z
M 1156 1425 
Q 1156 1003 1428 714 
Q 1700 425 2109 425 
Q 2597 425 2872 800 
Q 3147 1175 3147 1838 
Q 3147 2397 2890 2714 
Q 2634 3031 2191 3031 
Q 1738 3031 1447 2709 
Q 1156 2388 1156 1884 
L 1156 1425 
z
" transform="scale(0.015625)"/>
       </defs>
       <use xlink:href="#MicrosoftYaHei-53"/>
       <use xlink:href="#MicrosoftYaHei-70" transform="translate(57.714844 0)"/>
       <use xlink:href="#MicrosoftYaHei-65" transform="translate(121.582031 0)"/>
       <use xlink:href="#MicrosoftYaHei-63" transform="translate(178.320312 0)"/>
       <use xlink:href="#MicrosoftYaHei-52" transform="translate(228.466797 0)"/>
       <use xlink:href="#MicrosoftYaHei-61" transform="translate(293.75 0)"/>
       <use xlink:href="#MicrosoftYaHei-73" transform="translate(349.023438 0)"/>
      </g>
      <!-- (best-val) -->
      <g transform="translate(347.38101 346.629359) scale(0.085 -0.085)">
       <defs>
        <path id="MicrosoftYaHei-62" d="M 1159 488 
L 1159 0 
L 547 0 
L 547 5116 
L 1159 5116 
L 1159 2859 
L 1172 2859 
Q 1578 3538 2359 3538 
Q 3009 3538 3392 3080 
Q 3775 2622 3775 1828 
Q 3775 953 3345 436 
Q 2916 -81 2200 -81 
Q 1525 -81 1172 488 
L 1159 488 
z
M 1156 1422 
Q 1156 1003 1428 714 
Q 1700 425 2109 425 
Q 2597 425 2872 800 
Q 3147 1175 3147 1838 
Q 3147 2384 2890 2707 
Q 2634 3031 2191 3031 
Q 1741 3031 1448 2709 
Q 1156 2388 1156 1891 
L 1156 1422 
z
" transform="scale(0.015625)"/>
        <path id="MicrosoftYaHei-76" d="M 3331 3456 
L 1963 0 
L 1344 0 
L 44 3456 
L 713 3456 
L 1556 988 
Q 1659 691 1678 491 
L 1694 491 
Q 1725 753 1803 975 
L 2688 3456 
L 3331 3456 
z
" transform="scale(0.015625)"/>
       </defs>
       <use xlink:href="#MicrosoftYaHei-28"/>
       <use xlink:href="#MicrosoftYaHei-62" transform="translate(33.398438 0)"/>
       <use xlink:href="#MicrosoftYaHei-65" transform="translate(97.265625 0)"/>
       <use xlink:href="#MicrosoftYaHei-73" transform="translate(154.003906 0)"/>
       <use xlink:href="#MicrosoftYaHei-74" transform="translate(200.292969 0)"/>
       <use xlink:href="#MicrosoftYaHei-2d" transform="translate(231.548828 0)"/>
       <use xlink:href="#MicrosoftYaHei-76" transform="translate(274.810547 0)"/>
       <use xlink:href="#MicrosoftYaHei-61" transform="translate(325.300781 0)"/>
       <use xlink:href="#MicrosoftYaHei-6c" transform="translate(380.574219 0)"/>
       <use xlink:href="#MicrosoftYaHei-29" transform="translate(407.185547 0)"/>
      </g>
     </g>
    </g>
    <g id="xtick_5">
     <g id="line2d_5">
      <g>
       <use xlink:href="#m8177f39e70" x="453.690725" y="322.568" style="stroke: #000000; stroke-width: 0.8"/>
      </g>
     </g>
     <g id="text_5">
      <!-- SpecRas -->
      <g transform="translate(436.88928 336.362687) scale(0.085 -0.085)">
       <use xlink:href="#MicrosoftYaHei-53"/>
       <use xlink:href="#MicrosoftYaHei-70" transform="translate(57.714844 0)"/>
       <use xlink:href="#MicrosoftYaHei-65" transform="translate(121.582031 0)"/>
       <use xlink:href="#MicrosoftYaHei-63" transform="translate(178.320312 0)"/>
       <use xlink:href="#MicrosoftYaHei-52" transform="translate(228.466797 0)"/>
       <use xlink:href="#MicrosoftYaHei-61" transform="translate(293.75 0)"/>
       <use xlink:href="#MicrosoftYaHei-73" transform="translate(349.023438 0)"/>
      </g>
      <!-- (SWA) -->
      <g transform="translate(441.247522 346.629359) scale(0.085 -0.085)">
       <use xlink:href="#MicrosoftYaHei-28"/>
       <use xlink:href="#MicrosoftYaHei-53" transform="translate(33.398438 0)"/>
       <use xlink:href="#MicrosoftYaHei-57" transform="translate(91.113281 0)"/>
       <use xlink:href="#MicrosoftYaHei-41" transform="translate(188.996094 0)"/>
       <use xlink:href="#MicrosoftYaHei-29" transform="translate(259.357422 0)"/>
      </g>
     </g>
    </g>
    <g id="xtick_6">
     <g id="line2d_6">
      <g>
       <use xlink:href="#m8177f39e70" x="541.274542" y="322.568" style="stroke: #000000; stroke-width: 0.8"/>
      </g>
     </g>
     <g id="text_6">
      <!-- HetSpatVAE -->
      <g transform="translate(517.010363 336.362687) scale(0.085 -0.085)">
       <defs>
        <path id="MicrosoftYaHei-48" d="M 4325 0 
L 3700 0 
L 3700 2181 
L 1250 2181 
L 1250 0 
L 625 0 
L 625 4841 
L 1250 4841 
L 1250 2738 
L 3700 2738 
L 3700 4841 
L 4325 4841 
L 4325 0 
z
" transform="scale(0.015625)"/>
       </defs>
       <use xlink:href="#MicrosoftYaHei-48"/>
       <use xlink:href="#MicrosoftYaHei-65" transform="translate(77.34375 0)"/>
       <use xlink:href="#MicrosoftYaHei-74" transform="translate(134.082031 0)"/>
       <use xlink:href="#MicrosoftYaHei-53" transform="translate(171.337891 0)"/>
       <use xlink:href="#MicrosoftYaHei-70" transform="translate(229.052734 0)"/>
       <use xlink:href="#MicrosoftYaHei-61" transform="translate(291.544922 0)"/>
       <use xlink:href="#MicrosoftYaHei-74" transform="translate(346.818359 0)"/>
       <use xlink:href="#MicrosoftYaHei-56" transform="translate(384.074219 0)"/>
       <use xlink:href="#MicrosoftYaHei-41" transform="translate(445.576172 0)"/>
       <use xlink:href="#MicrosoftYaHei-45" transform="translate(515.9375 0)"/>
      </g>
     </g>
    </g>
   </g>
   <g id="matplotlib.axis_2">
    <g id="ytick_1">
     <g id="line2d_7">
      <path d="M 50.63 322.568 
L 594 322.568 
" clip-path="url(#p105f6fa93a)" style="fill: none; stroke-dasharray: 0.8,1.32; stroke-dashoffset: 0; stroke: #b0b0b0; stroke-opacity: 0.4; stroke-width: 0.8"/>
     </g>
     <g id="line2d_8">
      <defs>
       <path id="m0771322959" d="M 0 0 
L -3.5 0 
" style="stroke: #000000; stroke-width: 0.8"/>
      </defs>
      <g>
       <use xlink:href="#m0771322959" x="50.63" y="322.568" style="stroke: #000000; stroke-width: 0.8"/>
      </g>
     </g>
     <g id="text_7">
      <!-- 0 -->
      <g transform="translate(37.765938 326.564875) scale(0.1 -0.1)">
       <defs>
        <path id="MicrosoftYaHei-30" d="M 284 2325 
Q 284 3606 709 4264 
Q 1134 4922 1941 4922 
Q 3478 4922 3478 2441 
Q 3478 1216 3045 567 
Q 2613 -81 1831 -81 
Q 1094 -81 689 534 
Q 284 1150 284 2325 
z
M 909 2353 
Q 909 425 1888 425 
Q 2850 425 2850 2384 
Q 2850 4413 1906 4413 
Q 909 4413 909 2353 
z
" transform="scale(0.015625)"/>
       </defs>
       <use xlink:href="#MicrosoftYaHei-30"/>
      </g>
     </g>
    </g>
    <g id="ytick_2">
     <g id="line2d_9">
      <path d="M 50.63 267.349333 
L 594 267.349333 
" clip-path="url(#p105f6fa93a)" style="fill: none; stroke-dasharray: 0.8,1.32; stroke-dashoffset: 0; stroke: #b0b0b0; stroke-opacity: 0.4; stroke-width: 0.8"/>
     </g>
     <g id="line2d_10">
      <g>
       <use xlink:href="#m0771322959" x="50.63" y="267.349333" style="stroke: #000000; stroke-width: 0.8"/>
      </g>
     </g>
     <g id="text_8">
      <!-- 20 -->
      <g transform="translate(31.901875 271.346208) scale(0.1 -0.1)">
       <defs>
        <path id="MicrosoftYaHei-32" d="M 2666 3572 
Q 2666 3963 2419 4186 
Q 2172 4409 1747 4409 
Q 1447 4409 1140 4256 
Q 834 4103 569 3819 
L 569 4413 
Q 806 4659 1107 4790 
Q 1409 4922 1816 4922 
Q 2472 4922 2872 4570 
Q 3272 4219 3272 3619 
Q 3272 3084 3026 2693 
Q 2781 2303 2188 1894 
Q 1581 1475 1376 1294 
Q 1172 1113 1090 947 
Q 1009 781 1009 544 
L 3416 544 
L 3416 0 
L 372 0 
L 372 241 
Q 372 659 486 951 
Q 600 1244 862 1520 
Q 1125 1797 1681 2184 
Q 2250 2584 2458 2886 
Q 2666 3188 2666 3572 
z
" transform="scale(0.015625)"/>
       </defs>
       <use xlink:href="#MicrosoftYaHei-32"/>
       <use xlink:href="#MicrosoftYaHei-30" transform="translate(58.642578 0)"/>
      </g>
     </g>
    </g>
    <g id="ytick_3">
     <g id="line2d_11">
      <path d="M 50.63 212.130667 
L 594 212.130667 
" clip-path="url(#p105f6fa93a)" style="fill: none; stroke-dasharray: 0.8,1.32; stroke-dashoffset: 0; stroke: #b0b0b0; stroke-opacity: 0.4; stroke-width: 0.8"/>
     </g>
     <g id="line2d_12">
      <g>
       <use xlink:href="#m0771322959" x="50.63" y="212.130667" style="stroke: #000000; stroke-width: 0.8"/>
      </g>
     </g>
     <g id="text_9">
      <!-- 40 -->
      <g transform="translate(31.901875 216.127542) scale(0.1 -0.1)">
       <defs>
        <path id="MicrosoftYaHei-34" d="M 2906 4841 
L 2906 1644 
L 3631 1644 
L 3631 1138 
L 2906 1138 
L 2906 0 
L 2313 0 
L 2313 1138 
L 53 1138 
L 53 1616 
Q 656 2294 1265 3178 
Q 1875 4063 2272 4841 
L 2906 4841 
z
M 741 1644 
L 2313 1644 
L 2313 3950 
Q 1988 3366 1616 2817 
Q 1244 2269 741 1644 
z
" transform="scale(0.015625)"/>
       </defs>
       <use xlink:href="#MicrosoftYaHei-34"/>
       <use xlink:href="#MicrosoftYaHei-30" transform="translate(58.642578 0)"/>
      </g>
     </g>
    </g>
    <g id="ytick_4">
     <g id="line2d_13">
      <path d="M 50.63 156.912 
L 594 156.912 
" clip-path="url(#p105f6fa93a)" style="fill: none; stroke-dasharray: 0.8,1.32; stroke-dashoffset: 0; stroke: #b0b0b0; stroke-opacity: 0.4; stroke-width: 0.8"/>
     </g>
     <g id="line2d_14">
      <g>
       <use xlink:href="#m0771322959" x="50.63" y="156.912" style="stroke: #000000; stroke-width: 0.8"/>
      </g>
     </g>
     <g id="text_10">
      <!-- 60 -->
      <g transform="translate(31.901875 160.908875) scale(0.1 -0.1)">
       <defs>
        <path id="MicrosoftYaHei-36" d="M 3181 4219 
Q 2803 4413 2391 4413 
Q 1763 4413 1381 3866 
Q 1000 3319 994 2372 
L 1009 2372 
Q 1353 3038 2106 3038 
Q 2734 3038 3109 2628 
Q 3484 2219 3484 1541 
Q 3484 831 3051 375 
Q 2619 -81 1947 -81 
Q 1209 -81 789 495 
Q 369 1072 369 2131 
Q 369 3413 920 4167 
Q 1472 4922 2372 4922 
Q 2888 4922 3181 4781 
L 3181 4219 
z
M 1031 1584 
Q 1031 1106 1286 765 
Q 1541 425 1963 425 
Q 2363 425 2613 719 
Q 2863 1013 2863 1475 
Q 2863 1975 2627 2253 
Q 2391 2531 1956 2531 
Q 1544 2531 1287 2250 
Q 1031 1969 1031 1584 
z
" transform="scale(0.015625)"/>
       </defs>
       <use xlink:href="#MicrosoftYaHei-36"/>
       <use xlink:href="#MicrosoftYaHei-30" transform="translate(58.642578 0)"/>
      </g>
     </g>
    </g>
    <g id="ytick_5">
     <g id="line2d_15">
      <path d="M 50.63 101.693333 
L 594 101.693333 
" clip-path="url(#p105f6fa93a)" style="fill: none; stroke-dasharray: 0.8,1.32; stroke-dashoffset: 0; stroke: #b0b0b0; stroke-opacity: 0.4; stroke-width: 0.8"/>
     </g>
     <g id="line2d_16">
      <g>
       <use xlink:href="#m0771322959" x="50.63" y="101.693333" style="stroke: #000000; stroke-width: 0.8"/>
      </g>
     </g>
     <g id="text_11">
      <!-- 80 -->
      <g transform="translate(31.901875 105.690208) scale(0.1 -0.1)">
       <use xlink:href="#MicrosoftYaHei-38"/>
       <use xlink:href="#MicrosoftYaHei-30" transform="translate(58.642578 0)"/>
      </g>
     </g>
    </g>
    <g id="ytick_6">
     <g id="line2d_17">
      <path d="M 50.63 46.474667 
L 594 46.474667 
" clip-path="url(#p105f6fa93a)" style="fill: none; stroke-dasharray: 0.8,1.32; stroke-dashoffset: 0; stroke: #b0b0b0; stroke-opacity: 0.4; stroke-width: 0.8"/>
     </g>
     <g id="line2d_18">
      <g>
       <use xlink:href="#m0771322959" x="50.63" y="46.474667" style="stroke: #000000; stroke-width: 0.8"/>
      </g>
     </g>
     <g id="text_12">
      <!-- 100 -->
      <g transform="translate(26.037813 50.471542) scale(0.1 -0.1)">
       <use xlink:href="#MicrosoftYaHei-31"/>
       <use xlink:href="#MicrosoftYaHei-30" transform="translate(58.642578 0)"/>
       <use xlink:href="#MicrosoftYaHei-30" transform="translate(117.285156 0)"/>
      </g>
     </g>
    </g>
    <g id="text_13">
     <!-- % -->
     <g transform="translate(19.303281 182.512281) rotate(-90) scale(0.11 -0.11)">
      <defs>
       <path id="MicrosoftYaHei-25" d="M 272 3619 
Q 272 4213 589 4563 
Q 906 4913 1444 4913 
Q 1959 4913 2248 4591 
Q 2538 4269 2538 3694 
Q 2538 3122 2219 2765 
Q 1900 2409 1372 2409 
Q 872 2409 572 2740 
Q 272 3072 272 3619 
z
M 753 3650 
Q 753 3247 928 3028 
Q 1103 2809 1406 2809 
Q 1719 2809 1889 3036 
Q 2059 3263 2059 3675 
Q 2059 4078 1892 4298 
Q 1725 4519 1422 4519 
Q 1113 4519 933 4289 
Q 753 4059 753 3650 
z
M 4647 4841 
L 1538 -31 
L 1016 -31 
L 4125 4841 
L 4647 4841 
z
M 3172 1134 
Q 3172 1728 3489 2083 
Q 3806 2438 4341 2438 
Q 4853 2438 5143 2114 
Q 5434 1791 5434 1203 
Q 5434 634 5112 279 
Q 4791 -75 4272 -75 
Q 3769 -75 3470 261 
Q 3172 597 3172 1134 
z
M 3650 1163 
Q 3650 769 3825 548 
Q 4000 328 4303 328 
Q 4616 328 4786 556 
Q 4956 784 4956 1194 
Q 4956 1600 4786 1815 
Q 4616 2031 4319 2031 
Q 4000 2031 3825 1801 
Q 3650 1572 3650 1163 
z
" transform="scale(0.015625)"/>
      </defs>
      <use xlink:href="#MicrosoftYaHei-25"/>
     </g>
    </g>
   </g>
   <g id="line2d_19">
    <path d="M 322.315 322.568 
L 322.315 32.67 
" clip-path="url(#p105f6fa93a)" style="fill: none; stroke-dasharray: 3.7,1.6; stroke-dashoffset: 0; stroke: #bdbdbd"/>
   </g>
   <g id="patch_15">
    <path d="M 50.63 322.568 
L 50.63 32.67 
" style="fill: none; stroke: #000000; stroke-width: 0.8; stroke-linejoin: miter; stroke-linecap: square"/>
   </g>
   <g id="patch_16">
    <path d="M 50.63 322.568 
L 594 322.568 
" style="fill: none; stroke: #000000; stroke-width: 0.8; stroke-linejoin: miter; stroke-linecap: square"/>
   </g>
   <g id="text_14">
    <!-- 79.8 -->
    <g transform="translate(81.332867 99.138647) scale(0.075 -0.075)">
     <defs>
      <path id="MicrosoftYaHei-Bold-37" d="M 3675 4225 
Q 3088 3172 2798 2528 
Q 2509 1884 2328 1275 
Q 2147 666 2050 0 
L 966 0 
Q 1122 947 1517 1917 
Q 1913 2888 2609 4009 
L 300 4009 
L 300 4841 
L 3675 4841 
L 3675 4225 
z
" transform="scale(0.015625)"/>
      <path id="MicrosoftYaHei-Bold-39" d="M 544 941 
Q 931 691 1456 691 
Q 2628 691 2653 2216 
L 2634 2222 
Q 2316 1731 1650 1731 
Q 1047 1731 658 2154 
Q 269 2578 269 3222 
Q 269 3978 737 4450 
Q 1206 4922 1959 4922 
Q 2744 4922 3191 4325 
Q 3638 3728 3638 2659 
Q 3638 1391 3098 653 
Q 2559 -84 1547 -84 
Q 975 -84 544 100 
L 544 941 
z
M 1259 3313 
Q 1259 2928 1445 2709 
Q 1631 2491 1953 2491 
Q 2241 2491 2427 2700 
Q 2613 2909 2613 3219 
Q 2613 3591 2427 3869 
Q 2241 4147 1928 4147 
Q 1625 4147 1442 3906 
Q 1259 3666 1259 3313 
z
" transform="scale(0.015625)"/>
      <path id="MicrosoftYaHei-Bold-2e" d="M 313 453 
Q 313 688 491 838 
Q 669 988 916 988 
Q 1166 988 1337 834 
Q 1509 681 1509 453 
Q 1509 213 1337 64 
Q 1166 -84 903 -84 
Q 659 -84 486 69 
Q 313 222 313 453 
z
" transform="scale(0.015625)"/>
      <path id="MicrosoftYaHei-Bold-38" d="M 269 1303 
Q 269 1725 512 2053 
Q 756 2381 1219 2534 
Q 850 2719 648 3003 
Q 447 3288 447 3634 
Q 447 3997 645 4292 
Q 844 4588 1200 4755 
Q 1556 4922 1997 4922 
Q 2441 4922 2800 4758 
Q 3159 4594 3359 4298 
Q 3559 4003 3559 3647 
Q 3559 3309 3339 3018 
Q 3119 2728 2747 2559 
Q 3200 2403 3453 2076 
Q 3706 1750 3706 1313 
Q 3706 697 3228 309 
Q 2750 -78 1988 -78 
Q 1225 -78 747 309 
Q 269 697 269 1303 
z
M 1278 1394 
Q 1278 1056 1472 853 
Q 1666 650 1991 650 
Q 2303 650 2503 853 
Q 2703 1056 2703 1394 
Q 2703 1709 2500 1920 
Q 2297 2131 1991 2131 
Q 1675 2131 1476 1920 
Q 1278 1709 1278 1394 
z
M 1428 3531 
Q 1428 3266 1592 3077 
Q 1756 2888 2006 2888 
Q 2247 2888 2415 3072 
Q 2584 3256 2584 3531 
Q 2584 3806 2420 3997 
Q 2256 4188 2006 4188 
Q 1750 4188 1589 3997 
Q 1428 3806 1428 3531 
z
" transform="scale(0.015625)"/>
     </defs>
     <use xlink:href="#MicrosoftYaHei-Bold-37"/>
     <use xlink:href="#MicrosoftYaHei-Bold-39" transform="translate(61.669922 0)"/>
     <use xlink:href="#MicrosoftYaHei-Bold-2e" transform="translate(123.339844 0)"/>
     <use xlink:href="#MicrosoftYaHei-Bold-38" transform="translate(151.904297 0)"/>
    </g>
   </g>
   <g id="text_15">
    <!-- 68.0 -->
    <g transform="translate(168.916684 131.579614) scale(0.075 -0.075)">
     <defs>
      <path id="MicrosoftYaHei-Bold-36" d="M 3378 3938 
Q 3009 4147 2575 4147 
Q 2016 4147 1680 3708 
Q 1344 3269 1344 2572 
L 1363 2572 
Q 1709 3103 2391 3103 
Q 3000 3103 3358 2686 
Q 3716 2269 3716 1600 
Q 3716 869 3250 392 
Q 2784 -84 2059 -84 
Q 1228 -84 786 516 
Q 344 1116 344 2159 
Q 344 3388 917 4155 
Q 1491 4922 2513 4922 
Q 3063 4922 3378 4791 
L 3378 3938 
z
M 1378 1591 
Q 1378 1216 1565 953 
Q 1753 691 2059 691 
Q 2369 691 2547 931 
Q 2725 1172 2725 1534 
Q 2725 2350 2053 2350 
Q 1750 2350 1564 2134 
Q 1378 1919 1378 1591 
z
" transform="scale(0.015625)"/>
      <path id="MicrosoftYaHei-Bold-30" d="M 244 2341 
Q 244 3597 706 4259 
Q 1169 4922 2044 4922 
Q 3713 4922 3713 2453 
Q 3713 1238 3259 577 
Q 2806 -84 1950 -84 
Q 244 -84 244 2341 
z
M 1266 2366 
Q 1266 691 1981 691 
Q 2684 691 2684 2416 
Q 2684 4147 2000 4147 
Q 1266 4147 1266 2366 
z
" transform="scale(0.015625)"/>
     </defs>
     <use xlink:href="#MicrosoftYaHei-Bold-36"/>
     <use xlink:href="#MicrosoftYaHei-Bold-38" transform="translate(61.669922 0)"/>
     <use xlink:href="#MicrosoftYaHei-Bold-2e" transform="translate(123.339844 0)"/>
     <use xlink:href="#MicrosoftYaHei-Bold-30" transform="translate(151.904297 0)"/>
    </g>
   </g>
   <g id="text_16">
    <!-- 38.8 -->
    <g transform="translate(256.500501 212.336914) scale(0.075 -0.075)">
     <defs>
      <path id="MicrosoftYaHei-Bold-33" d="M 494 1053 
Q 978 691 1625 691 
Q 2034 691 2275 872 
Q 2516 1053 2516 1388 
Q 2516 1731 2230 1912 
Q 1944 2094 1428 2094 
L 997 2094 
L 997 2872 
L 1394 2872 
Q 2369 2872 2369 3528 
Q 2369 4147 1622 4147 
Q 1134 4147 675 3828 
L 675 4663 
Q 1175 4922 1853 4922 
Q 2541 4922 2969 4605 
Q 3397 4288 3397 3725 
Q 3397 2775 2434 2531 
L 2434 2516 
Q 2941 2459 3244 2145 
Q 3547 1831 3547 1381 
Q 3547 691 3042 303 
Q 2538 -84 1697 -84 
Q 950 -84 494 163 
L 494 1053 
z
" transform="scale(0.015625)"/>
     </defs>
     <use xlink:href="#MicrosoftYaHei-Bold-33"/>
     <use xlink:href="#MicrosoftYaHei-Bold-38" transform="translate(61.669922 0)"/>
     <use xlink:href="#MicrosoftYaHei-Bold-2e" transform="translate(123.339844 0)"/>
     <use xlink:href="#MicrosoftYaHei-Bold-38" transform="translate(151.904297 0)"/>
    </g>
   </g>
   <g id="text_17">
    <!-- 94.2 -->
    <g transform="translate(344.084318 59.105114) scale(0.075 -0.075)">
     <defs>
      <path id="MicrosoftYaHei-Bold-34" d="M 3184 4841 
L 3184 1766 
L 3869 1766 
L 3869 1031 
L 3184 1031 
L 3184 0 
L 2266 0 
L 2266 1031 
L 103 1031 
L 103 1772 
Q 775 2522 1362 3359 
Q 1950 4197 2250 4841 
L 3184 4841 
z
M 997 1766 
L 2266 1766 
L 2266 3541 
Q 2116 3259 1836 2859 
Q 1556 2459 997 1766 
z
" transform="scale(0.015625)"/>
      <path id="MicrosoftYaHei-Bold-32" d="M 1500 841 
L 3553 841 
L 3553 0 
L 334 0 
L 334 359 
Q 334 738 473 1050 
Q 613 1363 856 1633 
Q 1100 1903 1613 2266 
Q 2081 2616 2268 2886 
Q 2456 3156 2456 3459 
Q 2456 4113 1744 4113 
Q 1119 4113 550 3613 
L 550 4513 
Q 1184 4922 1975 4922 
Q 2700 4922 3122 4551 
Q 3544 4181 3544 3531 
Q 3544 3169 3422 2876 
Q 3300 2584 3069 2328 
Q 2838 2072 2328 1713 
Q 1838 1363 1669 1172 
Q 1500 981 1500 841 
z
" transform="scale(0.015625)"/>
     </defs>
     <use xlink:href="#MicrosoftYaHei-Bold-39"/>
     <use xlink:href="#MicrosoftYaHei-Bold-34" transform="translate(61.669922 0)"/>
     <use xlink:href="#MicrosoftYaHei-Bold-2e" transform="translate(123.339844 0)"/>
     <use xlink:href="#MicrosoftYaHei-Bold-32" transform="translate(151.904297 0)"/>
    </g>
   </g>
   <g id="text_18">
    <!-- 97.0 -->
    <g transform="translate(431.668135 51.512547) scale(0.075 -0.075)">
     <use xlink:href="#MicrosoftYaHei-Bold-39"/>
     <use xlink:href="#MicrosoftYaHei-Bold-37" transform="translate(61.669922 0)"/>
     <use xlink:href="#MicrosoftYaHei-Bold-2e" transform="translate(123.339844 0)"/>
     <use xlink:href="#MicrosoftYaHei-Bold-30" transform="translate(151.904297 0)"/>
    </g>
   </g>
   <g id="text_19">
    <!-- 98.2 -->
    <g transform="translate(519.251952 48.06138) scale(0.075 -0.075)">
     <use xlink:href="#MicrosoftYaHei-Bold-39"/>
     <use xlink:href="#MicrosoftYaHei-Bold-38" transform="translate(61.669922 0)"/>
     <use xlink:href="#MicrosoftYaHei-Bold-2e" transform="translate(123.339844 0)"/>
     <use xlink:href="#MicrosoftYaHei-Bold-32" transform="translate(151.904297 0)"/>
    </g>
   </g>
   <g id="text_20">
    <!-- 78.8 -->
    <g transform="translate(109.359689 101.651096) scale(0.075 -0.075)">
     <use xlink:href="#MicrosoftYaHei-Bold-37"/>
     <use xlink:href="#MicrosoftYaHei-Bold-38" transform="translate(61.669922 0)"/>
     <use xlink:href="#MicrosoftYaHei-Bold-2e" transform="translate(123.339844 0)"/>
     <use xlink:href="#MicrosoftYaHei-Bold-38" transform="translate(151.904297 0)"/>
    </g>
   </g>
   <g id="text_21">
    <!-- 65.9 -->
    <g transform="translate(196.943506 137.460402) scale(0.075 -0.075)">
     <defs>
      <path id="MicrosoftYaHei-Bold-35" d="M 541 125 
L 541 997 
Q 1044 691 1613 691 
Q 2041 691 2283 902 
Q 2525 1113 2525 1472 
Q 2525 2225 1494 2225 
Q 1113 2225 616 2169 
L 797 4841 
L 3359 4841 
L 3359 4009 
L 1613 4009 
L 1544 2991 
Q 1803 3013 2022 3013 
Q 2731 3013 3142 2625 
Q 3553 2238 3553 1575 
Q 3553 844 3056 380 
Q 2559 -84 1706 -84 
Q 1016 -84 541 125 
z
" transform="scale(0.015625)"/>
     </defs>
     <use xlink:href="#MicrosoftYaHei-Bold-36"/>
     <use xlink:href="#MicrosoftYaHei-Bold-35" transform="translate(61.669922 0)"/>
     <use xlink:href="#MicrosoftYaHei-Bold-2e" transform="translate(123.339844 0)"/>
     <use xlink:href="#MicrosoftYaHei-Bold-39" transform="translate(151.904297 0)"/>
    </g>
   </g>
   <g id="text_22">
    <!-- 35.7 -->
    <g transform="translate(284.527323 220.730151) scale(0.075 -0.075)">
     <use xlink:href="#MicrosoftYaHei-Bold-33"/>
     <use xlink:href="#MicrosoftYaHei-Bold-35" transform="translate(61.669922 0)"/>
     <use xlink:href="#MicrosoftYaHei-Bold-2e" transform="translate(123.339844 0)"/>
     <use xlink:href="#MicrosoftYaHei-Bold-37" transform="translate(151.904297 0)"/>
    </g>
   </g>
   <g id="text_23">
    <!-- 94.1 -->
    <g transform="translate(372.111139 59.519254) scale(0.075 -0.075)">
     <defs>
      <path id="MicrosoftYaHei-Bold-31" d="M 2716 4947 
L 2716 0 
L 1700 0 
L 1700 3809 
Q 1513 3647 1188 3517 
Q 863 3388 591 3356 
L 591 4222 
Q 1447 4472 2072 4947 
L 2716 4947 
z
" transform="scale(0.015625)"/>
     </defs>
     <use xlink:href="#MicrosoftYaHei-Bold-39"/>
     <use xlink:href="#MicrosoftYaHei-Bold-34" transform="translate(61.669922 0)"/>
     <use xlink:href="#MicrosoftYaHei-Bold-2e" transform="translate(123.339844 0)"/>
     <use xlink:href="#MicrosoftYaHei-Bold-31" transform="translate(151.904297 0)"/>
    </g>
   </g>
   <g id="text_24">
    <!-- 96.9 -->
    <g transform="translate(459.694956 51.78864) scale(0.075 -0.075)">
     <use xlink:href="#MicrosoftYaHei-Bold-39"/>
     <use xlink:href="#MicrosoftYaHei-Bold-36" transform="translate(61.669922 0)"/>
     <use xlink:href="#MicrosoftYaHei-Bold-2e" transform="translate(123.339844 0)"/>
     <use xlink:href="#MicrosoftYaHei-Bold-39" transform="translate(151.904297 0)"/>
    </g>
   </g>
   <g id="text_25">
    <!-- 98.2 -->
    <g transform="translate(547.278773 48.199427) scale(0.075 -0.075)">
     <use xlink:href="#MicrosoftYaHei-Bold-39"/>
     <use xlink:href="#MicrosoftYaHei-Bold-38" transform="translate(61.669922 0)"/>
     <use xlink:href="#MicrosoftYaHei-Bold-2e" transform="translate(123.339844 0)"/>
     <use xlink:href="#MicrosoftYaHei-Bold-32" transform="translate(151.904297 0)"/>
    </g>
   </g>
   <g id="text_26">
    <!-- Baselines -->
    <g style="fill: #757575" transform="translate(171.187087 43.265082) scale(0.09 -0.09)">
     <defs>
      <path id="MicrosoftYaHei-42" d="M 625 0 
L 625 4841 
L 2047 4841 
Q 2684 4841 3065 4536 
Q 3447 4231 3447 3728 
Q 3447 3328 3220 3022 
Q 2994 2716 2597 2588 
L 2597 2575 
Q 3091 2519 3386 2201 
Q 3681 1884 3681 1397 
Q 3681 772 3232 386 
Q 2784 0 2084 0 
L 625 0 
z
M 1250 4294 
L 1250 2778 
L 1819 2778 
Q 2272 2778 2530 2998 
Q 2788 3219 2788 3609 
Q 2788 4294 1875 4294 
L 1250 4294 
z
M 1250 2234 
L 1250 547 
L 2000 547 
Q 2491 547 2758 773 
Q 3025 1000 3025 1403 
Q 3025 2234 1897 2234 
L 1250 2234 
z
" transform="scale(0.015625)"/>
      <path id="MicrosoftYaHei-69" d="M 472 4675 
Q 472 4838 583 4948 
Q 694 5059 856 5059 
Q 1022 5059 1136 4950 
Q 1250 4841 1250 4675 
Q 1250 4513 1136 4405 
Q 1022 4297 856 4297 
Q 691 4297 581 4405 
Q 472 4513 472 4675 
z
M 544 0 
L 544 3456 
L 1156 3456 
L 1156 0 
L 544 0 
z
" transform="scale(0.015625)"/>
     </defs>
     <use xlink:href="#MicrosoftYaHei-42"/>
     <use xlink:href="#MicrosoftYaHei-61" transform="translate(62.744141 0)"/>
     <use xlink:href="#MicrosoftYaHei-73" transform="translate(118.017578 0)"/>
     <use xlink:href="#MicrosoftYaHei-65" transform="translate(164.306641 0)"/>
     <use xlink:href="#MicrosoftYaHei-6c" transform="translate(221.044922 0)"/>
     <use xlink:href="#MicrosoftYaHei-69" transform="translate(247.65625 0)"/>
     <use xlink:href="#MicrosoftYaHei-6e" transform="translate(274.267578 0)"/>
     <use xlink:href="#MicrosoftYaHei-65" transform="translate(335.888672 0)"/>
     <use xlink:href="#MicrosoftYaHei-73" transform="translate(392.626953 0)"/>
    </g>
   </g>
   <g id="text_27">
    <!-- Proposed -->
    <g style="fill: #bf360c" transform="translate(433.169319 43.265082) scale(0.09 -0.09)">
     <defs>
      <path id="MicrosoftYaHei-72" d="M 2400 2850 
Q 2247 2959 1978 2959 
Q 1622 2959 1390 2626 
Q 1159 2294 1159 1750 
L 1159 0 
L 547 0 
L 547 3456 
L 1159 3456 
L 1159 2753 
L 1172 2753 
Q 1434 3516 2078 3516 
Q 2288 3516 2400 3469 
L 2400 2850 
z
" transform="scale(0.015625)"/>
      <path id="MicrosoftYaHei-6f" d="M 316 1691 
Q 316 2547 794 3042 
Q 1272 3538 2091 3538 
Q 2869 3538 3311 3061 
Q 3753 2584 3753 1744 
Q 3753 925 3281 422 
Q 2809 -81 2016 -81 
Q 1241 -81 778 406 
Q 316 894 316 1691 
z
M 941 1709 
Q 941 1113 1242 769 
Q 1544 425 2053 425 
Q 2578 425 2853 761 
Q 3128 1097 3128 1725 
Q 3128 2356 2853 2693 
Q 2578 3031 2053 3031 
Q 1538 3031 1239 2678 
Q 941 2325 941 1709 
z
" transform="scale(0.015625)"/>
      <path id="MicrosoftYaHei-64" d="M 3547 0 
L 2934 0 
L 2934 575 
L 2922 575 
Q 2544 -81 1747 -81 
Q 1091 -81 703 386 
Q 316 853 316 1647 
Q 316 2503 753 3020 
Q 1191 3538 1897 3538 
Q 2603 3538 2922 2988 
L 2934 2988 
L 2934 5116 
L 3547 5116 
L 3547 0 
z
M 2938 2056 
Q 2938 2472 2664 2751 
Q 2391 3031 1991 3031 
Q 1503 3031 1222 2667 
Q 941 2303 941 1675 
Q 941 1097 1211 761 
Q 1481 425 1931 425 
Q 2375 425 2656 754 
Q 2938 1084 2938 1575 
L 2938 2056 
z
" transform="scale(0.015625)"/>
     </defs>
     <use xlink:href="#MicrosoftYaHei-50"/>
     <use xlink:href="#MicrosoftYaHei-72" transform="translate(61.181641 0)"/>
     <use xlink:href="#MicrosoftYaHei-6f" transform="translate(97.990234 0)"/>
     <use xlink:href="#MicrosoftYaHei-70" transform="translate(161.564453 0)"/>
     <use xlink:href="#MicrosoftYaHei-6f" transform="translate(225.431641 0)"/>
     <use xlink:href="#MicrosoftYaHei-73" transform="translate(289.005859 0)"/>
     <use xlink:href="#MicrosoftYaHei-65" transform="translate(335.294922 0)"/>
     <use xlink:href="#MicrosoftYaHei-64" transform="translate(392.033203 0)"/>
    </g>
   </g>
   <g id="text_28">
    <!-- Comparison of Diagnostic Methods on Held-out Test Set -->
    <g transform="translate(151.452812 20.67) scale(0.12 -0.12)">
     <defs>
      <path id="MicrosoftYaHei-Bold-43" d="M 4013 175 
Q 3484 -84 2634 -84 
Q 1541 -84 898 570 
Q 256 1225 256 2316 
Q 256 3463 973 4192 
Q 1691 4922 2825 4922 
Q 3534 4922 4013 4738 
L 4013 3741 
Q 3522 4028 2900 4028 
Q 2191 4028 1766 3575 
Q 1341 3122 1341 2391 
Q 1341 1678 1744 1243 
Q 2147 809 2834 809 
Q 3481 809 4013 1122 
L 4013 175 
z
" transform="scale(0.015625)"/>
      <path id="MicrosoftYaHei-Bold-6f" d="M 253 1713 
Q 253 2566 764 3053 
Q 1275 3541 2138 3541 
Q 2972 3541 3462 3061 
Q 3953 2581 3953 1772 
Q 3953 922 3450 419 
Q 2947 -84 2088 -84 
Q 1244 -84 748 398 
Q 253 881 253 1713 
z
M 1275 1725 
Q 1275 691 2119 691 
Q 2928 691 2928 1753 
Q 2928 2766 2113 2766 
Q 1716 2766 1495 2494 
Q 1275 2222 1275 1725 
z
" transform="scale(0.015625)"/>
      <path id="MicrosoftYaHei-Bold-6d" d="M 5881 0 
L 4875 0 
L 4875 1972 
Q 4875 2766 4297 2766 
Q 4028 2766 3850 2525 
Q 3672 2284 3672 1938 
L 3672 0 
L 2666 0 
L 2666 1997 
Q 2666 2766 2094 2766 
Q 1809 2766 1639 2536 
Q 1469 2306 1469 1928 
L 1469 0 
L 459 0 
L 459 3456 
L 1469 3456 
L 1469 2916 
L 1481 2916 
Q 1663 3213 1963 3377 
Q 2263 3541 2594 3541 
Q 3322 3541 3591 2888 
Q 3991 3541 4753 3541 
Q 5881 3541 5881 2147 
L 5881 0 
z
" transform="scale(0.015625)"/>
      <path id="MicrosoftYaHei-Bold-70" d="M 1469 416 
L 1469 -1591 
L 459 -1591 
L 459 3456 
L 1469 3456 
L 1469 2928 
L 1481 2928 
Q 1878 3541 2603 3541 
Q 3263 3541 3634 3080 
Q 4006 2619 4006 1825 
Q 4006 959 3575 437 
Q 3144 -84 2444 -84 
Q 1809 -84 1481 416 
L 1469 416 
z
M 1453 1528 
Q 1453 1159 1653 925 
Q 1853 691 2172 691 
Q 2550 691 2761 984 
Q 2972 1278 2972 1816 
Q 2972 2766 2231 2766 
Q 1888 2766 1670 2503 
Q 1453 2241 1453 1828 
L 1453 1528 
z
" transform="scale(0.015625)"/>
      <path id="MicrosoftYaHei-Bold-61" d="M 544 3247 
Q 778 3378 1170 3459 
Q 1563 3541 1841 3541 
Q 3291 3541 3291 2088 
L 3291 0 
L 2331 0 
L 2331 503 
L 2319 503 
Q 1966 -84 1284 -84 
Q 794 -84 498 195 
Q 203 475 203 956 
Q 203 1950 1388 2113 
L 2338 2241 
Q 2338 2844 1709 2844 
Q 1091 2844 544 2469 
L 544 3247 
z
M 1684 1566 
Q 1138 1494 1138 1072 
Q 1138 878 1270 759 
Q 1403 641 1628 641 
Q 1938 641 2138 859 
Q 2338 1078 2338 1403 
L 2338 1650 
L 1684 1566 
z
" transform="scale(0.015625)"/>
      <path id="MicrosoftYaHei-Bold-72" d="M 2663 2541 
Q 2478 2647 2216 2647 
Q 1872 2647 1670 2384 
Q 1469 2122 1469 1663 
L 1469 0 
L 459 0 
L 459 3456 
L 1469 3456 
L 1469 2806 
L 1481 2806 
Q 1731 3516 2391 3516 
Q 2569 3516 2663 3475 
L 2663 2541 
z
" transform="scale(0.015625)"/>
      <path id="MicrosoftYaHei-Bold-69" d="M 369 4572 
Q 369 4803 533 4948 
Q 697 5094 953 5094 
Q 1216 5094 1378 4945 
Q 1541 4797 1541 4572 
Q 1541 4344 1375 4192 
Q 1209 4041 953 4041 
Q 700 4041 534 4194 
Q 369 4347 369 4572 
z
M 444 0 
L 444 3456 
L 1450 3456 
L 1450 0 
L 444 0 
z
" transform="scale(0.015625)"/>
      <path id="MicrosoftYaHei-Bold-73" d="M 369 928 
Q 888 613 1384 613 
Q 2009 613 2009 947 
Q 2009 1184 1494 1344 
Q 850 1544 609 1789 
Q 369 2034 369 2453 
Q 369 2963 781 3252 
Q 1194 3541 1863 3541 
Q 2338 3541 2778 3400 
L 2778 2606 
Q 2375 2844 1891 2844 
Q 1650 2844 1503 2758 
Q 1356 2672 1356 2531 
Q 1356 2294 1794 2147 
Q 2263 1991 2498 1862 
Q 2734 1734 2857 1525 
Q 2981 1316 2981 1041 
Q 2981 506 2553 211 
Q 2125 -84 1409 -84 
Q 847 -84 369 94 
L 369 928 
z
" transform="scale(0.015625)"/>
      <path id="MicrosoftYaHei-Bold-6e" d="M 3744 0 
L 2741 0 
L 2741 1928 
Q 2741 2766 2138 2766 
Q 1850 2766 1659 2542 
Q 1469 2319 1469 1972 
L 1469 0 
L 459 0 
L 459 3456 
L 1469 3456 
L 1469 2906 
L 1481 2906 
Q 1859 3541 2594 3541 
Q 3744 3541 3744 2116 
L 3744 0 
z
" transform="scale(0.015625)"/>
      <path id="MicrosoftYaHei-Bold-20" transform="scale(0.015625)"/>
      <path id="MicrosoftYaHei-Bold-66" d="M 2653 4338 
Q 2447 4419 2263 4419 
Q 1744 4419 1744 3844 
L 1744 3456 
L 2531 3456 
L 2531 2703 
L 1744 2703 
L 1744 0 
L 734 0 
L 734 2703 
L 156 2703 
L 156 3456 
L 734 3456 
L 734 3900 
Q 734 4491 1118 4844 
Q 1503 5197 2128 5197 
Q 2447 5197 2653 5131 
L 2653 4338 
z
" transform="scale(0.015625)"/>
      <path id="MicrosoftYaHei-Bold-44" d="M 559 0 
L 559 4841 
L 2231 4841 
Q 4809 4841 4809 2481 
Q 4809 1359 4087 679 
Q 3366 0 2225 0 
L 559 0 
z
M 1591 3997 
L 1591 844 
L 2153 844 
Q 2888 844 3306 1281 
Q 3725 1719 3725 2466 
Q 3725 3188 3287 3592 
Q 2850 3997 2150 3997 
L 1591 3997 
z
" transform="scale(0.015625)"/>
      <path id="MicrosoftYaHei-Bold-67" d="M 3800 381 
Q 3800 -581 3251 -1101 
Q 2703 -1622 1672 -1622 
Q 972 -1622 559 -1422 
L 559 -559 
Q 1097 -872 1644 -872 
Q 2184 -872 2489 -583 
Q 2794 -294 2794 219 
L 2794 506 
L 2778 506 
Q 2413 -84 1691 -84 
Q 1038 -84 645 381 
Q 253 847 253 1628 
Q 253 2500 686 3020 
Q 1119 3541 1822 3541 
Q 2459 3541 2778 3044 
L 2794 3044 
L 2794 3456 
L 3800 3456 
L 3800 381 
z
M 2803 1950 
Q 2803 2294 2595 2530 
Q 2388 2766 2072 2766 
Q 1703 2766 1489 2477 
Q 1275 2188 1275 1666 
Q 1275 1213 1481 952 
Q 1688 691 2028 691 
Q 2372 691 2587 956 
Q 2803 1222 2803 1647 
L 2803 1950 
z
" transform="scale(0.015625)"/>
      <path id="MicrosoftYaHei-Bold-74" d="M 2494 41 
Q 2266 -84 1803 -84 
Q 703 -84 703 1072 
L 703 2703 
L 134 2703 
L 134 3456 
L 703 3456 
L 703 4216 
L 1706 4503 
L 1706 3456 
L 2494 3456 
L 2494 2703 
L 1706 2703 
L 1706 1247 
Q 1706 694 2144 694 
Q 2313 694 2494 794 
L 2494 41 
z
" transform="scale(0.015625)"/>
      <path id="MicrosoftYaHei-Bold-63" d="M 3050 128 
Q 2688 -84 2019 -84 
Q 1228 -84 740 397 
Q 253 878 253 1644 
Q 253 2525 778 3033 
Q 1303 3541 2178 3541 
Q 2769 3541 3053 3378 
L 3053 2513 
Q 2706 2766 2297 2766 
Q 1834 2766 1554 2484 
Q 1275 2203 1275 1713 
Q 1275 1238 1540 964 
Q 1806 691 2263 691 
Q 2666 691 3050 947 
L 3050 128 
z
" transform="scale(0.015625)"/>
      <path id="MicrosoftYaHei-Bold-4d" d="M 4991 0 
L 4991 2938 
Q 4991 3344 5031 3959 
L 5006 3959 
Q 4913 3494 4856 3338 
L 3663 0 
L 2841 0 
L 1631 3306 
Q 1588 3425 1478 3959 
L 1450 3959 
Q 1491 3350 1491 2738 
L 1491 0 
L 559 0 
L 559 4841 
L 2059 4841 
L 3103 1916 
Q 3234 1553 3281 1234 
L 3303 1234 
Q 3400 1631 3503 1922 
L 4550 4841 
L 6009 4841 
L 6009 0 
L 4991 0 
z
" transform="scale(0.015625)"/>
      <path id="MicrosoftYaHei-Bold-65" d="M 3528 1444 
L 1253 1444 
Q 1306 641 2222 641 
Q 2794 641 3231 922 
L 3231 181 
Q 2759 -84 1994 -84 
Q 1169 -84 711 381 
Q 253 847 253 1678 
Q 253 2506 740 3023 
Q 1228 3541 1966 3541 
Q 2700 3541 3114 3095 
Q 3528 2650 3528 1872 
L 3528 1444 
z
M 2588 2075 
Q 2588 2850 1959 2850 
Q 1700 2850 1500 2637 
Q 1300 2425 1250 2075 
L 2588 2075 
z
" transform="scale(0.015625)"/>
      <path id="MicrosoftYaHei-Bold-68" d="M 3725 0 
L 2719 0 
L 2719 1969 
Q 2719 2766 2138 2766 
Q 1847 2766 1658 2544 
Q 1469 2322 1469 1969 
L 1469 0 
L 459 0 
L 459 5116 
L 1469 5116 
L 1469 2938 
L 1481 2938 
Q 1878 3541 2550 3541 
Q 3725 3541 3725 2122 
L 3725 0 
z
" transform="scale(0.015625)"/>
      <path id="MicrosoftYaHei-Bold-64" d="M 3794 0 
L 2788 0 
L 2788 488 
L 2772 488 
Q 2406 -84 1691 -84 
Q 1031 -84 642 381 
Q 253 847 253 1650 
Q 253 2500 689 3020 
Q 1125 3541 1828 3541 
Q 2503 3541 2772 3053 
L 2788 3053 
L 2788 5116 
L 3794 5116 
L 3794 0 
z
M 2803 1956 
Q 2803 2306 2592 2536 
Q 2381 2766 2066 2766 
Q 1697 2766 1486 2473 
Q 1275 2181 1275 1681 
Q 1275 1206 1478 948 
Q 1681 691 2038 691 
Q 2372 691 2587 962 
Q 2803 1234 2803 1669 
L 2803 1956 
z
" transform="scale(0.015625)"/>
      <path id="MicrosoftYaHei-Bold-48" d="M 4684 0 
L 3653 0 
L 3653 1997 
L 1591 1997 
L 1591 0 
L 559 0 
L 559 4841 
L 1591 4841 
L 1591 2888 
L 3653 2888 
L 3653 4841 
L 4684 4841 
L 4684 0 
z
" transform="scale(0.015625)"/>
      <path id="MicrosoftYaHei-Bold-6c" d="M 444 0 
L 444 5116 
L 1450 5116 
L 1450 0 
L 444 0 
z
" transform="scale(0.015625)"/>
      <path id="MicrosoftYaHei-Bold-2d" d="M 2328 1497 
L 481 1497 
L 481 2209 
L 2328 2209 
L 2328 1497 
z
" transform="scale(0.015625)"/>
      <path id="MicrosoftYaHei-Bold-75" d="M 3691 0 
L 2688 0 
L 2688 528 
L 2672 528 
Q 2284 -84 1613 -84 
Q 406 -84 406 1372 
L 406 3456 
L 1416 3456 
L 1416 1466 
Q 1416 691 2022 691 
Q 2325 691 2506 903 
Q 2688 1116 2688 1478 
L 2688 3456 
L 3691 3456 
L 3691 0 
z
" transform="scale(0.015625)"/>
      <path id="MicrosoftYaHei-Bold-54" d="M 3900 3997 
L 2519 3997 
L 2519 0 
L 1484 0 
L 1484 3997 
L 106 3997 
L 106 4841 
L 3900 4841 
L 3900 3997 
z
" transform="scale(0.015625)"/>
      <path id="MicrosoftYaHei-Bold-53" d="M 338 1219 
Q 922 734 1666 734 
Q 2088 734 2300 879 
Q 2513 1025 2513 1253 
Q 2513 1450 2344 1625 
Q 2175 1800 1453 2100 
Q 319 2581 319 3500 
Q 319 4175 833 4548 
Q 1347 4922 2194 4922 
Q 2903 4922 3384 4738 
L 3384 3769 
Q 2897 4100 2244 4100 
Q 1863 4100 1634 3961 
Q 1406 3822 1406 3588 
Q 1406 3400 1562 3242 
Q 1719 3084 2334 2816 
Q 3056 2506 3326 2162 
Q 3597 1819 3597 1344 
Q 3597 647 3103 281 
Q 2609 -84 1700 -84 
Q 869 -84 338 184 
L 338 1219 
z
" transform="scale(0.015625)"/>
     </defs>
     <use xlink:href="#MicrosoftYaHei-Bold-43"/>
     <use xlink:href="#MicrosoftYaHei-Bold-6f" transform="translate(67.333984 0)"/>
     <use xlink:href="#MicrosoftYaHei-Bold-6d" transform="translate(133.056641 0)"/>
     <use xlink:href="#MicrosoftYaHei-Bold-70" transform="translate(231.25 0)"/>
     <use xlink:href="#MicrosoftYaHei-Bold-61" transform="translate(296.726562 0)"/>
     <use xlink:href="#MicrosoftYaHei-Bold-72" transform="translate(354.490234 0)"/>
     <use xlink:href="#MicrosoftYaHei-Bold-69" transform="translate(397.248047 0)"/>
     <use xlink:href="#MicrosoftYaHei-Bold-73" transform="translate(426.837891 0)"/>
     <use xlink:href="#MicrosoftYaHei-Bold-6f" transform="translate(476.203125 0)"/>
     <use xlink:href="#MicrosoftYaHei-Bold-6e" transform="translate(541.925781 0)"/>
     <use xlink:href="#MicrosoftYaHei-Bold-20" transform="translate(606.720703 0)"/>
     <use xlink:href="#MicrosoftYaHei-Bold-6f" transform="translate(636.505859 0)"/>
     <use xlink:href="#MicrosoftYaHei-Bold-66" transform="translate(700.603516 0)"/>
     <use xlink:href="#MicrosoftYaHei-Bold-20" transform="translate(741.130859 0)"/>
     <use xlink:href="#MicrosoftYaHei-Bold-44" transform="translate(770.916016 0)"/>
     <use xlink:href="#MicrosoftYaHei-Bold-69" transform="translate(850.066406 0)"/>
     <use xlink:href="#MicrosoftYaHei-Bold-61" transform="translate(879.65625 0)"/>
     <use xlink:href="#MicrosoftYaHei-Bold-67" transform="translate(937.419922 0)"/>
     <use xlink:href="#MicrosoftYaHei-Bold-6e" transform="translate(1003.875 0)"/>
     <use xlink:href="#MicrosoftYaHei-Bold-6f" transform="translate(1068.669922 0)"/>
     <use xlink:href="#MicrosoftYaHei-Bold-73" transform="translate(1134.392578 0)"/>
     <use xlink:href="#MicrosoftYaHei-Bold-74" transform="translate(1183.757812 0)"/>
     <use xlink:href="#MicrosoftYaHei-Bold-69" transform="translate(1225.164062 0)"/>
     <use xlink:href="#MicrosoftYaHei-Bold-63" transform="translate(1254.753906 0)"/>
     <use xlink:href="#MicrosoftYaHei-Bold-20" transform="translate(1306.414062 0)"/>
     <use xlink:href="#MicrosoftYaHei-Bold-4d" transform="translate(1336.199219 0)"/>
     <use xlink:href="#MicrosoftYaHei-Bold-65" transform="translate(1439.03125 0)"/>
     <use xlink:href="#MicrosoftYaHei-Bold-74" transform="translate(1497.234375 0)"/>
     <use xlink:href="#MicrosoftYaHei-Bold-68" transform="translate(1538.640625 0)"/>
     <use xlink:href="#MicrosoftYaHei-Bold-6f" transform="translate(1603.191406 0)"/>
     <use xlink:href="#MicrosoftYaHei-Bold-64" transform="translate(1668.914062 0)"/>
     <use xlink:href="#MicrosoftYaHei-Bold-73" transform="translate(1735.369141 0)"/>
     <use xlink:href="#MicrosoftYaHei-Bold-20" transform="translate(1784.734375 0)"/>
     <use xlink:href="#MicrosoftYaHei-Bold-6f" transform="translate(1814.519531 0)"/>
     <use xlink:href="#MicrosoftYaHei-Bold-6e" transform="translate(1880.242188 0)"/>
     <use xlink:href="#MicrosoftYaHei-Bold-20" transform="translate(1945.037109 0)"/>
     <use xlink:href="#MicrosoftYaHei-Bold-48" transform="translate(1974.822266 0)"/>
     <use xlink:href="#MicrosoftYaHei-Bold-65" transform="translate(2056.951172 0)"/>
     <use xlink:href="#MicrosoftYaHei-Bold-6c" transform="translate(2115.154297 0)"/>
     <use xlink:href="#MicrosoftYaHei-Bold-64" transform="translate(2144.744141 0)"/>
     <use xlink:href="#MicrosoftYaHei-Bold-2d" transform="translate(2211.199219 0)"/>
     <use xlink:href="#MicrosoftYaHei-Bold-6f" transform="translate(2254.851562 0)"/>
     <use xlink:href="#MicrosoftYaHei-Bold-75" transform="translate(2320.574219 0)"/>
     <use xlink:href="#MicrosoftYaHei-Bold-74" transform="translate(2385.369141 0)"/>
     <use xlink:href="#MicrosoftYaHei-Bold-20" transform="translate(2426.775391 0)"/>
     <use xlink:href="#MicrosoftYaHei-Bold-54" transform="translate(2456.560547 0)"/>
     <use xlink:href="#MicrosoftYaHei-Bold-65" transform="translate(2509.234375 0)"/>
     <use xlink:href="#MicrosoftYaHei-Bold-73" transform="translate(2567.4375 0)"/>
     <use xlink:href="#MicrosoftYaHei-Bold-74" transform="translate(2616.802734 0)"/>
     <use xlink:href="#MicrosoftYaHei-Bold-20" transform="translate(2658.208984 0)"/>
     <use xlink:href="#MicrosoftYaHei-Bold-53" transform="translate(2687.994141 0)"/>
     <use xlink:href="#MicrosoftYaHei-Bold-65" transform="translate(2748.150391 0)"/>
     <use xlink:href="#MicrosoftYaHei-Bold-74" transform="translate(2806.353516 0)"/>
    </g>
   </g>
   <g id="legend_1">
    <g id="patch_17">
     <path d="M 500.947031 318.068 
L 587.7 318.068 
Q 589.5 318.068 589.5 316.268 
L 589.5 289.252531 
Q 589.5 287.452531 587.7 287.452531 
L 500.947031 287.452531 
Q 499.147031 287.452531 499.147031 289.252531 
L 499.147031 316.268 
Q 499.147031 318.068 500.947031 318.068 
z
" style="fill: #ffffff; opacity: 0.8; stroke: #cccccc; stroke-linejoin: miter"/>
    </g>
    <g id="patch_18">
     <path d="M 502.747031 298.246906 
L 520.747031 298.246906 
L 520.747031 291.946906 
L 502.747031 291.946906 
z
" style="fill: #9e9e9e; stroke: #ffffff; stroke-width: 0.8; stroke-linejoin: miter"/>
    </g>
    <g id="text_29">
     <!-- Accuracy (%) -->
     <g transform="translate(527.947031 298.246906) scale(0.09 -0.09)">
      <defs>
       <path id="MicrosoftYaHei-75" d="M 3400 0 
L 2784 0 
L 2784 544 
L 2772 544 
Q 2425 -81 1706 -81 
Q 478 -81 478 1388 
L 478 3456 
L 1084 3456 
L 1084 1478 
Q 1084 425 1891 425 
Q 2291 425 2537 720 
Q 2784 1016 2784 1466 
L 2784 3456 
L 3400 3456 
L 3400 0 
z
" transform="scale(0.015625)"/>
       <path id="MicrosoftYaHei-79" d="M 3359 3456 
L 1791 -522 
Q 1353 -1628 556 -1628 
Q 328 -1628 166 -1578 
L 166 -1041 
Q 344 -1109 509 -1109 
Q 925 -1109 1131 -622 
L 1397 6 
L 41 3456 
L 719 3456 
L 1622 859 
L 1697 575 
L 1713 575 
Q 1731 672 1788 853 
L 2731 3456 
L 3359 3456 
z
" transform="scale(0.015625)"/>
      </defs>
      <use xlink:href="#MicrosoftYaHei-41"/>
      <use xlink:href="#MicrosoftYaHei-63" transform="translate(70.361328 0)"/>
      <use xlink:href="#MicrosoftYaHei-63" transform="translate(120.507812 0)"/>
      <use xlink:href="#MicrosoftYaHei-75" transform="translate(170.654297 0)"/>
      <use xlink:href="#MicrosoftYaHei-72" transform="translate(232.275391 0)"/>
      <use xlink:href="#MicrosoftYaHei-61" transform="translate(270.458984 0)"/>
      <use xlink:href="#MicrosoftYaHei-63" transform="translate(325.732422 0)"/>
      <use xlink:href="#MicrosoftYaHei-79" transform="translate(375.878906 0)"/>
      <use xlink:href="#MicrosoftYaHei-20" transform="translate(428.808594 0)"/>
      <use xlink:href="#MicrosoftYaHei-28" transform="translate(458.398438 0)"/>
      <use xlink:href="#MicrosoftYaHei-25" transform="translate(491.796875 0)"/>
      <use xlink:href="#MicrosoftYaHei-29" transform="translate(580.761719 0)"/>
     </g>
    </g>
    <g id="patch_19">
     <path d="M 502.747031 312.230656 
L 520.747031 312.230656 
L 520.747031 305.930656 
L 502.747031 305.930656 
z
" style="fill: url(#hff50fd4f11); opacity: 0.65; stroke: #ffffff; stroke-width: 0.8; stroke-linejoin: miter"/>
    </g>
    <g id="text_30">
     <!-- Macro-F1 (%) -->
     <g transform="translate(527.947031 312.230656) scale(0.09 -0.09)">
      <defs>
       <path id="MicrosoftYaHei-4d" d="M 5003 0 
L 5003 3206 
Q 5003 3603 5050 4159 
L 5034 4159 
Q 4953 3809 4891 3672 
L 3294 0 
L 2947 0 
L 1353 3644 
Q 1297 3769 1209 4159 
L 1191 4159 
Q 1222 3822 1222 3178 
L 1222 0 
L 625 0 
L 625 4841 
L 1472 4841 
L 2900 1522 
Q 3063 1141 3116 928 
L 3138 928 
Q 3300 1375 3366 1534 
L 4819 4841 
L 5625 4841 
L 5625 0 
L 5003 0 
z
" transform="scale(0.015625)"/>
      </defs>
      <use xlink:href="#MicrosoftYaHei-4d"/>
      <use xlink:href="#MicrosoftYaHei-61" transform="translate(97.705078 0)"/>
      <use xlink:href="#MicrosoftYaHei-63" transform="translate(152.978516 0)"/>
      <use xlink:href="#MicrosoftYaHei-72" transform="translate(203.125 0)"/>
      <use xlink:href="#MicrosoftYaHei-6f" transform="translate(239.933594 0)"/>
      <use xlink:href="#MicrosoftYaHei-2d" transform="translate(303.507812 0)"/>
      <use xlink:href="#MicrosoftYaHei-46" transform="translate(346.769531 0)"/>
      <use xlink:href="#MicrosoftYaHei-31" transform="translate(399.894531 0)"/>
      <use xlink:href="#MicrosoftYaHei-20" transform="translate(458.537109 0)"/>
      <use xlink:href="#MicrosoftYaHei-28" transform="translate(488.126953 0)"/>
      <use xlink:href="#MicrosoftYaHei-25" transform="translate(521.525391 0)"/>
      <use xlink:href="#MicrosoftYaHei-29" transform="translate(610.490234 0)"/>
     </g>
    </g>
   </g>
  </g>
 </g>
 <defs>
  <clipPath id="p105f6fa93a">
   <rect x="50.63" y="32.67" width="543.37" height="289.898"/>
  </clipPath>
 </defs>
 <defs>
  <pattern id="hff50fd4f11" patternUnits="userSpaceOnUse" x="0" y="0" width="72" height="72">
   <rect x="0" y="0" width="73" height="73" fill="#9e9e9e"/>
   <path d="M -36 36 
L 36 -36 
M -30 42 
L 42 -30 
M -24 48 
L 48 -24 
M -18 54 
L 54 -18 
M -12 60 
L 60 -12 
M -6 66 
L 66 -6 
M 0 72 
L 72 0 
M 6 78 
L 78 6 
M 12 84 
L 84 12 
M 18 90 
L 90 18 
M 24 96 
L 96 24 
M 30 102 
L 102 30 
M 36 108 
L 108 36 
" style="fill: #ffffff; stroke: #ffffff; stroke-width: 1.0; stroke-linecap: butt; stroke-linejoin: miter; stroke-opacity: 0.65"/>
  </pattern>
  <pattern id="h547dae3937" patternUnits="userSpaceOnUse" x="0" y="0" width="72" height="72">
   <rect x="0" y="0" width="73" height="73" fill="#78909c"/>
   <path d="M -36 36 
L 36 -36 
M -30 42 
L 42 -30 
M -24 48 
L 48 -24 
M -18 54 
L 54 -18 
M -12 60 
L 60 -12 
M -6 66 
L 66 -6 
M 0 72 
L 72 0 
M 6 78 
L 78 6 
M 12 84 
L 84 12 
M 18 90 
L 90 18 
M 24 96 
L 96 24 
M 30 102 
L 102 30 
M 36 108 
L 108 36 
" style="fill: #ffffff; stroke: #ffffff; stroke-width: 1.0; stroke-linecap: butt; stroke-linejoin: miter; stroke-opacity: 0.65"/>
  </pattern>
  <pattern id="ha36304e706" patternUnits="userSpaceOnUse" x="0" y="0" width="72" height="72">
   <rect x="0" y="0" width="73" height="73" fill="#607d8b"/>
   <path d="M -36 36 
L 36 -36 
M -30 42 
L 42 -30 
M -24 48 
L 48 -24 
M -18 54 
L 54 -18 
M -12 60 
L 60 -12 
M -6 66 
L 66 -6 
M 0 72 
L 72 0 
M 6 78 
L 78 6 
M 12 84 
L 84 12 
M 18 90 
L 90 18 
M 24 96 
L 96 24 
M 30 102 
L 102 30 
M 36 108 
L 108 36 
" style="fill: #ffffff; stroke: #ffffff; stroke-width: 1.0; stroke-linecap: butt; stroke-linejoin: miter; stroke-opacity: 0.65"/>
  </pattern>
  <pattern id="h2c6f2c747b" patternUnits="userSpaceOnUse" x="0" y="0" width="72" height="72">
   <rect x="0" y="0" width="73" height="73" fill="#ffb74d"/>
   <path d="M -36 36 
L 36 -36 
M -30 42 
L 42 -30 
M -24 48 
L 48 -24 
M -18 54 
L 54 -18 
M -12 60 
L 60 -12 
M -6 66 
L 66 -6 
M 0 72 
L 72 0 
M 6 78 
L 78 6 
M 12 84 
L 84 12 
M 18 90 
L 90 18 
M 24 96 
L 96 24 
M 30 102 
L 102 30 
M 36 108 
L 108 36 
" style="fill: #ffffff; stroke: #ffffff; stroke-width: 1.0; stroke-linecap: butt; stroke-linejoin: miter; stroke-opacity: 0.65"/>
  </pattern>
  <pattern id="h5ea22552fa" patternUnits="userSpaceOnUse" x="0" y="0" width="72" height="72">
   <rect x="0" y="0" width="73" height="73" fill="#ff9800"/>
   <path d="M -36 36 
L 36 -36 
M -30 42 
L 42 -30 
M -24 48 
L 48 -24 
M -18 54 
L 54 -18 
M -12 60 
L 60 -12 
M -6 66 
L 66 -6 
M 0 72 
L 72 0 
M 6 78 
L 78 6 
M 12 84 
L 84 12 
M 18 90 
L 90 18 
M 24 96 
L 96 24 
M 30 102 
L 102 30 
M 36 108 
L 108 36 
" style="fill: #ffffff; stroke: #ffffff; stroke-width: 1.0; stroke-linecap: butt; stroke-linejoin: miter; stroke-opacity: 0.65"/>
  </pattern>
  <pattern id="h43abf2b487" patternUnits="userSpaceOnUse" x="0" y="0" width="72" height="72">
   <rect x="0" y="0" width="73" height="73" fill="#e65100"/>
   <path d="M -36 36 
L 36 -36 
M -30 42 
L 42 -30 
M -24 48 
L 48 -24 
M -18 54 
L 54 -18 
M -12 60 
L 60 -12 
M -6 66 
L 66 -6 
M 0 72 
L 72 0 
M 6 78 
L 78 6 
M 12 84 
L 84 12 
M 18 90 
L 90 18 
M 24 96 
L 96 24 
M 30 102 
L 102 30 
M 36 108 
L 108 36 
" style="fill: #ffffff; stroke: #ffffff; stroke-width: 1.0; stroke-linecap: butt; stroke-linejoin: miter; stroke-opacity: 0.65"/>
  </pattern>
 </defs>
</svg>
