<?xml version="1.0" encoding="utf-8" standalone="no"?>
<!DOCTYPE svg PUBLIC "-//W3C//DTD SVG 1.1//EN"
  "http://www.w3.org/Graphics/SVG/1.1/DTD/svg11.dtd">
<svg xmlns:xlink="http://www.w3.org/1999/xlink" width="485.3732pt" height="407.097901pt" viewBox="0 0 485.3732 407.097901" xmlns="http://www.w3.org/2000/svg" version="1.1">
 <metadata>
  <rdf:RDF xmlns:dc="http://purl.org/dc/elements/1.1/" xmlns:cc="http://creativecommons.org/ns#" xmlns:rdf="http://www.w3.org/1999/02/22-rdf-syntax-ns#">
   <cc:Work>
    <dc:type rdf:resource="http://purl.org/dc/dcmitype/StillImage"/>
    <dc:date>2026-03-22T16:24:58.934050</dc:date>
    <dc:format>image/svg+xml</dc:format>
    <dc:creator>
     <cc:Agent>
      <dc:title>Matplotlib v3.10.7, https://matplotlib.org/</dc:title>
     </cc:Agent>
    </dc:creator>
   </cc:Work>
  </rdf:RDF>
 </metadata>
 <defs>
  <style type="text/css">*{stroke-linejoin: round; stroke-linecap: butt}</style>
 </defs>
 <g id="figure_1">
  <g id="patch_1">
   <path d="M 0 407.097901 
L 485.3732 407.097901 
L 485.3732 0 
L 0 0 
z
" style="fill: #ffffff"/>
  </g>
  <g id="axes_1">
   <g id="patch_2">
    <path d="M 359.032 214.2992 
C 359.032 191.198123 354.481591 168.321674 345.641192 146.979061 
C 336.800792 125.636449 323.842325 106.242732 307.507397 89.907803 
C 291.172468 73.572875 271.778751 60.614408 250.436139 51.774008 
C 229.093526 42.933609 206.217077 38.3832 183.116 38.3832 
C 160.014923 38.3832 137.138474 42.933609 115.795861 51.774008 
C 94.453249 60.614408 75.059532 73.572875 58.724603 89.907803 
C 42.389675 106.242732 29.431208 125.636449 20.590808 146.979061 
C 11.750409 168.321674 7.2 191.198123 7.2 214.2992 
C 7.2 237.400277 11.750409 260.276726 20.590808 281.619339 
C 29.431208 302.961951 42.389675 322.355668 58.724603 338.690597 
C 75.059532 355.025525 94.453249 367.983992 115.795861 376.824392 
C 137.138474 385.664791 160.014923 390.2152 183.116 390.2152 
C 206.217077 390.2152 229.093526 385.664791 250.436139 376.824392 
C 271.778751 367.983992 291.172468 355.025525 307.507397 338.690597 
C 323.842325 322.355668 336.800792 302.961951 345.641192 281.619339 
C 354.481591 260.276726 359.032 237.400277 359.032 214.2992 
M 183.116 214.2992 
C 183.116 214.2992 183.116 214.2992 183.116 214.2992 
C 183.116 214.2992 183.116 214.2992 183.116 214.2992 
C 183.116 214.2992 183.116 214.2992 183.116 214.2992 
C 183.116 214.2992 183.116 214.2992 183.116 214.2992 
C 183.116 214.2992 183.116 214.2992 183.116 214.2992 
C 183.116 214.2992 183.116 214.2992 183.116 214.2992 
C 183.116 214.2992 183.116 214.2992 183.116 214.2992 
C 183.116 214.2992 183.116 214.2992 183.116 214.2992 
C 183.116 214.2992 183.116 214.2992 183.116 214.2992 
C 183.116 214.2992 183.116 214.2992 183.116 214.2992 
C 183.116 214.2992 183.116 214.2992 183.116 214.2992 
C 183.116 214.2992 183.116 214.2992 183.116 214.2992 
C 183.116 214.2992 183.116 214.2992 183.116 214.2992 
C 183.116 214.2992 183.116 214.2992 183.116 214.2992 
C 183.116 214.2992 183.116 214.2992 183.116 214.2992 
C 183.116 214.2992 183.116 214.2992 183.116 214.2992 
z
" style="fill: #ffffff"/>
   </g>
   <g id="patch_3">
    <path d="M 316.72839 214.2992 
L 227.024183 79.163707 
L 72.364683 133.833659 
L 79.263768 289.752263 
L 223.93337 339.922149 
z
" clip-path="url(#pd090f5e93c)" style="fill: #9e9e9e; opacity: 0.5; stroke: #9e9e9e; stroke-linejoin: miter"/>
   </g>
   <g id="patch_4">
    <path d="M 297.042552 214.2992 
L 221.028938 97.615175 
L 80.632742 139.840754 
L 107.429383 269.288746 
L 217.218488 319.255867 
z
" clip-path="url(#pd090f5e93c)" style="fill: #78909c; opacity: 0.5; stroke: #78909c; stroke-linejoin: miter"/>
   </g>
   <g id="patch_5">
    <path d="M 248.037381 214.2992 
L 209.110929 134.295036 
L 116.442921 165.858373 
L 153.18834 236.042917 
L 201.603929 271.199194 
z
" clip-path="url(#pd090f5e93c)" style="fill: #607d8b; opacity: 0.5; stroke: #607d8b; stroke-linejoin: miter"/>
   </g>
   <g id="patch_6">
    <path d="M 341.021552 214.2992 
L 234.888413 54.960097 
L 60.179463 124.980578 
L 47.574063 312.776181 
L 231.833841 364.237296 
z
" clip-path="url(#pd090f5e93c)" style="fill: #ffb74d; opacity: 0.15; stroke: #ffb74d; stroke-linejoin: miter"/>
   </g>
   <g id="patch_7">
    <path d="M 345.628876 214.2992 
L 234.888413 54.960097 
L 54.215618 120.647591 
L 47.574063 312.776181 
L 233.283468 368.698791 
z
" clip-path="url(#pd090f5e93c)" style="fill: #ff9800; opacity: 0.15; stroke: #ff9800; stroke-linejoin: miter"/>
   </g>
   <g id="patch_8">
    <path d="M 347.723114 214.2992 
L 234.888413 54.960097 
L 51.369237 118.579574 
L 47.574063 312.776181 
L 233.95651 370.770199 
z
" clip-path="url(#pd090f5e93c)" style="fill: #e65100; opacity: 0.15; stroke: #e65100; stroke-linejoin: miter"/>
   </g>
   <g id="matplotlib.axis_1">
    <g id="xtick_1">
     <g id="line2d_1">
      <path d="M 183.116 214.2992 
L 359.032 214.2992 
" clip-path="url(#pd090f5e93c)" style="fill: none; stroke-dasharray: 0.8,1.32; stroke-dashoffset: 0; stroke: #b0b0b0; stroke-opacity: 0.5; stroke-width: 0.8"/>
     </g>
     <g id="text_1">
      <!-- Accuracy -->
      <g transform="translate(352.663406 216.860489) scale(0.095 -0.095)">
       <defs>
        <path id="MicrosoftYaHei-41" d="M 4428 0 
L 3738 0 
L 3244 1325 
L 1228 1325 
L 763 0 
L 72 0 
L 1916 4841 
L 2584 4841 
L 4428 0 
z
M 3050 1872 
L 2319 3884 
Q 2284 3981 2244 4222 
L 2228 4222 
Q 2194 4003 2150 3884 
L 1425 1872 
L 3050 1872 
z
" transform="scale(0.015625)"/>
        <path id="MicrosoftYaHei-63" d="M 2934 156 
Q 2538 -81 1978 -81 
Q 1228 -81 772 400 
Q 316 881 316 1647 
Q 316 2497 808 3017 
Q 1300 3538 2125 3538 
Q 2600 3538 2938 3369 
L 2938 2763 
Q 2572 3031 2125 3031 
Q 1600 3031 1270 2667 
Q 941 2303 941 1697 
Q 941 1100 1252 762 
Q 1563 425 2091 425 
Q 2538 425 2934 719 
L 2934 156 
z
" transform="scale(0.015625)"/>
        <path id="MicrosoftYaHei-75" d="M 3400 0 
L 2784 0 
L 2784 544 
L 2772 544 
Q 2425 -81 1706 -81 
Q 478 -81 478 1388 
L 478 3456 
L 1084 3456 
L 1084 1478 
Q 1084 425 1891 425 
Q 2291 425 2537 720 
Q 2784 1016 2784 1466 
L 2784 3456 
L 3400 3456 
L 3400 0 
z
" transform="scale(0.015625)"/>
        <path id="MicrosoftYaHei-72" d="M 2400 2850 
Q 2247 2959 1978 2959 
Q 1622 2959 1390 2626 
Q 1159 2294 1159 1750 
L 1159 0 
L 547 0 
L 547 3456 
L 1159 3456 
L 1159 2753 
L 1172 2753 
Q 1434 3516 2078 3516 
Q 2288 3516 2400 3469 
L 2400 2850 
z
" transform="scale(0.015625)"/>
        <path id="MicrosoftYaHei-61" d="M 628 3216 
Q 1144 3538 1819 3538 
Q 3069 3538 3069 2225 
L 3069 0 
L 2463 0 
L 2463 534 
L 2447 534 
Q 2088 -81 1388 -81 
Q 884 -81 587 191 
Q 291 463 291 925 
Q 291 1894 1438 2053 
L 2463 2197 
Q 2463 3044 1763 3044 
Q 1141 3044 628 2625 
L 628 3216 
z
M 1653 1625 
Q 1228 1569 1067 1412 
Q 906 1256 906 975 
Q 906 728 1081 572 
Q 1256 416 1544 416 
Q 1944 416 2203 697 
Q 2463 978 2463 1403 
L 2463 1734 
L 1653 1625 
z
" transform="scale(0.015625)"/>
        <path id="MicrosoftYaHei-79" d="M 3359 3456 
L 1791 -522 
Q 1353 -1628 556 -1628 
Q 328 -1628 166 -1578 
L 166 -1041 
Q 344 -1109 509 -1109 
Q 925 -1109 1131 -622 
L 1397 6 
L 41 3456 
L 719 3456 
L 1622 859 
L 1697 575 
L 1713 575 
Q 1731 672 1788 853 
L 2731 3456 
L 3359 3456 
z
" transform="scale(0.015625)"/>
       </defs>
       <use xlink:href="#MicrosoftYaHei-41"/>
       <use xlink:href="#MicrosoftYaHei-63" transform="translate(70.361328 0)"/>
       <use xlink:href="#MicrosoftYaHei-63" transform="translate(120.507812 0)"/>
       <use xlink:href="#MicrosoftYaHei-75" transform="translate(170.654297 0)"/>
       <use xlink:href="#MicrosoftYaHei-72" transform="translate(232.275391 0)"/>
       <use xlink:href="#MicrosoftYaHei-61" transform="translate(270.458984 0)"/>
       <use xlink:href="#MicrosoftYaHei-63" transform="translate(325.732422 0)"/>
       <use xlink:href="#MicrosoftYaHei-79" transform="translate(375.878906 0)"/>
      </g>
     </g>
    </g>
    <g id="xtick_2">
     <g id="line2d_2">
      <path d="M 183.116 214.2992 
L 237.477034 46.993142 
" clip-path="url(#pd090f5e93c)" style="fill: none; stroke-dasharray: 0.8,1.32; stroke-dashoffset: 0; stroke: #b0b0b0; stroke-opacity: 0.5; stroke-width: 0.8"/>
     </g>
     <g id="text_2">
      <!-- Pre.(N) -->
      <g transform="translate(226.274482 36.294562) scale(0.095 -0.095)">
       <defs>
        <path id="MicrosoftYaHei-50" d="M 1250 1809 
L 1250 0 
L 625 0 
L 625 4841 
L 2000 4841 
Q 2784 4841 3217 4462 
Q 3650 4084 3650 3381 
Q 3650 2669 3144 2226 
Q 2638 1784 1878 1809 
L 1250 1809 
z
M 1250 4291 
L 1250 2359 
L 1828 2359 
Q 2400 2359 2697 2617 
Q 2994 2875 2994 3356 
Q 2994 4291 1888 4291 
L 1250 4291 
z
" transform="scale(0.015625)"/>
        <path id="MicrosoftYaHei-65" d="M 3363 1572 
L 944 1572 
Q 959 1019 1246 717 
Q 1534 416 2050 416 
Q 2631 416 3116 788 
L 3116 241 
Q 2659 -81 1906 -81 
Q 1156 -81 736 394 
Q 316 869 316 1713 
Q 316 2506 777 3022 
Q 1238 3538 1922 3538 
Q 2600 3538 2981 3102 
Q 3363 2666 3363 1881 
L 3363 1572 
z
M 2750 2063 
Q 2747 2531 2528 2787 
Q 2309 3044 1913 3044 
Q 1547 3044 1280 2772 
Q 1013 2500 944 2063 
L 2750 2063 
z
" transform="scale(0.015625)"/>
        <path id="MicrosoftYaHei-2e" d="M 372 322 
Q 372 491 487 606 
Q 603 722 775 722 
Q 950 722 1065 605 
Q 1181 488 1181 322 
Q 1181 159 1065 42 
Q 950 -75 772 -75 
Q 600 -75 486 42 
Q 372 159 372 322 
z
" transform="scale(0.015625)"/>
        <path id="MicrosoftYaHei-28" d="M 1531 -1100 
Q 478 100 478 1847 
Q 478 3594 1531 4841 
L 2072 4841 
Q 1016 3544 1016 1853 
Q 1016 166 2066 -1100 
L 1531 -1100 
z
" transform="scale(0.015625)"/>
        <path id="MicrosoftYaHei-4e" d="M 4578 0 
L 3838 0 
L 1403 3766 
Q 1300 3925 1238 4081 
L 1219 4081 
Q 1244 3919 1244 3403 
L 1244 0 
L 625 0 
L 625 4841 
L 1409 4841 
L 3778 1141 
Q 3947 878 3978 806 
L 3991 806 
Q 3959 1013 3959 1513 
L 3959 4841 
L 4578 4841 
L 4578 0 
z
" transform="scale(0.015625)"/>
        <path id="MicrosoftYaHei-29" d="M 78 -1100 
Q 1131 163 1131 1853 
Q 1131 3547 72 4841 
L 616 4841 
Q 1672 3603 1672 1847 
Q 1672 91 616 -1100 
L 78 -1100 
z
" transform="scale(0.015625)"/>
       </defs>
       <use xlink:href="#MicrosoftYaHei-50"/>
       <use xlink:href="#MicrosoftYaHei-72" transform="translate(61.181641 0)"/>
       <use xlink:href="#MicrosoftYaHei-65" transform="translate(97.990234 0)"/>
       <use xlink:href="#MicrosoftYaHei-2e" transform="translate(154.728516 0)"/>
       <use xlink:href="#MicrosoftYaHei-28" transform="translate(178.800781 0)"/>
       <use xlink:href="#MicrosoftYaHei-4e" transform="translate(212.199219 0)"/>
       <use xlink:href="#MicrosoftYaHei-29" transform="translate(293.498047 0)"/>
      </g>
     </g>
    </g>
    <g id="xtick_3">
     <g id="line2d_3">
      <path d="M 183.116 214.2992 
L 40.796966 110.89837 
" clip-path="url(#pd090f5e93c)" style="fill: none; stroke-dasharray: 0.8,1.32; stroke-dashoffset: 0; stroke: #b0b0b0; stroke-opacity: 0.5; stroke-width: 0.8"/>
     </g>
     <g id="text_3">
      <!-- Rec.(N) -->
      <g transform="translate(13.2569 105.285587) scale(0.095 -0.095)">
       <defs>
        <path id="MicrosoftYaHei-52" d="M 4159 0 
L 3422 0 
L 2619 1344 
Q 2378 1747 2178 1892 
Q 1978 2038 1700 2038 
L 1250 2038 
L 1250 0 
L 625 0 
L 625 4841 
L 2100 4841 
Q 2806 4841 3206 4500 
Q 3606 4159 3606 3547 
Q 3606 2541 2531 2241 
L 2531 2225 
Q 2731 2141 2876 1984 
Q 3022 1828 3253 1450 
L 4159 0 
z
M 1250 4294 
L 1250 2584 
L 1988 2584 
Q 2416 2584 2683 2834 
Q 2950 3084 2950 3491 
Q 2950 3869 2706 4081 
Q 2463 4294 1997 4294 
L 1250 4294 
z
" transform="scale(0.015625)"/>
       </defs>
       <use xlink:href="#MicrosoftYaHei-52"/>
       <use xlink:href="#MicrosoftYaHei-65" transform="translate(62.283203 0)"/>
       <use xlink:href="#MicrosoftYaHei-63" transform="translate(119.021484 0)"/>
       <use xlink:href="#MicrosoftYaHei-2e" transform="translate(169.167969 0)"/>
       <use xlink:href="#MicrosoftYaHei-28" transform="translate(193.240234 0)"/>
       <use xlink:href="#MicrosoftYaHei-4e" transform="translate(226.638672 0)"/>
       <use xlink:href="#MicrosoftYaHei-29" transform="translate(307.9375 0)"/>
      </g>
     </g>
    </g>
    <g id="xtick_4">
     <g id="line2d_4">
      <path d="M 183.116 214.2992 
L 40.796966 317.70003 
" clip-path="url(#pd090f5e93c)" style="fill: none; stroke-dasharray: 0.8,1.32; stroke-dashoffset: 0; stroke: #b0b0b0; stroke-opacity: 0.5; stroke-width: 0.8"/>
     </g>
     <g id="text_4">
      <!-- Rec.(F) -->
      <g transform="translate(14.595064 328.545235) scale(0.095 -0.095)">
       <defs>
        <path id="MicrosoftYaHei-46" d="M 3119 4284 
L 1250 4284 
L 1250 2666 
L 2981 2666 
L 2981 2116 
L 1250 2116 
L 1250 0 
L 625 0 
L 625 4841 
L 3119 4841 
L 3119 4284 
z
" transform="scale(0.015625)"/>
       </defs>
       <use xlink:href="#MicrosoftYaHei-52"/>
       <use xlink:href="#MicrosoftYaHei-65" transform="translate(62.283203 0)"/>
       <use xlink:href="#MicrosoftYaHei-63" transform="translate(119.021484 0)"/>
       <use xlink:href="#MicrosoftYaHei-2e" transform="translate(169.167969 0)"/>
       <use xlink:href="#MicrosoftYaHei-28" transform="translate(193.240234 0)"/>
       <use xlink:href="#MicrosoftYaHei-46" transform="translate(226.638672 0)"/>
       <use xlink:href="#MicrosoftYaHei-29" transform="translate(279.763672 0)"/>
      </g>
     </g>
    </g>
    <g id="xtick_5">
     <g id="line2d_5">
      <path d="M 183.116 214.2992 
L 237.477034 381.605258 
" clip-path="url(#pd090f5e93c)" style="fill: none; stroke-dasharray: 0.8,1.32; stroke-dashoffset: 0; stroke: #b0b0b0; stroke-opacity: 0.5; stroke-width: 0.8"/>
     </g>
     <g id="text_5">
      <!-- Macro-F1 -->
      <g transform="translate(220.022295 397.53626) scale(0.095 -0.095)">
       <defs>
        <path id="MicrosoftYaHei-4d" d="M 5003 0 
L 5003 3206 
Q 5003 3603 5050 4159 
L 5034 4159 
Q 4953 3809 4891 3672 
L 3294 0 
L 2947 0 
L 1353 3644 
Q 1297 3769 1209 4159 
L 1191 4159 
Q 1222 3822 1222 3178 
L 1222 0 
L 625 0 
L 625 4841 
L 1472 4841 
L 2900 1522 
Q 3063 1141 3116 928 
L 3138 928 
Q 3300 1375 3366 1534 
L 4819 4841 
L 5625 4841 
L 5625 0 
L 5003 0 
z
" transform="scale(0.015625)"/>
        <path id="MicrosoftYaHei-6f" d="M 316 1691 
Q 316 2547 794 3042 
Q 1272 3538 2091 3538 
Q 2869 3538 3311 3061 
Q 3753 2584 3753 1744 
Q 3753 925 3281 422 
Q 2809 -81 2016 -81 
Q 1241 -81 778 406 
Q 316 894 316 1691 
z
M 941 1709 
Q 941 1113 1242 769 
Q 1544 425 2053 425 
Q 2578 425 2853 761 
Q 3128 1097 3128 1725 
Q 3128 2356 2853 2693 
Q 2578 3031 2053 3031 
Q 1538 3031 1239 2678 
Q 941 2325 941 1709 
z
" transform="scale(0.015625)"/>
        <path id="MicrosoftYaHei-2d" d="M 2328 1681 
L 488 1681 
L 488 2153 
L 2328 2153 
L 2328 1681 
z
" transform="scale(0.015625)"/>
        <path id="MicrosoftYaHei-31" d="M 1781 0 
L 1781 4141 
Q 1638 3997 1295 3819 
Q 953 3641 663 3569 
L 663 4169 
Q 1047 4275 1484 4508 
Q 1922 4741 2156 4947 
L 2388 4947 
L 2388 0 
L 1781 0 
z
" transform="scale(0.015625)"/>
       </defs>
       <use xlink:href="#MicrosoftYaHei-4d"/>
       <use xlink:href="#MicrosoftYaHei-61" transform="translate(97.705078 0)"/>
       <use xlink:href="#MicrosoftYaHei-63" transform="translate(152.978516 0)"/>
       <use xlink:href="#MicrosoftYaHei-72" transform="translate(203.125 0)"/>
       <use xlink:href="#MicrosoftYaHei-6f" transform="translate(239.933594 0)"/>
       <use xlink:href="#MicrosoftYaHei-2d" transform="translate(303.507812 0)"/>
       <use xlink:href="#MicrosoftYaHei-46" transform="translate(346.769531 0)"/>
       <use xlink:href="#MicrosoftYaHei-31" transform="translate(399.894531 0)"/>
      </g>
     </g>
    </g>
   </g>
   <g id="matplotlib.axis_2">
    <g id="ytick_1">
     <g id="line2d_6">
      <path d="M 216.62381 214.2992 
C 216.62381 209.898995 215.757065 205.541576 214.073179 201.476316 
C 212.389294 197.411057 209.921014 193.717016 206.809599 190.605601 
C 203.698184 187.494186 200.004143 185.025906 195.938884 183.342021 
C 191.873624 181.658135 187.516205 180.79139 183.116 180.79139 
C 178.715795 180.79139 174.358376 181.658135 170.293116 183.342021 
C 166.227857 185.025906 162.533816 187.494186 159.422401 190.605601 
C 156.310986 193.717016 153.842706 197.411057 152.158821 201.476316 
C 150.474935 205.541576 149.60819 209.898995 149.60819 214.2992 
C 149.60819 218.699405 150.474935 223.056824 152.158821 227.122084 
C 153.842706 231.187343 156.310986 234.881384 159.422401 237.992799 
C 162.533816 241.104214 166.227857 243.572494 170.293116 245.256379 
C 174.358376 246.940265 178.715795 247.80701 183.116 247.80701 
C 187.516205 247.80701 191.873624 246.940265 195.938884 245.256379 
C 200.004143 243.572494 203.698184 241.104214 206.809599 237.992799 
C 209.921014 234.881384 212.389294 231.187343 214.073179 227.122084 
C 215.757065 223.056824 216.62381 218.699405 216.62381 214.2992 
" clip-path="url(#pd090f5e93c)" style="fill: none; stroke-dasharray: 0.8,1.32; stroke-dashoffset: 0; stroke: #b0b0b0; stroke-opacity: 0.5; stroke-width: 0.8"/>
     </g>
     <g id="text_6">
      <!-- 0.2 -->
      <g style="fill: #999999" transform="translate(214.073179 199.611863) scale(0.075 -0.075)">
       <defs>
        <path id="MicrosoftYaHei-30" d="M 284 2325 
Q 284 3606 709 4264 
Q 1134 4922 1941 4922 
Q 3478 4922 3478 2441 
Q 3478 1216 3045 567 
Q 2613 -81 1831 -81 
Q 1094 -81 689 534 
Q 284 1150 284 2325 
z
M 909 2353 
Q 909 425 1888 425 
Q 2850 425 2850 2384 
Q 2850 4413 1906 4413 
Q 909 4413 909 2353 
z
" transform="scale(0.015625)"/>
        <path id="MicrosoftYaHei-32" d="M 2666 3572 
Q 2666 3963 2419 4186 
Q 2172 4409 1747 4409 
Q 1447 4409 1140 4256 
Q 834 4103 569 3819 
L 569 4413 
Q 806 4659 1107 4790 
Q 1409 4922 1816 4922 
Q 2472 4922 2872 4570 
Q 3272 4219 3272 3619 
Q 3272 3084 3026 2693 
Q 2781 2303 2188 1894 
Q 1581 1475 1376 1294 
Q 1172 1113 1090 947 
Q 1009 781 1009 544 
L 3416 544 
L 3416 0 
L 372 0 
L 372 241 
Q 372 659 486 951 
Q 600 1244 862 1520 
Q 1125 1797 1681 2184 
Q 2250 2584 2458 2886 
Q 2666 3188 2666 3572 
z
" transform="scale(0.015625)"/>
       </defs>
       <use xlink:href="#MicrosoftYaHei-30"/>
       <use xlink:href="#MicrosoftYaHei-2e" transform="translate(58.642578 0)"/>
       <use xlink:href="#MicrosoftYaHei-32" transform="translate(82.714844 0)"/>
      </g>
     </g>
    </g>
    <g id="ytick_2">
     <g id="line2d_7">
      <path d="M 250.131619 214.2992 
C 250.131619 205.49879 248.39813 196.783952 245.030359 188.653433 
C 241.662588 180.522914 236.726029 173.134831 230.503199 166.912001 
C 224.280369 160.689171 216.892286 155.752612 208.761767 152.384841 
C 200.631248 149.01707 191.91641 147.283581 183.116 147.283581 
C 174.31559 147.283581 165.600752 149.01707 157.470233 152.384841 
C 149.339714 155.752612 141.951631 160.689171 135.728801 166.912001 
C 129.505971 173.134831 124.569412 180.522914 121.201641 188.653433 
C 117.83387 196.783952 116.100381 205.49879 116.100381 214.2992 
C 116.100381 223.09961 117.83387 231.814448 121.201641 239.944967 
C 124.569412 248.075486 129.505971 255.463569 135.728801 261.686399 
C 141.951631 267.909229 149.339714 272.845788 157.470233 276.213559 
C 165.600752 279.58133 174.31559 281.314819 183.116 281.314819 
C 191.91641 281.314819 200.631248 279.58133 208.761767 276.213559 
C 216.892286 272.845788 224.280369 267.909229 230.503199 261.686399 
C 236.726029 255.463569 241.662588 248.075486 245.030359 239.944967 
C 248.39813 231.814448 250.131619 223.09961 250.131619 214.2992 
" clip-path="url(#pd090f5e93c)" style="fill: none; stroke-dasharray: 0.8,1.32; stroke-dashoffset: 0; stroke: #b0b0b0; stroke-opacity: 0.5; stroke-width: 0.8"/>
     </g>
     <g id="text_7">
      <!-- 0.4 -->
      <g style="fill: #999999" transform="translate(245.030359 186.78898) scale(0.075 -0.075)">
       <defs>
        <path id="MicrosoftYaHei-34" d="M 2906 4841 
L 2906 1644 
L 3631 1644 
L 3631 1138 
L 2906 1138 
L 2906 0 
L 2313 0 
L 2313 1138 
L 53 1138 
L 53 1616 
Q 656 2294 1265 3178 
Q 1875 4063 2272 4841 
L 2906 4841 
z
M 741 1644 
L 2313 1644 
L 2313 3950 
Q 1988 3366 1616 2817 
Q 1244 2269 741 1644 
z
" transform="scale(0.015625)"/>
       </defs>
       <use xlink:href="#MicrosoftYaHei-30"/>
       <use xlink:href="#MicrosoftYaHei-2e" transform="translate(58.642578 0)"/>
       <use xlink:href="#MicrosoftYaHei-34" transform="translate(82.714844 0)"/>
      </g>
     </g>
    </g>
    <g id="ytick_3">
     <g id="line2d_8">
      <path d="M 283.639429 214.2992 
C 283.639429 201.098584 281.039195 188.026328 275.987538 175.830549 
C 270.935881 163.634771 263.531043 152.552647 254.196798 143.218402 
C 244.862553 133.884157 233.780429 126.479319 221.584651 121.427662 
C 209.388872 116.376005 196.316616 113.775771 183.116 113.775771 
C 169.915384 113.775771 156.843128 116.376005 144.647349 121.427662 
C 132.451571 126.479319 121.369447 133.884157 112.035202 143.218402 
C 102.700957 152.552647 95.296119 163.634771 90.244462 175.830549 
C 85.192805 188.026328 82.592571 201.098584 82.592571 214.2992 
C 82.592571 227.499816 85.192805 240.572072 90.244462 252.767851 
C 95.296119 264.963629 102.700957 276.045753 112.035202 285.379998 
C 121.369447 294.714243 132.451571 302.119081 144.647349 307.170738 
C 156.843128 312.222395 169.915384 314.822629 183.116 314.822629 
C 196.316616 314.822629 209.388872 312.222395 221.584651 307.170738 
C 233.780429 302.119081 244.862553 294.714243 254.196798 285.379998 
C 263.531043 276.045753 270.935881 264.963629 275.987538 252.767851 
C 281.039195 240.572072 283.639429 227.499816 283.639429 214.2992 
" clip-path="url(#pd090f5e93c)" style="fill: none; stroke-dasharray: 0.8,1.32; stroke-dashoffset: 0; stroke: #b0b0b0; stroke-opacity: 0.5; stroke-width: 0.8"/>
     </g>
     <g id="text_8">
      <!-- 0.6 -->
      <g style="fill: #999999" transform="translate(275.987538 173.966096) scale(0.075 -0.075)">
       <defs>
        <path id="MicrosoftYaHei-36" d="M 3181 4219 
Q 2803 4413 2391 4413 
Q 1763 4413 1381 3866 
Q 1000 3319 994 2372 
L 1009 2372 
Q 1353 3038 2106 3038 
Q 2734 3038 3109 2628 
Q 3484 2219 3484 1541 
Q 3484 831 3051 375 
Q 2619 -81 1947 -81 
Q 1209 -81 789 495 
Q 369 1072 369 2131 
Q 369 3413 920 4167 
Q 1472 4922 2372 4922 
Q 2888 4922 3181 4781 
L 3181 4219 
z
M 1031 1584 
Q 1031 1106 1286 765 
Q 1541 425 1963 425 
Q 2363 425 2613 719 
Q 2863 1013 2863 1475 
Q 2863 1975 2627 2253 
Q 2391 2531 1956 2531 
Q 1544 2531 1287 2250 
Q 1031 1969 1031 1584 
z
" transform="scale(0.015625)"/>
       </defs>
       <use xlink:href="#MicrosoftYaHei-30"/>
       <use xlink:href="#MicrosoftYaHei-2e" transform="translate(58.642578 0)"/>
       <use xlink:href="#MicrosoftYaHei-36" transform="translate(82.714844 0)"/>
      </g>
     </g>
    </g>
    <g id="ytick_4">
     <g id="line2d_9">
      <path d="M 317.147238 214.2992 
C 317.147238 196.698379 313.68026 179.268704 306.944718 163.007666 
C 300.209175 146.746628 290.336057 131.970462 277.890397 119.524803 
C 265.444738 107.079143 250.668572 97.206025 234.407534 90.470482 
C 218.146496 83.73494 200.716821 80.267962 183.116 80.267962 
C 165.515179 80.267962 148.085504 83.73494 131.824466 90.470482 
C 115.563428 97.206025 100.787262 107.079143 88.341603 119.524803 
C 75.895943 131.970462 66.022825 146.746628 59.287282 163.007666 
C 52.55174 179.268704 49.084762 196.698379 49.084762 214.2992 
C 49.084762 231.900021 52.55174 249.329696 59.287282 265.590734 
C 66.022825 281.851772 75.895943 296.627938 88.341603 309.073597 
C 100.787262 321.519257 115.563428 331.392375 131.824466 338.127918 
C 148.085504 344.86346 165.515179 348.330438 183.116 348.330438 
C 200.716821 348.330438 218.146496 344.86346 234.407534 338.127918 
C 250.668572 331.392375 265.444738 321.519257 277.890397 309.073597 
C 290.336057 296.627938 300.209175 281.851772 306.944718 265.590734 
C 313.68026 249.329696 317.147238 231.900021 317.147238 214.2992 
" clip-path="url(#pd090f5e93c)" style="fill: none; stroke-dasharray: 0.8,1.32; stroke-dashoffset: 0; stroke: #b0b0b0; stroke-opacity: 0.5; stroke-width: 0.8"/>
     </g>
     <g id="text_9">
      <!-- 0.8 -->
      <g style="fill: #999999" transform="translate(306.944718 161.143213) scale(0.075 -0.075)">
       <defs>
        <path id="MicrosoftYaHei-38" d="M 306 1350 
Q 306 1769 556 2122 
Q 806 2475 1200 2625 
Q 884 2803 700 3081 
Q 516 3359 516 3684 
Q 516 4028 692 4312 
Q 869 4597 1183 4759 
Q 1497 4922 1875 4922 
Q 2256 4922 2572 4761 
Q 2888 4600 3063 4315 
Q 3238 4031 3238 3684 
Q 3238 3366 3058 3086 
Q 2878 2806 2559 2625 
Q 2953 2472 3200 2119 
Q 3447 1766 3447 1350 
Q 3447 938 3250 611 
Q 3053 284 2690 103 
Q 2328 -78 1875 -78 
Q 1425 -78 1065 103 
Q 706 284 506 612 
Q 306 941 306 1350 
z
M 906 1378 
Q 906 947 1172 687 
Q 1438 428 1878 428 
Q 2309 428 2582 692 
Q 2856 956 2856 1378 
Q 2856 1778 2579 2051 
Q 2303 2325 1878 2325 
Q 1456 2325 1181 2058 
Q 906 1791 906 1378 
z
M 1081 3634 
Q 1081 3309 1312 3076 
Q 1544 2844 1878 2844 
Q 2206 2844 2445 3078 
Q 2684 3313 2684 3634 
Q 2684 3963 2454 4191 
Q 2225 4419 1878 4419 
Q 1534 4419 1307 4195 
Q 1081 3972 1081 3634 
z
" transform="scale(0.015625)"/>
       </defs>
       <use xlink:href="#MicrosoftYaHei-30"/>
       <use xlink:href="#MicrosoftYaHei-2e" transform="translate(58.642578 0)"/>
       <use xlink:href="#MicrosoftYaHei-38" transform="translate(82.714844 0)"/>
      </g>
     </g>
    </g>
    <g id="ytick_5">
     <g id="line2d_10">
      <path d="M 350.655048 214.2992 
C 350.655048 192.298174 346.321325 170.51108 337.901897 150.184782 
C 329.482469 129.858484 317.141071 111.388278 301.583997 95.831203 
C 286.026922 80.274129 267.556716 67.932731 247.230418 59.513303 
C 226.90412 51.093875 205.117026 46.760152 183.116 46.760152 
C 161.114974 46.760152 139.32788 51.093875 119.001582 59.513303 
C 98.675284 67.932731 80.205078 80.274129 64.648003 95.831203 
C 49.090929 111.388278 36.749531 129.858484 28.330103 150.184782 
C 19.910675 170.51108 15.576952 192.298174 15.576952 214.2992 
C 15.576952 236.300226 19.910675 258.08732 28.330103 278.413618 
C 36.749531 298.739916 49.090929 317.210122 64.648003 332.767197 
C 80.205078 348.324271 98.675284 360.665669 119.001582 369.085097 
C 139.32788 377.504525 161.114974 381.838248 183.116 381.838248 
C 205.117026 381.838248 226.90412 377.504525 247.230418 369.085097 
C 267.556716 360.665669 286.026922 348.324271 301.583997 332.767197 
C 317.141071 317.210122 329.482469 298.739916 337.901897 278.413618 
C 346.321325 258.08732 350.655048 236.300226 350.655048 214.2992 
" clip-path="url(#pd090f5e93c)" style="fill: none; stroke-dasharray: 0.8,1.32; stroke-dashoffset: 0; stroke: #b0b0b0; stroke-opacity: 0.5; stroke-width: 0.8"/>
     </g>
     <g id="text_10">
      <!-- 1.0 -->
      <g style="fill: #999999" transform="translate(337.901897 148.320329) scale(0.075 -0.075)">
       <use xlink:href="#MicrosoftYaHei-31"/>
       <use xlink:href="#MicrosoftYaHei-2e" transform="translate(58.642578 0)"/>
       <use xlink:href="#MicrosoftYaHei-30" transform="translate(82.714844 0)"/>
      </g>
     </g>
    </g>
   </g>
   <g id="line2d_11">
    <path d="M 316.72839 214.2992 
L 227.024183 79.163707 
L 72.364683 133.833659 
L 79.263768 289.752263 
L 223.93337 339.922149 
L 316.72839 214.2992 
" clip-path="url(#pd090f5e93c)" style="fill: none; stroke-dasharray: 5.55,2.4; stroke-dashoffset: 0; stroke: #9e9e9e; stroke-width: 1.5"/>
   </g>
   <g id="line2d_12">
    <path d="M 297.042552 214.2992 
L 221.028938 97.615175 
L 80.632742 139.840754 
L 107.429383 269.288746 
L 217.218488 319.255867 
L 297.042552 214.2992 
" clip-path="url(#pd090f5e93c)" style="fill: none; stroke-dasharray: 5.55,2.4; stroke-dashoffset: 0; stroke: #78909c; stroke-width: 1.5"/>
   </g>
   <g id="line2d_13">
    <path d="M 248.037381 214.2992 
L 209.110929 134.295036 
L 116.442921 165.858373 
L 153.18834 236.042917 
L 201.603929 271.199194 
L 248.037381 214.2992 
" clip-path="url(#pd090f5e93c)" style="fill: none; stroke-dasharray: 5.55,2.4; stroke-dashoffset: 0; stroke: #607d8b; stroke-width: 1.5"/>
   </g>
   <g id="line2d_14">
    <path d="M 341.021552 214.2992 
L 234.888413 54.960097 
L 60.179463 124.980578 
L 47.574063 312.776181 
L 231.833841 364.237296 
L 341.021552 214.2992 
" clip-path="url(#pd090f5e93c)" style="fill: none; stroke: #ffb74d; stroke-width: 2.5; stroke-linecap: square"/>
   </g>
   <g id="line2d_15">
    <path d="M 345.628876 214.2992 
L 234.888413 54.960097 
L 54.215618 120.647591 
L 47.574063 312.776181 
L 233.283468 368.698791 
L 345.628876 214.2992 
" clip-path="url(#pd090f5e93c)" style="fill: none; stroke: #ff9800; stroke-width: 2.5; stroke-linecap: square"/>
   </g>
   <g id="line2d_16">
    <path d="M 347.723114 214.2992 
L 234.888413 54.960097 
L 51.369237 118.579574 
L 47.574063 312.776181 
L 233.95651 370.770199 
L 347.723114 214.2992 
" clip-path="url(#pd090f5e93c)" style="fill: none; stroke: #e65100; stroke-width: 2.5; stroke-linecap: square"/>
   </g>
   <g id="patch_9">
    <path d="M 359.032 214.2992 
C 359.032 191.198123 354.481591 168.321674 345.641192 146.979061 
C 336.800792 125.636449 323.842325 106.242732 307.507397 89.907803 
C 291.172468 73.572875 271.778751 60.614408 250.436139 51.774008 
C 229.093526 42.933609 206.217077 38.3832 183.116 38.3832 
C 160.014923 38.3832 137.138474 42.933609 115.795861 51.774008 
C 94.453249 60.614408 75.059532 73.572875 58.724603 89.907803 
C 42.389675 106.242732 29.431208 125.636449 20.590808 146.979061 
C 11.750409 168.321674 7.2 191.198123 7.2 214.2992 
C 7.2 237.400277 11.750409 260.276726 20.590808 281.619339 
C 29.431208 302.961951 42.389675 322.355668 58.724603 338.690597 
C 75.059532 355.025525 94.453249 367.983992 115.795861 376.824392 
C 137.138474 385.664791 160.014923 390.2152 183.116 390.2152 
C 206.217077 390.2152 229.093526 385.664791 250.436139 376.824392 
C 271.778751 367.983992 291.172468 355.025525 307.507397 338.690597 
C 323.842325 322.355668 336.800792 302.961951 345.641192 281.619339 
C 354.481591 260.276726 359.032 237.400277 359.032 214.2992 
" style="fill: none; stroke: #000000; stroke-width: 0.8; stroke-linejoin: miter; stroke-linecap: square"/>
   </g>
   <g id="text_11">
    <!-- Multi-metric Radar Comparison -->
    <g transform="translate(87.465687 18.3832) scale(0.12 -0.12)">
     <defs>
      <path id="MicrosoftYaHei-Bold-4d" d="M 4991 0 
L 4991 2938 
Q 4991 3344 5031 3959 
L 5006 3959 
Q 4913 3494 4856 3338 
L 3663 0 
L 2841 0 
L 1631 3306 
Q 1588 3425 1478 3959 
L 1450 3959 
Q 1491 3350 1491 2738 
L 1491 0 
L 559 0 
L 559 4841 
L 2059 4841 
L 3103 1916 
Q 3234 1553 3281 1234 
L 3303 1234 
Q 3400 1631 3503 1922 
L 4550 4841 
L 6009 4841 
L 6009 0 
L 4991 0 
z
" transform="scale(0.015625)"/>
      <path id="MicrosoftYaHei-Bold-75" d="M 3691 0 
L 2688 0 
L 2688 528 
L 2672 528 
Q 2284 -84 1613 -84 
Q 406 -84 406 1372 
L 406 3456 
L 1416 3456 
L 1416 1466 
Q 1416 691 2022 691 
Q 2325 691 2506 903 
Q 2688 1116 2688 1478 
L 2688 3456 
L 3691 3456 
L 3691 0 
z
" transform="scale(0.015625)"/>
      <path id="MicrosoftYaHei-Bold-6c" d="M 444 0 
L 444 5116 
L 1450 5116 
L 1450 0 
L 444 0 
z
" transform="scale(0.015625)"/>
      <path id="MicrosoftYaHei-Bold-74" d="M 2494 41 
Q 2266 -84 1803 -84 
Q 703 -84 703 1072 
L 703 2703 
L 134 2703 
L 134 3456 
L 703 3456 
L 703 4216 
L 1706 4503 
L 1706 3456 
L 2494 3456 
L 2494 2703 
L 1706 2703 
L 1706 1247 
Q 1706 694 2144 694 
Q 2313 694 2494 794 
L 2494 41 
z
" transform="scale(0.015625)"/>
      <path id="MicrosoftYaHei-Bold-69" d="M 369 4572 
Q 369 4803 533 4948 
Q 697 5094 953 5094 
Q 1216 5094 1378 4945 
Q 1541 4797 1541 4572 
Q 1541 4344 1375 4192 
Q 1209 4041 953 4041 
Q 700 4041 534 4194 
Q 369 4347 369 4572 
z
M 444 0 
L 444 3456 
L 1450 3456 
L 1450 0 
L 444 0 
z
" transform="scale(0.015625)"/>
      <path id="MicrosoftYaHei-Bold-2d" d="M 2328 1497 
L 481 1497 
L 481 2209 
L 2328 2209 
L 2328 1497 
z
" transform="scale(0.015625)"/>
      <path id="MicrosoftYaHei-Bold-6d" d="M 5881 0 
L 4875 0 
L 4875 1972 
Q 4875 2766 4297 2766 
Q 4028 2766 3850 2525 
Q 3672 2284 3672 1938 
L 3672 0 
L 2666 0 
L 2666 1997 
Q 2666 2766 2094 2766 
Q 1809 2766 1639 2536 
Q 1469 2306 1469 1928 
L 1469 0 
L 459 0 
L 459 3456 
L 1469 3456 
L 1469 2916 
L 1481 2916 
Q 1663 3213 1963 3377 
Q 2263 3541 2594 3541 
Q 3322 3541 3591 2888 
Q 3991 3541 4753 3541 
Q 5881 3541 5881 2147 
L 5881 0 
z
" transform="scale(0.015625)"/>
      <path id="MicrosoftYaHei-Bold-65" d="M 3528 1444 
L 1253 1444 
Q 1306 641 2222 641 
Q 2794 641 3231 922 
L 3231 181 
Q 2759 -84 1994 -84 
Q 1169 -84 711 381 
Q 253 847 253 1678 
Q 253 2506 740 3023 
Q 1228 3541 1966 3541 
Q 2700 3541 3114 3095 
Q 3528 2650 3528 1872 
L 3528 1444 
z
M 2588 2075 
Q 2588 2850 1959 2850 
Q 1700 2850 1500 2637 
Q 1300 2425 1250 2075 
L 2588 2075 
z
" transform="scale(0.015625)"/>
      <path id="MicrosoftYaHei-Bold-72" d="M 2663 2541 
Q 2478 2647 2216 2647 
Q 1872 2647 1670 2384 
Q 1469 2122 1469 1663 
L 1469 0 
L 459 0 
L 459 3456 
L 1469 3456 
L 1469 2806 
L 1481 2806 
Q 1731 3516 2391 3516 
Q 2569 3516 2663 3475 
L 2663 2541 
z
" transform="scale(0.015625)"/>
      <path id="MicrosoftYaHei-Bold-63" d="M 3050 128 
Q 2688 -84 2019 -84 
Q 1228 -84 740 397 
Q 253 878 253 1644 
Q 253 2525 778 3033 
Q 1303 3541 2178 3541 
Q 2769 3541 3053 3378 
L 3053 2513 
Q 2706 2766 2297 2766 
Q 1834 2766 1554 2484 
Q 1275 2203 1275 1713 
Q 1275 1238 1540 964 
Q 1806 691 2263 691 
Q 2666 691 3050 947 
L 3050 128 
z
" transform="scale(0.015625)"/>
      <path id="MicrosoftYaHei-Bold-20" transform="scale(0.015625)"/>
      <path id="MicrosoftYaHei-Bold-52" d="M 4553 0 
L 3366 0 
L 2606 1259 
Q 2372 1650 2222 1762 
Q 2072 1875 1903 1875 
L 1591 1875 
L 1591 0 
L 559 0 
L 559 4841 
L 2256 4841 
Q 3984 4841 3984 3528 
Q 3984 3034 3695 2681 
Q 3406 2328 2900 2184 
L 2900 2172 
Q 3234 2059 3641 1434 
L 4553 0 
z
M 1591 4056 
L 1591 2663 
L 2097 2663 
Q 2459 2663 2679 2873 
Q 2900 3084 2900 3400 
Q 2900 4056 2116 4056 
L 1591 4056 
z
" transform="scale(0.015625)"/>
      <path id="MicrosoftYaHei-Bold-61" d="M 544 3247 
Q 778 3378 1170 3459 
Q 1563 3541 1841 3541 
Q 3291 3541 3291 2088 
L 3291 0 
L 2331 0 
L 2331 503 
L 2319 503 
Q 1966 -84 1284 -84 
Q 794 -84 498 195 
Q 203 475 203 956 
Q 203 1950 1388 2113 
L 2338 2241 
Q 2338 2844 1709 2844 
Q 1091 2844 544 2469 
L 544 3247 
z
M 1684 1566 
Q 1138 1494 1138 1072 
Q 1138 878 1270 759 
Q 1403 641 1628 641 
Q 1938 641 2138 859 
Q 2338 1078 2338 1403 
L 2338 1650 
L 1684 1566 
z
" transform="scale(0.015625)"/>
      <path id="MicrosoftYaHei-Bold-64" d="M 3794 0 
L 2788 0 
L 2788 488 
L 2772 488 
Q 2406 -84 1691 -84 
Q 1031 -84 642 381 
Q 253 847 253 1650 
Q 253 2500 689 3020 
Q 1125 3541 1828 3541 
Q 2503 3541 2772 3053 
L 2788 3053 
L 2788 5116 
L 3794 5116 
L 3794 0 
z
M 2803 1956 
Q 2803 2306 2592 2536 
Q 2381 2766 2066 2766 
Q 1697 2766 1486 2473 
Q 1275 2181 1275 1681 
Q 1275 1206 1478 948 
Q 1681 691 2038 691 
Q 2372 691 2587 962 
Q 2803 1234 2803 1669 
L 2803 1956 
z
" transform="scale(0.015625)"/>
      <path id="MicrosoftYaHei-Bold-43" d="M 4013 175 
Q 3484 -84 2634 -84 
Q 1541 -84 898 570 
Q 256 1225 256 2316 
Q 256 3463 973 4192 
Q 1691 4922 2825 4922 
Q 3534 4922 4013 4738 
L 4013 3741 
Q 3522 4028 2900 4028 
Q 2191 4028 1766 3575 
Q 1341 3122 1341 2391 
Q 1341 1678 1744 1243 
Q 2147 809 2834 809 
Q 3481 809 4013 1122 
L 4013 175 
z
" transform="scale(0.015625)"/>
      <path id="MicrosoftYaHei-Bold-6f" d="M 253 1713 
Q 253 2566 764 3053 
Q 1275 3541 2138 3541 
Q 2972 3541 3462 3061 
Q 3953 2581 3953 1772 
Q 3953 922 3450 419 
Q 2947 -84 2088 -84 
Q 1244 -84 748 398 
Q 253 881 253 1713 
z
M 1275 1725 
Q 1275 691 2119 691 
Q 2928 691 2928 1753 
Q 2928 2766 2113 2766 
Q 1716 2766 1495 2494 
Q 1275 2222 1275 1725 
z
" transform="scale(0.015625)"/>
      <path id="MicrosoftYaHei-Bold-70" d="M 1469 416 
L 1469 -1591 
L 459 -1591 
L 459 3456 
L 1469 3456 
L 1469 2928 
L 1481 2928 
Q 1878 3541 2603 3541 
Q 3263 3541 3634 3080 
Q 4006 2619 4006 1825 
Q 4006 959 3575 437 
Q 3144 -84 2444 -84 
Q 1809 -84 1481 416 
L 1469 416 
z
M 1453 1528 
Q 1453 1159 1653 925 
Q 1853 691 2172 691 
Q 2550 691 2761 984 
Q 2972 1278 2972 1816 
Q 2972 2766 2231 2766 
Q 1888 2766 1670 2503 
Q 1453 2241 1453 1828 
L 1453 1528 
z
" transform="scale(0.015625)"/>
      <path id="MicrosoftYaHei-Bold-73" d="M 369 928 
Q 888 613 1384 613 
Q 2009 613 2009 947 
Q 2009 1184 1494 1344 
Q 850 1544 609 1789 
Q 369 2034 369 2453 
Q 369 2963 781 3252 
Q 1194 3541 1863 3541 
Q 2338 3541 2778 3400 
L 2778 2606 
Q 2375 2844 1891 2844 
Q 1650 2844 1503 2758 
Q 1356 2672 1356 2531 
Q 1356 2294 1794 2147 
Q 2263 1991 2498 1862 
Q 2734 1734 2857 1525 
Q 2981 1316 2981 1041 
Q 2981 506 2553 211 
Q 2125 -84 1409 -84 
Q 847 -84 369 94 
L 369 928 
z
" transform="scale(0.015625)"/>
      <path id="MicrosoftYaHei-Bold-6e" d="M 3744 0 
L 2741 0 
L 2741 1928 
Q 2741 2766 2138 2766 
Q 1850 2766 1659 2542 
Q 1469 2319 1469 1972 
L 1469 0 
L 459 0 
L 459 3456 
L 1469 3456 
L 1469 2906 
L 1481 2906 
Q 1859 3541 2594 3541 
Q 3744 3541 3744 2116 
L 3744 0 
z
" transform="scale(0.015625)"/>
     </defs>
     <use xlink:href="#MicrosoftYaHei-Bold-4d"/>
     <use xlink:href="#MicrosoftYaHei-Bold-75" transform="translate(102.832031 0)"/>
     <use xlink:href="#MicrosoftYaHei-Bold-6c" transform="translate(167.626953 0)"/>
     <use xlink:href="#MicrosoftYaHei-Bold-74" transform="translate(197.216797 0)"/>
     <use xlink:href="#MicrosoftYaHei-Bold-69" transform="translate(238.623047 0)"/>
     <use xlink:href="#MicrosoftYaHei-Bold-2d" transform="translate(268.212891 0)"/>
     <use xlink:href="#MicrosoftYaHei-Bold-6d" transform="translate(311.865234 0)"/>
     <use xlink:href="#MicrosoftYaHei-Bold-65" transform="translate(410.058594 0)"/>
     <use xlink:href="#MicrosoftYaHei-Bold-74" transform="translate(468.261719 0)"/>
     <use xlink:href="#MicrosoftYaHei-Bold-72" transform="translate(509.667969 0)"/>
     <use xlink:href="#MicrosoftYaHei-Bold-69" transform="translate(552.425781 0)"/>
     <use xlink:href="#MicrosoftYaHei-Bold-63" transform="translate(582.015625 0)"/>
     <use xlink:href="#MicrosoftYaHei-Bold-20" transform="translate(633.675781 0)"/>
     <use xlink:href="#MicrosoftYaHei-Bold-52" transform="translate(663.460938 0)"/>
     <use xlink:href="#MicrosoftYaHei-Bold-61" transform="translate(733.285156 0)"/>
     <use xlink:href="#MicrosoftYaHei-Bold-64" transform="translate(791.048828 0)"/>
     <use xlink:href="#MicrosoftYaHei-Bold-61" transform="translate(857.503906 0)"/>
     <use xlink:href="#MicrosoftYaHei-Bold-72" transform="translate(915.267578 0)"/>
     <use xlink:href="#MicrosoftYaHei-Bold-20" transform="translate(957.650391 0)"/>
     <use xlink:href="#MicrosoftYaHei-Bold-43" transform="translate(987.435547 0)"/>
     <use xlink:href="#MicrosoftYaHei-Bold-6f" transform="translate(1054.769531 0)"/>
     <use xlink:href="#MicrosoftYaHei-Bold-6d" transform="translate(1120.492188 0)"/>
     <use xlink:href="#MicrosoftYaHei-Bold-70" transform="translate(1218.685547 0)"/>
     <use xlink:href="#MicrosoftYaHei-Bold-61" transform="translate(1284.162109 0)"/>
     <use xlink:href="#MicrosoftYaHei-Bold-72" transform="translate(1341.925781 0)"/>
     <use xlink:href="#MicrosoftYaHei-Bold-69" transform="translate(1384.683594 0)"/>
     <use xlink:href="#MicrosoftYaHei-Bold-73" transform="translate(1414.273438 0)"/>
     <use xlink:href="#MicrosoftYaHei-Bold-6f" transform="translate(1463.638672 0)"/>
     <use xlink:href="#MicrosoftYaHei-Bold-6e" transform="translate(1529.361328 0)"/>
    </g>
   </g>
   <g id="legend_1">
    <g id="patch_10">
     <path d="M 379.45445 83.9025 
L 476.5732 83.9025 
Q 478.1732 83.9025 478.1732 82.3025 
L 478.1732 8.8 
Q 478.1732 7.2 476.5732 7.2 
L 379.45445 7.2 
Q 377.85445 7.2 377.85445 8.8 
L 377.85445 82.3025 
Q 377.85445 83.9025 379.45445 83.9025 
z
" style="fill: #ffffff; opacity: 0.8; stroke: #cccccc; stroke-linejoin: miter"/>
    </g>
    <g id="line2d_17">
     <path d="M 381.05445 13.995 
L 389.05445 13.995 
L 397.05445 13.995 
" style="fill: none; stroke-dasharray: 5.55,2.4; stroke-dashoffset: 0; stroke: #9e9e9e; stroke-width: 1.5"/>
    </g>
    <g id="text_12">
     <!-- RawVec ResNet18 -->
     <g transform="translate(403.45445 16.795) scale(0.08 -0.08)">
      <defs>
       <path id="MicrosoftYaHei-77" d="M 4975 3456 
L 3944 0 
L 3306 0 
L 2619 2425 
Q 2575 2581 2563 2756 
L 2550 2756 
Q 2541 2625 2478 2431 
L 1734 0 
L 1116 0 
L 78 3456 
L 716 3456 
L 1406 894 
Q 1438 778 1453 578 
L 1478 578 
Q 1491 750 1538 903 
L 2281 3456 
L 2847 3456 
L 3572 891 
Q 3603 778 3622 572 
L 3650 572 
Q 3656 709 3706 891 
L 4381 3456 
L 4975 3456 
z
" transform="scale(0.015625)"/>
       <path id="MicrosoftYaHei-56" d="M 4272 4841 
L 2494 0 
L 1800 0 
L 56 4841 
L 750 4841 
L 2053 1056 
Q 2119 869 2150 622 
L 2166 622 
Q 2191 838 2275 1063 
L 3603 4841 
L 4272 4841 
z
" transform="scale(0.015625)"/>
       <path id="MicrosoftYaHei-20" transform="scale(0.015625)"/>
       <path id="MicrosoftYaHei-73" d="M 353 747 
Q 816 413 1350 413 
Q 2066 413 2066 881 
Q 2066 1081 1909 1211 
Q 1753 1341 1275 1519 
Q 700 1750 528 1976 
Q 356 2203 356 2525 
Q 356 2984 745 3261 
Q 1134 3538 1703 3538 
Q 2144 3538 2522 3384 
L 2522 2794 
Q 2134 3044 1644 3044 
Q 1350 3044 1165 2916 
Q 981 2788 981 2578 
Q 981 2372 1114 2256 
Q 1247 2141 1703 1959 
Q 2281 1744 2484 1512 
Q 2688 1281 2688 941 
Q 2688 466 2298 192 
Q 1909 -81 1291 -81 
Q 753 -81 353 122 
L 353 747 
z
" transform="scale(0.015625)"/>
       <path id="MicrosoftYaHei-74" d="M 2206 34 
Q 2006 -75 1666 -75 
Q 738 -75 738 953 
L 738 2950 
L 144 2950 
L 144 3456 
L 738 3456 
L 738 4288 
L 1347 4481 
L 1347 3456 
L 2206 3456 
L 2206 2950 
L 1347 2950 
L 1347 1063 
Q 1347 722 1462 575 
Q 1578 428 1847 428 
Q 2053 428 2206 544 
L 2206 34 
z
" transform="scale(0.015625)"/>
      </defs>
      <use xlink:href="#MicrosoftYaHei-52"/>
      <use xlink:href="#MicrosoftYaHei-61" transform="translate(65.283203 0)"/>
      <use xlink:href="#MicrosoftYaHei-77" transform="translate(120.556641 0)"/>
      <use xlink:href="#MicrosoftYaHei-56" transform="translate(199.511719 0)"/>
      <use xlink:href="#MicrosoftYaHei-65" transform="translate(260.388672 0)"/>
      <use xlink:href="#MicrosoftYaHei-63" transform="translate(317.126953 0)"/>
      <use xlink:href="#MicrosoftYaHei-20" transform="translate(367.273438 0)"/>
      <use xlink:href="#MicrosoftYaHei-52" transform="translate(396.863281 0)"/>
      <use xlink:href="#MicrosoftYaHei-65" transform="translate(459.146484 0)"/>
      <use xlink:href="#MicrosoftYaHei-73" transform="translate(515.884766 0)"/>
      <use xlink:href="#MicrosoftYaHei-4e" transform="translate(562.173828 0)"/>
      <use xlink:href="#MicrosoftYaHei-65" transform="translate(643.472656 0)"/>
      <use xlink:href="#MicrosoftYaHei-74" transform="translate(700.210938 0)"/>
      <use xlink:href="#MicrosoftYaHei-31" transform="translate(737.466797 0)"/>
      <use xlink:href="#MicrosoftYaHei-38" transform="translate(796.109375 0)"/>
     </g>
    </g>
    <g id="line2d_18">
     <path d="M 381.05445 26.37875 
L 389.05445 26.37875 
L 397.05445 26.37875 
" style="fill: none; stroke-dasharray: 5.55,2.4; stroke-dashoffset: 0; stroke: #78909c; stroke-width: 1.5"/>
    </g>
    <g id="text_13">
     <!-- 1D-CNN (Wen '18) -->
     <g transform="translate(403.45445 29.17875) scale(0.08 -0.08)">
      <defs>
       <path id="MicrosoftYaHei-44" d="M 625 0 
L 625 4841 
L 2006 4841 
Q 3106 4841 3836 4200 
Q 4566 3559 4566 2481 
Q 4566 1356 3836 678 
Q 3106 0 1956 0 
L 625 0 
z
M 1250 4284 
L 1250 553 
L 1953 553 
Q 2875 553 3392 1056 
Q 3909 1559 3909 2466 
Q 3909 3372 3378 3828 
Q 2847 4284 1981 4284 
L 1250 4284 
z
" transform="scale(0.015625)"/>
       <path id="MicrosoftYaHei-43" d="M 3938 200 
Q 3403 -81 2597 -81 
Q 1556 -81 934 580 
Q 313 1241 313 2328 
Q 313 3497 1013 4209 
Q 1713 4922 2791 4922 
Q 3484 4922 3938 4725 
L 3938 4072 
Q 3419 4359 2797 4359 
Q 1988 4359 1478 3820 
Q 969 3281 969 2366 
Q 969 1497 1444 986 
Q 1919 475 2688 475 
Q 3406 475 3938 800 
L 3938 200 
z
" transform="scale(0.015625)"/>
       <path id="MicrosoftYaHei-57" d="M 6431 4841 
L 5075 0 
L 4347 0 
L 3372 3488 
Q 3306 3725 3294 3988 
L 3281 3988 
Q 3263 3728 3194 3494 
L 2209 0 
L 1488 0 
L 84 4841 
L 775 4841 
L 1763 1184 
Q 1828 938 1841 688 
L 1859 688 
Q 1875 875 1963 1184 
L 3009 4841 
L 3625 4841 
L 4625 1156 
Q 4675 975 4706 694 
L 4719 694 
Q 4734 897 4809 1169 
L 5759 4841 
L 6431 4841 
z
" transform="scale(0.015625)"/>
       <path id="MicrosoftYaHei-6e" d="M 3469 0 
L 2859 0 
L 2859 1966 
Q 2859 3031 2081 3031 
Q 1678 3031 1418 2731 
Q 1159 2431 1159 1972 
L 1159 0 
L 547 0 
L 547 3456 
L 1159 3456 
L 1159 2884 
L 1172 2884 
Q 1563 3538 2306 3538 
Q 2875 3538 3172 3173 
Q 3469 2809 3469 2113 
L 3469 0 
z
" transform="scale(0.015625)"/>
       <path id="MicrosoftYaHei-27" d="M 1131 4847 
L 1028 3341 
L 609 3341 
L 509 4847 
L 1131 4847 
z
" transform="scale(0.015625)"/>
      </defs>
      <use xlink:href="#MicrosoftYaHei-31"/>
      <use xlink:href="#MicrosoftYaHei-44" transform="translate(58.642578 0)"/>
      <use xlink:href="#MicrosoftYaHei-2d" transform="translate(134.814453 0)"/>
      <use xlink:href="#MicrosoftYaHei-43" transform="translate(178.076172 0)"/>
      <use xlink:href="#MicrosoftYaHei-4e" transform="translate(244.970703 0)"/>
      <use xlink:href="#MicrosoftYaHei-4e" transform="translate(326.269531 0)"/>
      <use xlink:href="#MicrosoftYaHei-20" transform="translate(407.568359 0)"/>
      <use xlink:href="#MicrosoftYaHei-28" transform="translate(437.158203 0)"/>
      <use xlink:href="#MicrosoftYaHei-57" transform="translate(470.556641 0)"/>
      <use xlink:href="#MicrosoftYaHei-65" transform="translate(569.689453 0)"/>
      <use xlink:href="#MicrosoftYaHei-6e" transform="translate(626.427734 0)"/>
      <use xlink:href="#MicrosoftYaHei-20" transform="translate(688.048828 0)"/>
      <use xlink:href="#MicrosoftYaHei-27" transform="translate(717.638672 0)"/>
      <use xlink:href="#MicrosoftYaHei-31" transform="translate(743.273438 0)"/>
      <use xlink:href="#MicrosoftYaHei-38" transform="translate(801.916016 0)"/>
      <use xlink:href="#MicrosoftYaHei-29" transform="translate(860.558594 0)"/>
     </g>
    </g>
    <g id="line2d_19">
     <path d="M 381.05445 38.7625 
L 389.05445 38.7625 
L 397.05445 38.7625 
" style="fill: none; stroke-dasharray: 5.55,2.4; stroke-dashoffset: 0; stroke: #607d8b; stroke-width: 1.5"/>
    </g>
    <g id="text_14">
     <!-- FlatVAE (GAP) -->
     <g transform="translate(403.45445 41.5625) scale(0.08 -0.08)">
      <defs>
       <path id="MicrosoftYaHei-6c" d="M 544 0 
L 544 5116 
L 1156 5116 
L 1156 0 
L 544 0 
z
" transform="scale(0.015625)"/>
       <path id="MicrosoftYaHei-45" d="M 3228 0 
L 625 0 
L 625 4841 
L 3119 4841 
L 3119 4284 
L 1250 4284 
L 1250 2734 
L 2981 2734 
L 2981 2181 
L 1250 2181 
L 1250 553 
L 3228 553 
L 3228 0 
z
" transform="scale(0.015625)"/>
       <path id="MicrosoftYaHei-47" d="M 4284 331 
Q 3559 -81 2647 -81 
Q 1597 -81 955 583 
Q 313 1247 313 2356 
Q 313 3478 1022 4200 
Q 1731 4922 2841 4922 
Q 3625 4922 4169 4672 
L 4169 3997 
Q 3588 4363 2784 4363 
Q 1994 4363 1481 3822 
Q 969 3281 969 2397 
Q 969 1488 1441 981 
Q 1913 475 2716 475 
Q 3269 475 3656 688 
L 3656 1997 
L 2606 1997 
L 2606 2550 
L 4284 2550 
L 4284 331 
z
" transform="scale(0.015625)"/>
      </defs>
      <use xlink:href="#MicrosoftYaHei-46"/>
      <use xlink:href="#MicrosoftYaHei-6c" transform="translate(53.125 0)"/>
      <use xlink:href="#MicrosoftYaHei-61" transform="translate(79.736328 0)"/>
      <use xlink:href="#MicrosoftYaHei-74" transform="translate(135.009766 0)"/>
      <use xlink:href="#MicrosoftYaHei-56" transform="translate(172.265625 0)"/>
      <use xlink:href="#MicrosoftYaHei-41" transform="translate(233.767578 0)"/>
      <use xlink:href="#MicrosoftYaHei-45" transform="translate(304.128906 0)"/>
      <use xlink:href="#MicrosoftYaHei-20" transform="translate(359.109375 0)"/>
      <use xlink:href="#MicrosoftYaHei-28" transform="translate(388.699219 0)"/>
      <use xlink:href="#MicrosoftYaHei-47" transform="translate(422.097656 0)"/>
      <use xlink:href="#MicrosoftYaHei-41" transform="translate(496.462891 0)"/>
      <use xlink:href="#MicrosoftYaHei-50" transform="translate(566.824219 0)"/>
      <use xlink:href="#MicrosoftYaHei-29" transform="translate(628.005859 0)"/>
     </g>
    </g>
    <g id="line2d_20">
     <path d="M 381.05445 51.14625 
L 389.05445 51.14625 
L 397.05445 51.14625 
" style="fill: none; stroke: #ffb74d; stroke-width: 2.5; stroke-linecap: square"/>
    </g>
    <g id="text_15">
     <!-- SpecRas (best-val) -->
     <g transform="translate(403.45445 53.94625) scale(0.08 -0.08)">
      <defs>
       <path id="MicrosoftYaHei-53" d="M 400 909 
Q 622 716 994 591 
Q 1366 466 1700 466 
Q 2719 466 2719 1191 
Q 2719 1394 2609 1556 
Q 2500 1719 2309 1844 
Q 2119 1969 1594 2228 
Q 866 2591 634 2902 
Q 403 3213 403 3613 
Q 403 4216 887 4569 
Q 1372 4922 2109 4922 
Q 2831 4922 3169 4747 
L 3169 4066 
Q 2731 4369 2063 4369 
Q 1619 4369 1339 4183 
Q 1059 3997 1059 3666 
Q 1059 3372 1253 3187 
Q 1447 3003 2094 2684 
Q 2806 2344 3090 2003 
Q 3375 1663 3375 1238 
Q 3375 600 2912 259 
Q 2450 -81 1628 -81 
Q 1341 -81 958 -1 
Q 575 78 400 197 
L 400 909 
z
" transform="scale(0.015625)"/>
       <path id="MicrosoftYaHei-70" d="M 1159 488 
L 1159 -1591 
L 547 -1591 
L 547 3456 
L 1159 3456 
L 1159 2859 
L 1172 2859 
Q 1578 3538 2359 3538 
Q 3022 3538 3398 3073 
Q 3775 2609 3775 1828 
Q 3775 966 3348 442 
Q 2922 -81 2200 -81 
Q 1534 -81 1172 488 
L 1159 488 
z
M 1156 1425 
Q 1156 1003 1428 714 
Q 1700 425 2109 425 
Q 2597 425 2872 800 
Q 3147 1175 3147 1838 
Q 3147 2397 2890 2714 
Q 2634 3031 2191 3031 
Q 1738 3031 1447 2709 
Q 1156 2388 1156 1884 
L 1156 1425 
z
" transform="scale(0.015625)"/>
       <path id="MicrosoftYaHei-62" d="M 1159 488 
L 1159 0 
L 547 0 
L 547 5116 
L 1159 5116 
L 1159 2859 
L 1172 2859 
Q 1578 3538 2359 3538 
Q 3009 3538 3392 3080 
Q 3775 2622 3775 1828 
Q 3775 953 3345 436 
Q 2916 -81 2200 -81 
Q 1525 -81 1172 488 
L 1159 488 
z
M 1156 1422 
Q 1156 1003 1428 714 
Q 1700 425 2109 425 
Q 2597 425 2872 800 
Q 3147 1175 3147 1838 
Q 3147 2384 2890 2707 
Q 2634 3031 2191 3031 
Q 1741 3031 1448 2709 
Q 1156 2388 1156 1891 
L 1156 1422 
z
" transform="scale(0.015625)"/>
       <path id="MicrosoftYaHei-76" d="M 3331 3456 
L 1963 0 
L 1344 0 
L 44 3456 
L 713 3456 
L 1556 988 
Q 1659 691 1678 491 
L 1694 491 
Q 1725 753 1803 975 
L 2688 3456 
L 3331 3456 
z
" transform="scale(0.015625)"/>
      </defs>
      <use xlink:href="#MicrosoftYaHei-53"/>
      <use xlink:href="#MicrosoftYaHei-70" transform="translate(57.714844 0)"/>
      <use xlink:href="#MicrosoftYaHei-65" transform="translate(121.582031 0)"/>
      <use xlink:href="#MicrosoftYaHei-63" transform="translate(178.320312 0)"/>
      <use xlink:href="#MicrosoftYaHei-52" transform="translate(228.466797 0)"/>
      <use xlink:href="#MicrosoftYaHei-61" transform="translate(293.75 0)"/>
      <use xlink:href="#MicrosoftYaHei-73" transform="translate(349.023438 0)"/>
      <use xlink:href="#MicrosoftYaHei-20" transform="translate(395.3125 0)"/>
      <use xlink:href="#MicrosoftYaHei-28" transform="translate(424.902344 0)"/>
      <use xlink:href="#MicrosoftYaHei-62" transform="translate(458.300781 0)"/>
      <use xlink:href="#MicrosoftYaHei-65" transform="translate(522.167969 0)"/>
      <use xlink:href="#MicrosoftYaHei-73" transform="translate(578.90625 0)"/>
      <use xlink:href="#MicrosoftYaHei-74" transform="translate(625.195312 0)"/>
      <use xlink:href="#MicrosoftYaHei-2d" transform="translate(656.451172 0)"/>
      <use xlink:href="#MicrosoftYaHei-76" transform="translate(699.712891 0)"/>
      <use xlink:href="#MicrosoftYaHei-61" transform="translate(750.203125 0)"/>
      <use xlink:href="#MicrosoftYaHei-6c" transform="translate(805.476562 0)"/>
      <use xlink:href="#MicrosoftYaHei-29" transform="translate(832.087891 0)"/>
     </g>
    </g>
    <g id="line2d_21">
     <path d="M 381.05445 63.53 
L 389.05445 63.53 
L 397.05445 63.53 
" style="fill: none; stroke: #ff9800; stroke-width: 2.5; stroke-linecap: square"/>
    </g>
    <g id="text_16">
     <!-- SpecRas (SWA) -->
     <g transform="translate(403.45445 66.33) scale(0.08 -0.08)">
      <use xlink:href="#MicrosoftYaHei-53"/>
      <use xlink:href="#MicrosoftYaHei-70" transform="translate(57.714844 0)"/>
      <use xlink:href="#MicrosoftYaHei-65" transform="translate(121.582031 0)"/>
      <use xlink:href="#MicrosoftYaHei-63" transform="translate(178.320312 0)"/>
      <use xlink:href="#MicrosoftYaHei-52" transform="translate(228.466797 0)"/>
      <use xlink:href="#MicrosoftYaHei-61" transform="translate(293.75 0)"/>
      <use xlink:href="#MicrosoftYaHei-73" transform="translate(349.023438 0)"/>
      <use xlink:href="#MicrosoftYaHei-20" transform="translate(395.3125 0)"/>
      <use xlink:href="#MicrosoftYaHei-28" transform="translate(424.902344 0)"/>
      <use xlink:href="#MicrosoftYaHei-53" transform="translate(458.300781 0)"/>
      <use xlink:href="#MicrosoftYaHei-57" transform="translate(516.015625 0)"/>
      <use xlink:href="#MicrosoftYaHei-41" transform="translate(613.898438 0)"/>
      <use xlink:href="#MicrosoftYaHei-29" transform="translate(684.259766 0)"/>
     </g>
    </g>
    <g id="line2d_22">
     <path d="M 381.05445 75.91375 
L 389.05445 75.91375 
L 397.05445 75.91375 
" style="fill: none; stroke: #e65100; stroke-width: 2.5; stroke-linecap: square"/>
    </g>
    <g id="text_17">
     <!-- HetSpatVAE -->
     <g transform="translate(403.45445 78.71375) scale(0.08 -0.08)">
      <defs>
       <path id="MicrosoftYaHei-48" d="M 4325 0 
L 3700 0 
L 3700 2181 
L 1250 2181 
L 1250 0 
L 625 0 
L 625 4841 
L 1250 4841 
L 1250 2738 
L 3700 2738 
L 3700 4841 
L 4325 4841 
L 4325 0 
z
" transform="scale(0.015625)"/>
      </defs>
      <use xlink:href="#MicrosoftYaHei-48"/>
      <use xlink:href="#MicrosoftYaHei-65" transform="translate(77.34375 0)"/>
      <use xlink:href="#MicrosoftYaHei-74" transform="translate(134.082031 0)"/>
      <use xlink:href="#MicrosoftYaHei-53" transform="translate(171.337891 0)"/>
      <use xlink:href="#MicrosoftYaHei-70" transform="translate(229.052734 0)"/>
      <use xlink:href="#MicrosoftYaHei-61" transform="translate(291.544922 0)"/>
      <use xlink:href="#MicrosoftYaHei-74" transform="translate(346.818359 0)"/>
      <use xlink:href="#MicrosoftYaHei-56" transform="translate(384.074219 0)"/>
      <use xlink:href="#MicrosoftYaHei-41" transform="translate(445.576172 0)"/>
      <use xlink:href="#MicrosoftYaHei-45" transform="translate(515.9375 0)"/>
     </g>
    </g>
   </g>
  </g>
 </g>
 <defs>
  <clipPath id="pd090f5e93c">
   <path d="M 359.032 214.2992 
C 359.032 191.198123 354.481591 168.321674 345.641192 146.979061 
C 336.800792 125.636449 323.842325 106.242732 307.507397 89.907803 
C 291.172468 73.572875 271.778751 60.614408 250.436139 51.774008 
C 229.093526 42.933609 206.217077 38.3832 183.116 38.3832 
C 160.014923 38.3832 137.138474 42.933609 115.795861 51.774008 
C 94.453249 60.614408 75.059532 73.572875 58.724603 89.907803 
C 42.389675 106.242732 29.431208 125.636449 20.590808 146.979061 
C 11.750409 168.321674 7.2 191.198123 7.2 214.2992 
C 7.2 237.400277 11.750409 260.276726 20.590808 281.619339 
C 29.431208 302.961951 42.389675 322.355668 58.724603 338.690597 
C 75.059532 355.025525 94.453249 367.983992 115.795861 376.824392 
C 137.138474 385.664791 160.014923 390.2152 183.116 390.2152 
C 206.217077 390.2152 229.093526 385.664791 250.436139 376.824392 
C 271.778751 367.983992 291.172468 355.025525 307.507397 338.690597 
C 323.842325 322.355668 336.800792 302.961951 345.641192 281.619339 
C 354.481591 260.276726 359.032 237.400277 359.032 214.2992 
M 183.116 214.2992 
C 183.116 214.2992 183.116 214.2992 183.116 214.2992 
C 183.116 214.2992 183.116 214.2992 183.116 214.2992 
C 183.116 214.2992 183.116 214.2992 183.116 214.2992 
C 183.116 214.2992 183.116 214.2992 183.116 214.2992 
C 183.116 214.2992 183.116 214.2992 183.116 214.2992 
C 183.116 214.2992 183.116 214.2992 183.116 214.2992 
C 183.116 214.2992 183.116 214.2992 183.116 214.2992 
C 183.116 214.2992 183.116 214.2992 183.116 214.2992 
C 183.116 214.2992 183.116 214.2992 183.116 214.2992 
C 183.116 214.2992 183.116 214.2992 183.116 214.2992 
C 183.116 214.2992 183.116 214.2992 183.116 214.2992 
C 183.116 214.2992 183.116 214.2992 183.116 214.2992 
C 183.116 214.2992 183.116 214.2992 183.116 214.2992 
C 183.116 214.2992 183.116 214.2992 183.116 214.2992 
C 183.116 214.2992 183.116 214.2992 183.116 214.2992 
C 183.116 214.2992 183.116 214.2992 183.116 214.2992 
z
"/>
  </clipPath>
 </defs>
</svg>
