<?xml version="1.0" encoding="utf-8" standalone="no"?>
<!DOCTYPE svg PUBLIC "-//W3C//DTD SVG 1.1//EN"
  "http://www.w3.org/Graphics/SVG/1.1/DTD/svg11.dtd">
<svg xmlns:xlink="http://www.w3.org/1999/xlink" width="486.852472pt" height="407.097901pt" viewBox="0 0 486.852472 407.097901" xmlns="http://www.w3.org/2000/svg" version="1.1">
 <metadata>
  <rdf:RDF xmlns:dc="http://purl.org/dc/elements/1.1/" xmlns:cc="http://creativecommons.org/ns#" xmlns:rdf="http://www.w3.org/1999/02/22-rdf-syntax-ns#">
   <cc:Work>
    <dc:type rdf:resource="http://purl.org/dc/dcmitype/StillImage"/>
    <dc:date>2026-03-22T16:24:59.901805</dc:date>
    <dc:format>image/svg+xml</dc:format>
    <dc:creator>
     <cc:Agent>
      <dc:title>Matplotlib v3.10.7, https://matplotlib.org/</dc:title>
     </cc:Agent>
    </dc:creator>
   </cc:Work>
  </rdf:RDF>
 </metadata>
 <defs>
  <style type="text/css">*{stroke-linejoin: round; stroke-linecap: butt}</style>
 </defs>
 <g id="figure_1">
  <g id="patch_1">
   <path d="M 0 407.097901 
L 486.852472 407.097901 
L 486.852472 0 
L 0 0 
z
" style="fill: #ffffff"/>
  </g>
  <g id="axes_1">
   <g id="patch_2">
    <path d="M 360.511272 214.2992 
C 360.511272 191.198123 355.960863 168.321674 347.120463 146.979061 
C 338.280064 125.636449 325.321597 106.242732 308.986668 89.907803 
C 292.651739 73.572875 273.258023 60.614408 251.91541 51.774008 
C 230.572798 42.933609 207.696349 38.3832 184.595272 38.3832 
C 161.494194 38.3832 138.617745 42.933609 117.275133 51.774008 
C 95.93252 60.614408 76.538804 73.572875 60.203875 89.907803 
C 43.868946 106.242732 30.910479 125.636449 22.07008 146.979061 
C 13.22968 168.321674 8.679272 191.198123 8.679272 214.2992 
C 8.679272 237.400277 13.22968 260.276726 22.07008 281.619339 
C 30.910479 302.961951 43.868946 322.355668 60.203875 338.690597 
C 76.538804 355.025525 95.93252 367.983992 117.275133 376.824392 
C 138.617745 385.664791 161.494194 390.2152 184.595272 390.2152 
C 207.696349 390.2152 230.572798 385.664791 251.91541 376.824392 
C 273.258023 367.983992 292.651739 355.025525 308.986668 338.690597 
C 325.321597 322.355668 338.280064 302.961951 347.120463 281.619339 
C 355.960863 260.276726 360.511272 237.400277 360.511272 214.2992 
M 184.595272 214.2992 
C 184.595272 214.2992 184.595272 214.2992 184.595272 214.2992 
C 184.595272 214.2992 184.595272 214.2992 184.595272 214.2992 
C 184.595272 214.2992 184.595272 214.2992 184.595272 214.2992 
C 184.595272 214.2992 184.595272 214.2992 184.595272 214.2992 
C 184.595272 214.2992 184.595272 214.2992 184.595272 214.2992 
C 184.595272 214.2992 184.595272 214.2992 184.595272 214.2992 
C 184.595272 214.2992 184.595272 214.2992 184.595272 214.2992 
C 184.595272 214.2992 184.595272 214.2992 184.595272 214.2992 
C 184.595272 214.2992 184.595272 214.2992 184.595272 214.2992 
C 184.595272 214.2992 184.595272 214.2992 184.595272 214.2992 
C 184.595272 214.2992 184.595272 214.2992 184.595272 214.2992 
C 184.595272 214.2992 184.595272 214.2992 184.595272 214.2992 
C 184.595272 214.2992 184.595272 214.2992 184.595272 214.2992 
C 184.595272 214.2992 184.595272 214.2992 184.595272 214.2992 
C 184.595272 214.2992 184.595272 214.2992 184.595272 214.2992 
C 184.595272 214.2992 184.595272 214.2992 184.595272 214.2992 
z
" style="fill: #ffffff"/>
   </g>
   <g id="patch_3">
    <path d="M 318.207662 214.2992 
L 228.503455 79.163707 
L 73.843955 133.833659 
L 80.74304 289.752263 
L 225.412642 339.922149 
z
" clip-path="url(#p5f2d1a7591)" style="fill: #9e9e9e; opacity: 0.5; stroke: #9e9e9e; stroke-linejoin: miter"/>
   </g>
   <g id="patch_4">
    <path d="M 298.521824 214.2992 
L 222.508209 97.615175 
L 82.112013 139.840754 
L 108.908654 269.288746 
L 218.69776 319.255867 
z
" clip-path="url(#p5f2d1a7591)" style="fill: #78909c; opacity: 0.5; stroke: #78909c; stroke-linejoin: miter"/>
   </g>
   <g id="patch_5">
    <path d="M 249.516652 214.2992 
L 210.5902 134.295036 
L 117.922193 165.858373 
L 154.667612 236.042917 
L 203.0832 271.199194 
z
" clip-path="url(#p5f2d1a7591)" style="fill: #607d8b; opacity: 0.5; stroke: #607d8b; stroke-linejoin: miter"/>
   </g>
   <g id="patch_6">
    <path d="M 342.500824 214.2992 
L 236.367684 54.960097 
L 61.658735 124.980578 
L 49.053335 312.776181 
L 233.313112 364.237296 
z
" clip-path="url(#p5f2d1a7591)" style="fill: #ffb74d; opacity: 0.15; stroke: #ffb74d; stroke-linejoin: miter"/>
   </g>
   <g id="patch_7">
    <path d="M 347.108148 214.2992 
L 236.367684 54.960097 
L 55.69489 120.647591 
L 49.053335 312.776181 
L 234.76274 368.698791 
z
" clip-path="url(#p5f2d1a7591)" style="fill: #ff9800; opacity: 0.15; stroke: #ff9800; stroke-linejoin: miter"/>
   </g>
   <g id="patch_8">
    <path d="M 349.202386 214.2992 
L 236.367684 54.960097 
L 52.848509 118.579574 
L 49.053335 312.776181 
L 235.435781 370.770199 
z
" clip-path="url(#p5f2d1a7591)" style="fill: #e65100; opacity: 0.15; stroke: #e65100; stroke-linejoin: miter"/>
   </g>
   <g id="matplotlib.axis_1">
    <g id="xtick_1">
     <g id="line2d_1">
      <path d="M 184.595272 214.2992 
L 360.511272 214.2992 
" clip-path="url(#p5f2d1a7591)" style="fill: none; stroke-dasharray: 0.8,1.32; stroke-dashoffset: 0; stroke: #b0b0b0; stroke-opacity: 0.5; stroke-width: 0.8"/>
     </g>
     <g id="text_1">
      <!-- 准确率 -->
      <g transform="translate(360.261272 216.915411) scale(0.095 -0.095)">
       <defs>
        <path id="MicrosoftYaHei-51c6" d="M 1413 2766 
Q 2313 3866 2869 5334 
L 3331 5172 
Q 3128 4694 2906 4253 
L 6194 4253 
L 6194 3822 
L 4675 3822 
L 4675 2891 
L 6025 2891 
L 6025 2459 
L 4675 2459 
L 4675 1528 
L 6038 1528 
L 6038 1097 
L 4675 1097 
L 4675 78 
L 6275 78 
L 6275 -341 
L 2769 -341 
L 2769 -841 
L 2281 -841 
L 2281 3131 
Q 2034 2738 1769 2384 
Q 1631 2578 1413 2766 
z
M 2769 78 
L 4188 78 
L 4188 1097 
L 2769 1097 
L 2769 78 
z
M 1081 2422 
Q 1325 2291 1556 2209 
Q 1113 916 681 -372 
L 169 -141 
Q 650 1003 1081 2422 
z
M 2769 1528 
L 4188 1528 
L 4188 2459 
L 2769 2459 
L 2769 1528 
z
M 2769 2891 
L 4188 2891 
L 4188 3822 
L 2769 3822 
L 2769 2891 
z
M 531 4991 
Q 1050 4384 1581 3709 
Q 1538 3678 1150 3341 
Q 681 3997 138 4672 
L 531 4991 
z
M 3919 5116 
L 4325 5372 
Q 4569 5072 4881 4622 
L 4450 4334 
Q 4156 4784 3919 5116 
z
" transform="scale(0.015625)"/>
        <path id="MicrosoftYaHei-786e" d="M 2075 3453 
Q 2956 4334 3456 5359 
L 3931 5272 
Q 3781 4991 3619 4722 
L 5438 4722 
L 5438 4328 
L 4909 3666 
L 6063 3666 
L 6063 -53 
Q 6063 -728 5475 -728 
Q 5144 -728 4906 -716 
Q 4869 -497 4813 -259 
Q 5156 -291 5331 -291 
Q 5619 -291 5619 16 
L 5619 734 
L 4588 734 
L 4588 -659 
L 4144 -659 
L 4144 734 
L 3113 734 
Q 2944 -263 2444 -884 
Q 2288 -703 2081 -509 
Q 2756 291 2756 1841 
L 2756 3506 
Q 2597 3316 2431 3134 
Q 2281 3278 2075 3453 
z
M 31 1691 
Q 741 2834 1066 4291 
L 231 4291 
L 231 4716 
L 2469 4716 
L 2469 4291 
L 1509 4291 
Q 1356 3613 1128 2991 
L 2200 2991 
L 2200 128 
L 1150 128 
L 1150 -347 
L 738 -347 
L 738 2059 
Q 559 1691 350 1347 
Q 225 1497 31 1691 
z
M 1788 541 
L 1788 2578 
L 1150 2578 
L 1150 541 
L 1788 541 
z
M 4875 4322 
L 3366 4322 
Q 3138 3981 2884 3666 
L 4384 3666 
L 4875 4322 
z
M 4588 1134 
L 5619 1134 
L 5619 1991 
L 4588 1991 
L 4588 1134 
z
M 5619 3241 
L 4588 3241 
L 4588 2391 
L 5619 2391 
L 5619 3241 
z
M 3166 1134 
L 4144 1134 
L 4144 1991 
L 3200 1991 
Q 3200 1841 3166 1134 
z
M 3200 2391 
L 4144 2391 
L 4144 3241 
L 3200 3241 
L 3200 2391 
z
" transform="scale(0.015625)"/>
        <path id="MicrosoftYaHei-7387" d="M 2525 2009 
Q 2622 2016 3928 2081 
Q 3772 2300 3625 2491 
L 3963 2703 
Q 4413 2203 4794 1653 
L 4394 1403 
Q 4284 1569 4178 1725 
Q 2991 1659 2213 1597 
Q 2075 1584 1881 1541 
L 1725 1966 
Q 1913 2028 2006 2084 
Q 2534 2441 3050 2913 
Q 2597 2894 2275 2866 
Q 2144 2847 1988 2809 
L 1800 3191 
Q 1956 3247 2088 3366 
Q 2509 3722 2875 4228 
L 231 4228 
L 231 4666 
L 3031 4666 
Q 2878 4944 2744 5153 
L 3194 5372 
Q 3438 5000 3616 4666 
L 6175 4666 
L 6175 4228 
L 3053 4228 
L 3350 4072 
Q 2844 3553 2494 3247 
Q 2850 3256 3425 3269 
Q 3675 3519 3925 3797 
L 4356 3547 
Q 3363 2603 2525 2009 
z
M 144 991 
L 2994 991 
L 2994 1541 
L 3488 1541 
L 3488 991 
L 6275 991 
L 6275 553 
L 3488 553 
L 3488 -853 
L 2994 -853 
L 2994 553 
L 144 553 
L 144 991 
z
M 1719 2672 
L 1944 2303 
Q 1200 1866 425 1409 
L 163 1828 
Q 813 2134 1719 2672 
z
M 4856 2678 
Q 5750 2172 6250 1816 
L 5975 1409 
Q 5331 1909 4600 2341 
L 4856 2678 
z
M 5994 3591 
Q 5519 3178 4963 2809 
L 4644 3141 
Q 5244 3534 5638 3928 
L 5994 3591 
z
M 363 3634 
L 681 3941 
Q 1200 3528 1588 3159 
L 1238 2816 
Q 875 3197 363 3634 
z
" transform="scale(0.015625)"/>
       </defs>
       <use xlink:href="#MicrosoftYaHei-51c6"/>
       <use xlink:href="#MicrosoftYaHei-786e" transform="translate(100 0)"/>
       <use xlink:href="#MicrosoftYaHei-7387" transform="translate(200 0)"/>
      </g>
     </g>
    </g>
    <g id="xtick_2">
     <g id="line2d_2">
      <path d="M 184.595272 214.2992 
L 238.956305 46.993142 
" clip-path="url(#p5f2d1a7591)" style="fill: none; stroke-dasharray: 0.8,1.32; stroke-dashoffset: 0; stroke: #b0b0b0; stroke-opacity: 0.5; stroke-width: 0.8"/>
     </g>
     <g id="text_2">
      <!-- 正常精确率 -->
      <g transform="translate(219.532543 36.294562) scale(0.095 -0.095)">
       <defs>
        <path id="MicrosoftYaHei-6b63" d="M 88 66 
L 1106 66 
L 1106 3416 
L 1644 3416 
L 1644 66 
L 3231 66 
L 3231 4309 
L 375 4309 
L 375 4797 
L 6063 4797 
L 6063 4309 
L 3769 4309 
L 3769 2672 
L 5850 2672 
L 5850 2191 
L 3769 2191 
L 3769 66 
L 6313 66 
L 6313 -422 
L 88 -422 
L 88 66 
z
" transform="scale(0.015625)"/>
        <path id="MicrosoftYaHei-5e38" d="M 1213 -372 
L 725 -372 
L 725 1409 
L 2963 1409 
L 2963 1997 
L 1738 1997 
L 1738 1772 
L 1263 1772 
L 1263 3366 
L 5175 3366 
L 5175 1772 
L 4700 1772 
L 4700 1997 
L 3463 1997 
L 3463 1409 
L 5756 1409 
L 5756 341 
Q 5756 -378 5000 -378 
Q 4681 -378 4269 -372 
Q 4231 -153 4175 109 
Q 4556 72 4881 72 
Q 5269 72 5269 409 
L 5269 997 
L 3463 997 
L 3463 -853 
L 2963 -853 
L 2963 997 
L 1213 997 
L 1213 -372 
z
M 356 4216 
L 1828 4216 
Q 1409 4572 956 4903 
L 1244 5228 
Q 1713 4916 2188 4572 
L 1853 4216 
L 2956 4216 
L 2956 5309 
L 3456 5309 
L 3456 4216 
L 4488 4216 
L 4238 4528 
Q 4750 4866 5213 5247 
L 5575 4878 
Q 5128 4547 4631 4216 
L 6056 4216 
L 6056 3109 
L 5569 3109 
L 5569 3791 
L 844 3791 
L 844 3109 
L 356 3109 
L 356 4216 
z
M 4700 2966 
L 1738 2966 
L 1738 2397 
L 4700 2397 
L 4700 2966 
z
" transform="scale(0.015625)"/>
        <path id="MicrosoftYaHei-7cbe" d="M 3225 -822 
L 2775 -822 
L 2775 2347 
L 5919 2347 
L 5919 -91 
Q 5919 -772 5219 -772 
L 4200 -772 
Q 4169 -572 4106 -291 
Q 4688 -328 5063 -328 
Q 5469 -328 5469 9 
L 5469 297 
L 3225 297 
L 3225 -822 
z
M 2488 3122 
L 4106 3122 
L 4106 3553 
L 2750 3553 
L 2750 3947 
L 4106 3947 
L 4106 4366 
L 2588 4366 
L 2588 4759 
L 4106 4759 
L 4106 5322 
L 4556 5322 
L 4556 4759 
L 6200 4759 
L 6200 4366 
L 4556 4366 
L 4556 3947 
L 6013 3947 
L 6013 3553 
L 4556 3553 
L 4556 3122 
L 6288 3122 
L 6288 2728 
L 2488 2728 
L 2488 3122 
z
M 56 578 
Q 663 1497 1044 2628 
L 138 2628 
L 138 3028 
L 1094 3028 
L 1094 5303 
L 1506 5303 
L 1506 3028 
L 2313 3028 
L 2313 2628 
L 1506 2628 
L 1506 1853 
L 1738 2041 
Q 2263 1534 2581 1166 
L 2256 866 
Q 1863 1347 1506 1722 
L 1506 -847 
L 1094 -847 
L 1094 1784 
Q 731 841 250 72 
Q 150 353 56 578 
z
M 5469 1947 
L 3225 1947 
L 3225 1509 
L 5469 1509 
L 5469 1947 
z
M 3225 684 
L 5469 684 
L 5469 1122 
L 3225 1122 
L 3225 684 
z
M 1625 3559 
Q 1900 4166 2081 4834 
L 2481 4691 
Q 2250 3997 1994 3397 
L 1625 3559 
z
M 150 4709 
L 519 4841 
Q 744 4209 944 3572 
L 550 3409 
Q 338 4172 150 4709 
z
" transform="scale(0.015625)"/>
       </defs>
       <use xlink:href="#MicrosoftYaHei-6b63"/>
       <use xlink:href="#MicrosoftYaHei-5e38" transform="translate(100 0)"/>
       <use xlink:href="#MicrosoftYaHei-7cbe" transform="translate(200 0)"/>
       <use xlink:href="#MicrosoftYaHei-786e" transform="translate(300 0)"/>
       <use xlink:href="#MicrosoftYaHei-7387" transform="translate(400 0)"/>
      </g>
     </g>
    </g>
    <g id="xtick_3">
     <g id="line2d_3">
      <path d="M 184.595272 214.2992 
L 42.276238 110.89837 
" clip-path="url(#p5f2d1a7591)" style="fill: none; stroke-dasharray: 0.8,1.32; stroke-dashoffset: 0; stroke: #b0b0b0; stroke-opacity: 0.5; stroke-width: 0.8"/>
     </g>
     <g id="text_3">
      <!-- 正常召回率 -->
      <g transform="translate(7.2 105.285587) scale(0.095 -0.095)">
       <defs>
        <path id="MicrosoftYaHei-53ec" d="M 913 1884 
L 5525 1884 
L 5525 -866 
L 5025 -866 
L 5025 -478 
L 1413 -478 
L 1413 -878 
L 913 -878 
L 913 1884 
z
M 406 4941 
L 5713 4941 
Q 5638 3916 5581 3409 
Q 5469 2397 4475 2397 
Q 3856 2397 3194 2403 
Q 3150 2678 3063 2966 
Q 3769 2916 4388 2916 
Q 4994 2916 5069 3509 
Q 5119 3897 5156 4472 
L 2625 4472 
Q 2550 3453 2125 2934 
Q 1594 2316 438 1834 
Q 244 2109 88 2297 
Q 1288 2753 1694 3259 
Q 2050 3647 2119 4472 
L 406 4472 
L 406 4941 
z
M 5025 1428 
L 1413 1428 
L 1413 -34 
L 5025 -34 
L 5025 1428 
z
" transform="scale(0.015625)"/>
        <path id="MicrosoftYaHei-56de" d="M 475 4947 
L 5938 4947 
L 5938 -778 
L 5413 -778 
L 5413 -378 
L 1000 -378 
L 1000 -778 
L 475 -778 
L 475 4947 
z
M 5413 4484 
L 1000 4484 
L 1000 72 
L 5413 72 
L 5413 4484 
z
M 1875 3528 
L 4531 3528 
L 4531 797 
L 4044 797 
L 4044 1147 
L 2363 1147 
L 2363 797 
L 1875 797 
L 1875 3528 
z
M 4044 3091 
L 2363 3091 
L 2363 1584 
L 4044 1584 
L 4044 3091 
z
" transform="scale(0.015625)"/>
       </defs>
       <use xlink:href="#MicrosoftYaHei-6b63"/>
       <use xlink:href="#MicrosoftYaHei-5e38" transform="translate(100 0)"/>
       <use xlink:href="#MicrosoftYaHei-53ec" transform="translate(200 0)"/>
       <use xlink:href="#MicrosoftYaHei-56de" transform="translate(300 0)"/>
       <use xlink:href="#MicrosoftYaHei-7387" transform="translate(400 0)"/>
      </g>
     </g>
    </g>
    <g id="xtick_4">
     <g id="line2d_4">
      <path d="M 184.595272 214.2992 
L 42.276238 317.70003 
" clip-path="url(#p5f2d1a7591)" style="fill: none; stroke-dasharray: 0.8,1.32; stroke-dashoffset: 0; stroke: #b0b0b0; stroke-opacity: 0.5; stroke-width: 0.8"/>
     </g>
     <g id="text_4">
      <!-- 故障召回率 -->
      <g transform="translate(7.2 328.545235) scale(0.095 -0.095)">
       <defs>
        <path id="MicrosoftYaHei-6545" d="M 3900 5359 
L 4400 5278 
Q 4256 4672 4053 4128 
L 6275 4128 
L 6275 3691 
L 5731 3691 
Q 5578 1872 4881 791 
Q 5459 66 6369 -366 
Q 6156 -647 6019 -866 
Q 5119 -334 4553 359 
Q 3925 -363 3044 -903 
Q 2906 -722 2688 -509 
Q 3678 103 4241 800 
Q 3694 1706 3534 2994 
Q 3334 2634 3100 2309 
Q 2969 2497 2781 2709 
Q 3619 3903 3900 5359 
z
M 363 2234 
L 1381 2234 
L 1381 3591 
L 100 3591 
L 100 4053 
L 1381 4053 
L 1381 5309 
L 1869 5309 
L 1869 4053 
L 3119 4053 
L 3119 3591 
L 1869 3591 
L 1869 2234 
L 2863 2234 
L 2863 -159 
L 838 -159 
L 838 -572 
L 363 -572 
L 363 2234 
z
M 2388 278 
L 2388 1784 
L 838 1784 
L 838 278 
L 2388 278 
z
M 5241 3691 
L 3903 3691 
Q 4009 2228 4563 1259 
Q 5128 2213 5241 3691 
z
" transform="scale(0.015625)"/>
        <path id="MicrosoftYaHei-969c" d="M 2000 391 
L 3931 391 
L 3931 891 
L 2944 891 
L 2944 703 
L 2519 703 
L 2519 2847 
L 5806 2847 
L 5806 703 
L 5381 703 
L 5381 891 
L 4381 891 
L 4381 391 
L 6319 391 
L 6319 16 
L 4381 16 
L 4381 -859 
L 3931 -859 
L 3931 16 
L 2000 16 
L 2000 391 
z
M 2113 1728 
Q 2275 503 1531 378 
Q 1288 328 950 359 
Q 900 606 819 859 
L 819 -816 
L 356 -816 
L 356 4978 
L 2100 4978 
L 2100 4541 
Q 1838 3672 1581 2853 
Q 2056 2247 2113 1728 
z
M 2038 3628 
L 3247 3628 
Q 3069 3869 2856 4116 
L 3178 4347 
L 2300 4347 
L 2300 4722 
L 4081 4722 
Q 3869 4966 3681 5141 
L 4019 5397 
Q 4269 5159 4525 4884 
L 4319 4722 
L 6131 4722 
L 6131 4347 
L 3194 4347 
Q 3478 4044 3713 3753 
L 3541 3628 
L 4644 3628 
Q 4897 3963 5119 4322 
L 5556 4091 
Q 5347 3847 5153 3628 
L 6300 3628 
L 6300 3253 
L 2038 3253 
L 2038 3628 
z
M 1375 828 
Q 1800 903 1663 1716 
Q 1581 2172 1113 2772 
Q 1400 3709 1613 4541 
L 819 4541 
L 819 875 
Q 1122 803 1375 828 
z
M 2944 1253 
L 5381 1253 
L 5381 1697 
L 2944 1697 
L 2944 1253 
z
M 5381 2484 
L 2944 2484 
L 2944 2047 
L 5381 2047 
L 5381 2484 
z
" transform="scale(0.015625)"/>
       </defs>
       <use xlink:href="#MicrosoftYaHei-6545"/>
       <use xlink:href="#MicrosoftYaHei-969c" transform="translate(100 0)"/>
       <use xlink:href="#MicrosoftYaHei-53ec" transform="translate(200 0)"/>
       <use xlink:href="#MicrosoftYaHei-56de" transform="translate(300 0)"/>
       <use xlink:href="#MicrosoftYaHei-7387" transform="translate(400 0)"/>
      </g>
     </g>
    </g>
    <g id="xtick_5">
     <g id="line2d_5">
      <path d="M 184.595272 214.2992 
L 238.956305 381.605258 
" clip-path="url(#p5f2d1a7591)" style="fill: none; stroke-dasharray: 0.8,1.32; stroke-dashoffset: 0; stroke: #b0b0b0; stroke-opacity: 0.5; stroke-width: 0.8"/>
     </g>
     <g id="text_5">
      <!-- Macro-F1 -->
      <g transform="translate(221.501566 397.53626) scale(0.095 -0.095)">
       <defs>
        <path id="MicrosoftYaHei-4d" d="M 5003 0 
L 5003 3206 
Q 5003 3603 5050 4159 
L 5034 4159 
Q 4953 3809 4891 3672 
L 3294 0 
L 2947 0 
L 1353 3644 
Q 1297 3769 1209 4159 
L 1191 4159 
Q 1222 3822 1222 3178 
L 1222 0 
L 625 0 
L 625 4841 
L 1472 4841 
L 2900 1522 
Q 3063 1141 3116 928 
L 3138 928 
Q 3300 1375 3366 1534 
L 4819 4841 
L 5625 4841 
L 5625 0 
L 5003 0 
z
" transform="scale(0.015625)"/>
        <path id="MicrosoftYaHei-61" d="M 628 3216 
Q 1144 3538 1819 3538 
Q 3069 3538 3069 2225 
L 3069 0 
L 2463 0 
L 2463 534 
L 2447 534 
Q 2088 -81 1388 -81 
Q 884 -81 587 191 
Q 291 463 291 925 
Q 291 1894 1438 2053 
L 2463 2197 
Q 2463 3044 1763 3044 
Q 1141 3044 628 2625 
L 628 3216 
z
M 1653 1625 
Q 1228 1569 1067 1412 
Q 906 1256 906 975 
Q 906 728 1081 572 
Q 1256 416 1544 416 
Q 1944 416 2203 697 
Q 2463 978 2463 1403 
L 2463 1734 
L 1653 1625 
z
" transform="scale(0.015625)"/>
        <path id="MicrosoftYaHei-63" d="M 2934 156 
Q 2538 -81 1978 -81 
Q 1228 -81 772 400 
Q 316 881 316 1647 
Q 316 2497 808 3017 
Q 1300 3538 2125 3538 
Q 2600 3538 2938 3369 
L 2938 2763 
Q 2572 3031 2125 3031 
Q 1600 3031 1270 2667 
Q 941 2303 941 1697 
Q 941 1100 1252 762 
Q 1563 425 2091 425 
Q 2538 425 2934 719 
L 2934 156 
z
" transform="scale(0.015625)"/>
        <path id="MicrosoftYaHei-72" d="M 2400 2850 
Q 2247 2959 1978 2959 
Q 1622 2959 1390 2626 
Q 1159 2294 1159 1750 
L 1159 0 
L 547 0 
L 547 3456 
L 1159 3456 
L 1159 2753 
L 1172 2753 
Q 1434 3516 2078 3516 
Q 2288 3516 2400 3469 
L 2400 2850 
z
" transform="scale(0.015625)"/>
        <path id="MicrosoftYaHei-6f" d="M 316 1691 
Q 316 2547 794 3042 
Q 1272 3538 2091 3538 
Q 2869 3538 3311 3061 
Q 3753 2584 3753 1744 
Q 3753 925 3281 422 
Q 2809 -81 2016 -81 
Q 1241 -81 778 406 
Q 316 894 316 1691 
z
M 941 1709 
Q 941 1113 1242 769 
Q 1544 425 2053 425 
Q 2578 425 2853 761 
Q 3128 1097 3128 1725 
Q 3128 2356 2853 2693 
Q 2578 3031 2053 3031 
Q 1538 3031 1239 2678 
Q 941 2325 941 1709 
z
" transform="scale(0.015625)"/>
        <path id="MicrosoftYaHei-2d" d="M 2328 1681 
L 488 1681 
L 488 2153 
L 2328 2153 
L 2328 1681 
z
" transform="scale(0.015625)"/>
        <path id="MicrosoftYaHei-46" d="M 3119 4284 
L 1250 4284 
L 1250 2666 
L 2981 2666 
L 2981 2116 
L 1250 2116 
L 1250 0 
L 625 0 
L 625 4841 
L 3119 4841 
L 3119 4284 
z
" transform="scale(0.015625)"/>
        <path id="MicrosoftYaHei-31" d="M 1781 0 
L 1781 4141 
Q 1638 3997 1295 3819 
Q 953 3641 663 3569 
L 663 4169 
Q 1047 4275 1484 4508 
Q 1922 4741 2156 4947 
L 2388 4947 
L 2388 0 
L 1781 0 
z
" transform="scale(0.015625)"/>
       </defs>
       <use xlink:href="#MicrosoftYaHei-4d"/>
       <use xlink:href="#MicrosoftYaHei-61" transform="translate(97.705078 0)"/>
       <use xlink:href="#MicrosoftYaHei-63" transform="translate(152.978516 0)"/>
       <use xlink:href="#MicrosoftYaHei-72" transform="translate(203.125 0)"/>
       <use xlink:href="#MicrosoftYaHei-6f" transform="translate(239.933594 0)"/>
       <use xlink:href="#MicrosoftYaHei-2d" transform="translate(303.507812 0)"/>
       <use xlink:href="#MicrosoftYaHei-46" transform="translate(346.769531 0)"/>
       <use xlink:href="#MicrosoftYaHei-31" transform="translate(399.894531 0)"/>
      </g>
     </g>
    </g>
   </g>
   <g id="matplotlib.axis_2">
    <g id="ytick_1">
     <g id="line2d_6">
      <path d="M 218.103081 214.2992 
C 218.103081 209.898995 217.236337 205.541576 215.552451 201.476316 
C 213.868565 197.411057 211.400286 193.717016 208.288871 190.605601 
C 205.177456 187.494186 201.483415 185.025906 197.418155 183.342021 
C 193.352896 181.658135 188.995477 180.79139 184.595272 180.79139 
C 180.195066 180.79139 175.837647 181.658135 171.772388 183.342021 
C 167.707128 185.025906 164.013087 187.494186 160.901672 190.605601 
C 157.790257 193.717016 155.321978 197.411057 153.638092 201.476316 
C 151.954206 205.541576 151.087462 209.898995 151.087462 214.2992 
C 151.087462 218.699405 151.954206 223.056824 153.638092 227.122084 
C 155.321978 231.187343 157.790257 234.881384 160.901672 237.992799 
C 164.013087 241.104214 167.707128 243.572494 171.772388 245.256379 
C 175.837647 246.940265 180.195066 247.80701 184.595272 247.80701 
C 188.995477 247.80701 193.352896 246.940265 197.418155 245.256379 
C 201.483415 243.572494 205.177456 241.104214 208.288871 237.992799 
C 211.400286 234.881384 213.868565 231.187343 215.552451 227.122084 
C 217.236337 223.056824 218.103081 218.699405 218.103081 214.2992 
" clip-path="url(#p5f2d1a7591)" style="fill: none; stroke-dasharray: 0.8,1.32; stroke-dashoffset: 0; stroke: #b0b0b0; stroke-opacity: 0.5; stroke-width: 0.8"/>
     </g>
     <g id="text_6">
      <!-- 0.2 -->
      <g style="fill: #999999" transform="translate(215.552451 199.611863) scale(0.075 -0.075)">
       <defs>
        <path id="MicrosoftYaHei-30" d="M 284 2325 
Q 284 3606 709 4264 
Q 1134 4922 1941 4922 
Q 3478 4922 3478 2441 
Q 3478 1216 3045 567 
Q 2613 -81 1831 -81 
Q 1094 -81 689 534 
Q 284 1150 284 2325 
z
M 909 2353 
Q 909 425 1888 425 
Q 2850 425 2850 2384 
Q 2850 4413 1906 4413 
Q 909 4413 909 2353 
z
" transform="scale(0.015625)"/>
        <path id="MicrosoftYaHei-2e" d="M 372 322 
Q 372 491 487 606 
Q 603 722 775 722 
Q 950 722 1065 605 
Q 1181 488 1181 322 
Q 1181 159 1065 42 
Q 950 -75 772 -75 
Q 600 -75 486 42 
Q 372 159 372 322 
z
" transform="scale(0.015625)"/>
        <path id="MicrosoftYaHei-32" d="M 2666 3572 
Q 2666 3963 2419 4186 
Q 2172 4409 1747 4409 
Q 1447 4409 1140 4256 
Q 834 4103 569 3819 
L 569 4413 
Q 806 4659 1107 4790 
Q 1409 4922 1816 4922 
Q 2472 4922 2872 4570 
Q 3272 4219 3272 3619 
Q 3272 3084 3026 2693 
Q 2781 2303 2188 1894 
Q 1581 1475 1376 1294 
Q 1172 1113 1090 947 
Q 1009 781 1009 544 
L 3416 544 
L 3416 0 
L 372 0 
L 372 241 
Q 372 659 486 951 
Q 600 1244 862 1520 
Q 1125 1797 1681 2184 
Q 2250 2584 2458 2886 
Q 2666 3188 2666 3572 
z
" transform="scale(0.015625)"/>
       </defs>
       <use xlink:href="#MicrosoftYaHei-30"/>
       <use xlink:href="#MicrosoftYaHei-2e" transform="translate(58.642578 0)"/>
       <use xlink:href="#MicrosoftYaHei-32" transform="translate(82.714844 0)"/>
      </g>
     </g>
    </g>
    <g id="ytick_2">
     <g id="line2d_7">
      <path d="M 251.610891 214.2992 
C 251.610891 205.49879 249.877402 196.783952 246.50963 188.653433 
C 243.141859 180.522914 238.2053 173.134831 231.98247 166.912001 
C 225.75964 160.689171 218.371558 155.752612 210.241039 152.384841 
C 202.11052 149.01707 193.395682 147.283581 184.595272 147.283581 
C 175.794861 147.283581 167.080023 149.01707 158.949504 152.384841 
C 150.818985 155.752612 143.430903 160.689171 137.208073 166.912001 
C 130.985243 173.134831 126.048684 180.522914 122.680913 188.653433 
C 119.313141 196.783952 117.579652 205.49879 117.579652 214.2992 
C 117.579652 223.09961 119.313141 231.814448 122.680913 239.944967 
C 126.048684 248.075486 130.985243 255.463569 137.208073 261.686399 
C 143.430903 267.909229 150.818985 272.845788 158.949504 276.213559 
C 167.080023 279.58133 175.794861 281.314819 184.595272 281.314819 
C 193.395682 281.314819 202.11052 279.58133 210.241039 276.213559 
C 218.371558 272.845788 225.75964 267.909229 231.98247 261.686399 
C 238.2053 255.463569 243.141859 248.075486 246.50963 239.944967 
C 249.877402 231.814448 251.610891 223.09961 251.610891 214.2992 
" clip-path="url(#p5f2d1a7591)" style="fill: none; stroke-dasharray: 0.8,1.32; stroke-dashoffset: 0; stroke: #b0b0b0; stroke-opacity: 0.5; stroke-width: 0.8"/>
     </g>
     <g id="text_7">
      <!-- 0.4 -->
      <g style="fill: #999999" transform="translate(246.50963 186.78898) scale(0.075 -0.075)">
       <defs>
        <path id="MicrosoftYaHei-34" d="M 2906 4841 
L 2906 1644 
L 3631 1644 
L 3631 1138 
L 2906 1138 
L 2906 0 
L 2313 0 
L 2313 1138 
L 53 1138 
L 53 1616 
Q 656 2294 1265 3178 
Q 1875 4063 2272 4841 
L 2906 4841 
z
M 741 1644 
L 2313 1644 
L 2313 3950 
Q 1988 3366 1616 2817 
Q 1244 2269 741 1644 
z
" transform="scale(0.015625)"/>
       </defs>
       <use xlink:href="#MicrosoftYaHei-30"/>
       <use xlink:href="#MicrosoftYaHei-2e" transform="translate(58.642578 0)"/>
       <use xlink:href="#MicrosoftYaHei-34" transform="translate(82.714844 0)"/>
      </g>
     </g>
    </g>
    <g id="ytick_3">
     <g id="line2d_8">
      <path d="M 285.1187 214.2992 
C 285.1187 201.098584 282.518467 188.026328 277.46681 175.830549 
C 272.415153 163.634771 265.010314 152.552647 255.67607 143.218402 
C 246.341825 133.884157 235.259701 126.479319 223.063922 121.427662 
C 210.868144 116.376005 197.795887 113.775771 184.595272 113.775771 
C 171.394656 113.775771 158.322399 116.376005 146.126621 121.427662 
C 133.930842 126.479319 122.848718 133.884157 113.514473 143.218402 
C 104.180229 152.552647 96.77539 163.634771 91.723733 175.830549 
C 86.672076 188.026328 84.071843 201.098584 84.071843 214.2992 
C 84.071843 227.499816 86.672076 240.572072 91.723733 252.767851 
C 96.77539 264.963629 104.180229 276.045753 113.514473 285.379998 
C 122.848718 294.714243 133.930842 302.119081 146.126621 307.170738 
C 158.322399 312.222395 171.394656 314.822629 184.595272 314.822629 
C 197.795887 314.822629 210.868144 312.222395 223.063922 307.170738 
C 235.259701 302.119081 246.341825 294.714243 255.67607 285.379998 
C 265.010314 276.045753 272.415153 264.963629 277.46681 252.767851 
C 282.518467 240.572072 285.1187 227.499816 285.1187 214.2992 
" clip-path="url(#p5f2d1a7591)" style="fill: none; stroke-dasharray: 0.8,1.32; stroke-dashoffset: 0; stroke: #b0b0b0; stroke-opacity: 0.5; stroke-width: 0.8"/>
     </g>
     <g id="text_8">
      <!-- 0.6 -->
      <g style="fill: #999999" transform="translate(277.46681 173.966096) scale(0.075 -0.075)">
       <defs>
        <path id="MicrosoftYaHei-36" d="M 3181 4219 
Q 2803 4413 2391 4413 
Q 1763 4413 1381 3866 
Q 1000 3319 994 2372 
L 1009 2372 
Q 1353 3038 2106 3038 
Q 2734 3038 3109 2628 
Q 3484 2219 3484 1541 
Q 3484 831 3051 375 
Q 2619 -81 1947 -81 
Q 1209 -81 789 495 
Q 369 1072 369 2131 
Q 369 3413 920 4167 
Q 1472 4922 2372 4922 
Q 2888 4922 3181 4781 
L 3181 4219 
z
M 1031 1584 
Q 1031 1106 1286 765 
Q 1541 425 1963 425 
Q 2363 425 2613 719 
Q 2863 1013 2863 1475 
Q 2863 1975 2627 2253 
Q 2391 2531 1956 2531 
Q 1544 2531 1287 2250 
Q 1031 1969 1031 1584 
z
" transform="scale(0.015625)"/>
       </defs>
       <use xlink:href="#MicrosoftYaHei-30"/>
       <use xlink:href="#MicrosoftYaHei-2e" transform="translate(58.642578 0)"/>
       <use xlink:href="#MicrosoftYaHei-36" transform="translate(82.714844 0)"/>
      </g>
     </g>
    </g>
    <g id="ytick_4">
     <g id="line2d_9">
      <path d="M 318.62651 214.2992 
C 318.62651 196.698379 315.159532 179.268704 308.423989 163.007666 
C 301.688447 146.746628 291.815329 131.970462 279.369669 119.524803 
C 266.924009 107.079143 252.147844 97.206025 235.886806 90.470482 
C 219.625768 83.73494 202.196092 80.267962 184.595272 80.267962 
C 166.994451 80.267962 149.564775 83.73494 133.303737 90.470482 
C 117.042699 97.206025 102.266534 107.079143 89.820874 119.524803 
C 77.375214 131.970462 67.502096 146.746628 60.766554 163.007666 
C 54.031011 179.268704 50.564033 196.698379 50.564033 214.2992 
C 50.564033 231.900021 54.031011 249.329696 60.766554 265.590734 
C 67.502096 281.851772 77.375214 296.627938 89.820874 309.073597 
C 102.266534 321.519257 117.042699 331.392375 133.303737 338.127918 
C 149.564775 344.86346 166.994451 348.330438 184.595272 348.330438 
C 202.196092 348.330438 219.625768 344.86346 235.886806 338.127918 
C 252.147844 331.392375 266.924009 321.519257 279.369669 309.073597 
C 291.815329 296.627938 301.688447 281.851772 308.423989 265.590734 
C 315.159532 249.329696 318.62651 231.900021 318.62651 214.2992 
" clip-path="url(#p5f2d1a7591)" style="fill: none; stroke-dasharray: 0.8,1.32; stroke-dashoffset: 0; stroke: #b0b0b0; stroke-opacity: 0.5; stroke-width: 0.8"/>
     </g>
     <g id="text_9">
      <!-- 0.8 -->
      <g style="fill: #999999" transform="translate(308.423989 161.143213) scale(0.075 -0.075)">
       <defs>
        <path id="MicrosoftYaHei-38" d="M 306 1350 
Q 306 1769 556 2122 
Q 806 2475 1200 2625 
Q 884 2803 700 3081 
Q 516 3359 516 3684 
Q 516 4028 692 4312 
Q 869 4597 1183 4759 
Q 1497 4922 1875 4922 
Q 2256 4922 2572 4761 
Q 2888 4600 3063 4315 
Q 3238 4031 3238 3684 
Q 3238 3366 3058 3086 
Q 2878 2806 2559 2625 
Q 2953 2472 3200 2119 
Q 3447 1766 3447 1350 
Q 3447 938 3250 611 
Q 3053 284 2690 103 
Q 2328 -78 1875 -78 
Q 1425 -78 1065 103 
Q 706 284 506 612 
Q 306 941 306 1350 
z
M 906 1378 
Q 906 947 1172 687 
Q 1438 428 1878 428 
Q 2309 428 2582 692 
Q 2856 956 2856 1378 
Q 2856 1778 2579 2051 
Q 2303 2325 1878 2325 
Q 1456 2325 1181 2058 
Q 906 1791 906 1378 
z
M 1081 3634 
Q 1081 3309 1312 3076 
Q 1544 2844 1878 2844 
Q 2206 2844 2445 3078 
Q 2684 3313 2684 3634 
Q 2684 3963 2454 4191 
Q 2225 4419 1878 4419 
Q 1534 4419 1307 4195 
Q 1081 3972 1081 3634 
z
" transform="scale(0.015625)"/>
       </defs>
       <use xlink:href="#MicrosoftYaHei-30"/>
       <use xlink:href="#MicrosoftYaHei-2e" transform="translate(58.642578 0)"/>
       <use xlink:href="#MicrosoftYaHei-38" transform="translate(82.714844 0)"/>
      </g>
     </g>
    </g>
    <g id="ytick_5">
     <g id="line2d_10">
      <path d="M 352.134319 214.2992 
C 352.134319 192.298174 347.800597 170.51108 339.381168 150.184782 
C 330.96174 129.858484 318.620343 111.388278 303.063268 95.831203 
C 287.506193 80.274129 269.035987 67.932731 248.709689 59.513303 
C 228.383392 51.093875 206.596298 46.760152 184.595272 46.760152 
C 162.594245 46.760152 140.807151 51.093875 120.480854 59.513303 
C 100.154556 67.932731 81.68435 80.274129 66.127275 95.831203 
C 50.5702 111.388278 38.228803 129.858484 29.809375 150.184782 
C 21.389946 170.51108 17.056224 192.298174 17.056224 214.2992 
C 17.056224 236.300226 21.389946 258.08732 29.809375 278.413618 
C 38.228803 298.739916 50.5702 317.210122 66.127275 332.767197 
C 81.68435 348.324271 100.154556 360.665669 120.480854 369.085097 
C 140.807151 377.504525 162.594245 381.838248 184.595272 381.838248 
C 206.596298 381.838248 228.383392 377.504525 248.709689 369.085097 
C 269.035987 360.665669 287.506193 348.324271 303.063268 332.767197 
C 318.620343 317.210122 330.96174 298.739916 339.381168 278.413618 
C 347.800597 258.08732 352.134319 236.300226 352.134319 214.2992 
" clip-path="url(#p5f2d1a7591)" style="fill: none; stroke-dasharray: 0.8,1.32; stroke-dashoffset: 0; stroke: #b0b0b0; stroke-opacity: 0.5; stroke-width: 0.8"/>
     </g>
     <g id="text_10">
      <!-- 1.0 -->
      <g style="fill: #999999" transform="translate(339.381168 148.320329) scale(0.075 -0.075)">
       <use xlink:href="#MicrosoftYaHei-31"/>
       <use xlink:href="#MicrosoftYaHei-2e" transform="translate(58.642578 0)"/>
       <use xlink:href="#MicrosoftYaHei-30" transform="translate(82.714844 0)"/>
      </g>
     </g>
    </g>
   </g>
   <g id="line2d_11">
    <path d="M 318.207662 214.2992 
L 228.503455 79.163707 
L 73.843955 133.833659 
L 80.74304 289.752263 
L 225.412642 339.922149 
L 318.207662 214.2992 
" clip-path="url(#p5f2d1a7591)" style="fill: none; stroke-dasharray: 5.55,2.4; stroke-dashoffset: 0; stroke: #9e9e9e; stroke-width: 1.5"/>
   </g>
   <g id="line2d_12">
    <path d="M 298.521824 214.2992 
L 222.508209 97.615175 
L 82.112013 139.840754 
L 108.908654 269.288746 
L 218.69776 319.255867 
L 298.521824 214.2992 
" clip-path="url(#p5f2d1a7591)" style="fill: none; stroke-dasharray: 5.55,2.4; stroke-dashoffset: 0; stroke: #78909c; stroke-width: 1.5"/>
   </g>
   <g id="line2d_13">
    <path d="M 249.516652 214.2992 
L 210.5902 134.295036 
L 117.922193 165.858373 
L 154.667612 236.042917 
L 203.0832 271.199194 
L 249.516652 214.2992 
" clip-path="url(#p5f2d1a7591)" style="fill: none; stroke-dasharray: 5.55,2.4; stroke-dashoffset: 0; stroke: #607d8b; stroke-width: 1.5"/>
   </g>
   <g id="line2d_14">
    <path d="M 342.500824 214.2992 
L 236.367684 54.960097 
L 61.658735 124.980578 
L 49.053335 312.776181 
L 233.313112 364.237296 
L 342.500824 214.2992 
" clip-path="url(#p5f2d1a7591)" style="fill: none; stroke: #ffb74d; stroke-width: 2.5; stroke-linecap: square"/>
   </g>
   <g id="line2d_15">
    <path d="M 347.108148 214.2992 
L 236.367684 54.960097 
L 55.69489 120.647591 
L 49.053335 312.776181 
L 234.76274 368.698791 
L 347.108148 214.2992 
" clip-path="url(#p5f2d1a7591)" style="fill: none; stroke: #ff9800; stroke-width: 2.5; stroke-linecap: square"/>
   </g>
   <g id="line2d_16">
    <path d="M 349.202386 214.2992 
L 236.367684 54.960097 
L 52.848509 118.579574 
L 49.053335 312.776181 
L 235.435781 370.770199 
L 349.202386 214.2992 
" clip-path="url(#p5f2d1a7591)" style="fill: none; stroke: #e65100; stroke-width: 2.5; stroke-linecap: square"/>
   </g>
   <g id="patch_9">
    <path d="M 360.511272 214.2992 
C 360.511272 191.198123 355.960863 168.321674 347.120463 146.979061 
C 338.280064 125.636449 325.321597 106.242732 308.986668 89.907803 
C 292.651739 73.572875 273.258023 60.614408 251.91541 51.774008 
C 230.572798 42.933609 207.696349 38.3832 184.595272 38.3832 
C 161.494194 38.3832 138.617745 42.933609 117.275133 51.774008 
C 95.93252 60.614408 76.538804 73.572875 60.203875 89.907803 
C 43.868946 106.242732 30.910479 125.636449 22.07008 146.979061 
C 13.22968 168.321674 8.679272 191.198123 8.679272 214.2992 
C 8.679272 237.400277 13.22968 260.276726 22.07008 281.619339 
C 30.910479 302.961951 43.868946 322.355668 60.203875 338.690597 
C 76.538804 355.025525 95.93252 367.983992 117.275133 376.824392 
C 138.617745 385.664791 161.494194 390.2152 184.595272 390.2152 
C 207.696349 390.2152 230.572798 385.664791 251.91541 376.824392 
C 273.258023 367.983992 292.651739 355.025525 308.986668 338.690597 
C 325.321597 322.355668 338.280064 302.961951 347.120463 281.619339 
C 355.960863 260.276726 360.511272 237.400277 360.511272 214.2992 
" style="fill: none; stroke: #000000; stroke-width: 0.8; stroke-linejoin: miter; stroke-linecap: square"/>
   </g>
   <g id="text_11">
    <!-- 多指标雷达对比图 -->
    <g transform="translate(136.595272 18.3832) scale(0.12 -0.12)">
     <defs>
      <path id="MicrosoftYaHei-Bold-591a" d="M 5650 4922 
L 5650 4278 
Q 4819 3466 3531 2847 
L 4556 2847 
Q 4331 2603 4088 2378 
L 6063 2378 
L 6063 1747 
Q 4269 -466 569 -922 
Q 400 -478 181 -116 
Q 1481 -3 2556 347 
Q 2331 634 2013 972 
Q 1463 703 856 491 
Q 631 884 356 1253 
Q 2306 1778 3525 2841 
Q 2250 2228 531 1809 
Q 350 2272 138 2628 
Q 1206 2797 2138 3103 
Q 1888 3391 1575 3697 
Q 1206 3472 800 3266 
Q 581 3609 244 3972 
Q 1513 4441 2431 5334 
L 3456 5334 
Q 3288 5122 3100 4922 
L 5650 4922 
z
M 2188 4109 
Q 2575 3759 2919 3403 
Q 3663 3697 4444 4222 
L 2325 4222 
Q 2256 4166 2188 4109 
z
M 2663 1322 
Q 3025 978 3319 641 
Q 4244 1066 4931 1678 
L 3213 1678 
Q 2944 1491 2663 1322 
z
" transform="scale(0.015625)"/>
      <path id="MicrosoftYaHei-Bold-6307" d="M 106 4297 
L 800 4297 
L 800 5316 
L 1594 5316 
L 1594 4297 
L 2194 4297 
L 2194 3522 
L 1594 3522 
L 1594 2550 
L 2200 2716 
Q 2194 2222 2206 1878 
Q 2097 1850 1594 1700 
L 1594 -28 
Q 1594 -375 1458 -559 
Q 1322 -744 1067 -772 
Q 813 -800 313 -809 
Q 250 -434 156 3 
Q 538 -6 669 8 
Q 800 22 800 228 
L 800 1463 
L 156 1272 
L 88 2191 
Q 434 2263 800 2350 
L 800 3522 
L 106 3522 
L 106 4297 
z
M 5506 4278 
Q 5881 4078 6281 3959 
Q 6125 3116 5862 2959 
Q 5600 2803 5219 2803 
L 3306 2803 
Q 2394 2803 2394 3747 
L 2394 5291 
L 3225 5291 
L 3225 4628 
Q 4591 4809 5919 5172 
L 6206 4428 
Q 4866 4131 3225 3941 
L 3225 3884 
Q 3225 3528 3644 3528 
L 5025 3528 
Q 5334 3528 5403 3712 
Q 5472 3897 5506 4278 
z
M 2463 -834 
L 2463 2428 
L 6025 2428 
L 6025 -822 
L 5200 -822 
L 5200 -509 
L 3288 -509 
L 3288 -834 
L 2463 -834 
z
M 5200 1716 
L 3288 1716 
L 3288 1303 
L 5200 1303 
L 5200 1716 
z
M 3288 203 
L 5200 203 
L 5200 616 
L 3288 616 
L 3288 203 
z
" transform="scale(0.015625)"/>
      <path id="MicrosoftYaHei-Bold-6807" d="M 69 1703 
Q 550 2538 781 3391 
L 113 3391 
L 113 4209 
L 831 4209 
L 831 5303 
L 1600 5303 
L 1600 4209 
L 2200 4209 
L 2200 3391 
L 1600 3391 
L 1600 2669 
Q 2003 2444 2369 2228 
L 1981 1522 
Q 1850 1634 1600 1803 
L 1600 -841 
L 831 -841 
L 831 1734 
Q 594 1122 269 559 
Q 163 1209 69 1703 
z
M 2469 4978 
L 6000 4978 
L 6000 4166 
L 2469 4166 
L 2469 4978 
z
M 2219 3416 
L 6238 3416 
L 6238 2603 
L 4663 2603 
L 4663 -72 
Q 4663 -406 4478 -586 
Q 4294 -766 3948 -787 
Q 3603 -809 3006 -809 
Q 2919 -303 2838 59 
Q 3169 28 3431 28 
Q 3794 28 3794 366 
L 3794 2603 
L 2219 2603 
L 2219 3416 
z
M 2719 2209 
L 3463 1997 
Q 3081 784 2681 -97 
Q 2288 103 1944 203 
Q 2356 1047 2719 2209 
z
M 5575 2159 
Q 5969 1216 6331 178 
L 5563 -116 
Q 5200 991 4831 1891 
L 5575 2159 
z
" transform="scale(0.015625)"/>
      <path id="MicrosoftYaHei-Bold-96f7" d="M 275 4209 
L 2819 4209 
L 2819 4503 
L 588 4503 
L 588 5109 
L 5813 5109 
L 5813 4503 
L 3581 4503 
L 3581 4209 
L 6125 4209 
L 6125 2853 
L 5400 2853 
L 5400 3603 
L 3581 3603 
L 3581 2272 
L 2819 2272 
L 2819 3603 
L 1000 3603 
L 1000 2853 
L 275 2853 
L 275 4209 
z
M 1163 3347 
L 2538 3347 
L 2538 2934 
L 1163 2934 
L 1163 3347 
z
M 3875 3347 
L 5238 3347 
L 5238 2934 
L 3875 2934 
L 3875 3347 
z
M 913 2672 
L 2538 2672 
L 2538 2259 
L 913 2259 
L 913 2672 
z
M 3875 2672 
L 5488 2672 
L 5488 2259 
L 3875 2259 
L 3875 2672 
z
M 694 -847 
L 694 2009 
L 5700 2009 
L 5700 -847 
L 4881 -847 
L 4881 -578 
L 1519 -578 
L 1519 -847 
L 694 -847 
z
M 1519 997 
L 2788 997 
L 2788 1422 
L 1519 1422 
L 1519 997 
z
M 4881 1422 
L 3613 1422 
L 3613 997 
L 4881 997 
L 4881 1422 
z
M 1519 9 
L 2788 9 
L 2788 434 
L 1519 434 
L 1519 9 
z
M 3613 9 
L 4881 9 
L 4881 434 
L 3613 434 
L 3613 9 
z
" transform="scale(0.015625)"/>
      <path id="MicrosoftYaHei-Bold-8fbe" d="M 3169 153 
Q 4625 122 6306 191 
Q 6144 -241 6000 -672 
Q 4244 -678 2744 -641 
Q 1781 -591 1231 9 
Q 988 -253 469 -828 
L 94 97 
Q 281 297 800 759 
L 800 2328 
L 175 2328 
L 175 3153 
L 1638 3153 
L 1638 691 
Q 2181 172 3169 153 
z
M 1875 4003 
L 3369 4003 
Q 3400 4547 3400 5278 
L 4269 5278 
Q 4269 4566 4244 4003 
L 6106 4003 
L 6106 3234 
L 4188 3234 
Q 4163 2991 4125 2791 
Q 5188 1928 6063 1172 
L 5419 441 
Q 4650 1191 3838 1866 
Q 3481 1191 2475 353 
Q 2138 759 1819 1059 
Q 2950 1922 3144 2572 
Q 3238 2791 3300 3234 
L 1875 3234 
L 1875 4003 
z
M 944 5278 
Q 1413 4672 1800 4109 
L 1050 3603 
Q 769 4109 269 4859 
L 944 5278 
z
" transform="scale(0.015625)"/>
      <path id="MicrosoftYaHei-Bold-5bf9" d="M 3050 4234 
L 4850 4234 
L 4850 5309 
L 5744 5309 
L 5744 4234 
L 6319 4234 
L 6319 3409 
L 5744 3409 
L 5744 216 
Q 5744 -250 5539 -490 
Q 5334 -731 4987 -754 
Q 4641 -778 3656 -778 
Q 3594 -359 3450 147 
Q 3931 109 4409 109 
Q 4850 109 4850 516 
L 4850 3409 
L 3050 3409 
L 3050 4234 
z
M 863 3772 
L 1691 2509 
Q 1934 3206 2025 4016 
L 188 4016 
L 188 4834 
L 2900 4834 
L 2900 4028 
Q 2709 2722 2247 1669 
L 3169 278 
L 2394 -228 
L 1781 778 
Q 1269 -47 550 -684 
Q 369 -316 88 153 
Q 816 772 1278 1594 
L 181 3341 
L 863 3772 
z
M 3463 3047 
Q 4069 2278 4588 1528 
L 3844 1041 
Q 3375 1841 2813 2609 
L 3463 3047 
z
" transform="scale(0.015625)"/>
      <path id="MicrosoftYaHei-Bold-6bd4" d="M 5481 4441 
L 6294 3803 
Q 5234 2791 4119 1894 
L 4119 547 
Q 4119 153 4438 153 
L 4875 153 
Q 5119 153 5197 325 
Q 5275 497 5363 1597 
Q 5856 1409 6294 1278 
Q 6231 688 6131 248 
Q 6031 -191 5900 -358 
Q 5769 -525 5511 -617 
Q 5253 -709 4881 -709 
L 4094 -709 
Q 3194 -709 3194 247 
L 3194 5316 
L 4119 5316 
L 4119 3009 
Q 4797 3656 5481 4441 
z
M 1419 5241 
L 1419 3453 
L 2850 3453 
L 2850 2591 
L 1419 2591 
L 1419 372 
L 2869 866 
Q 2856 372 2888 -78 
Q 1500 -503 725 -922 
L 275 -184 
Q 494 -16 494 366 
L 494 5241 
L 1419 5241 
z
" transform="scale(0.015625)"/>
      <path id="MicrosoftYaHei-Bold-56fe" d="M 369 -841 
L 369 5072 
L 6019 5072 
L 6019 -834 
L 5156 -834 
L 5156 -591 
L 1231 -591 
L 1231 -841 
L 369 -841 
z
M 4875 3978 
L 4875 3466 
Q 4547 3022 4006 2678 
Q 4513 2541 5156 2463 
L 5156 4316 
L 3256 4316 
Q 3141 4144 3009 3978 
L 4875 3978 
z
M 2394 4316 
L 1231 4316 
L 1231 3231 
Q 2016 3747 2394 4316 
z
M 3228 2959 
Q 3666 3163 3919 3416 
L 2575 3416 
Q 2828 3156 3228 2959 
z
M 1644 2747 
Q 1481 2925 1231 3147 
L 1231 2400 
Q 1950 2522 2500 2688 
Q 2266 2863 2078 3063 
Q 1872 2900 1644 2747 
z
M 1669 1303 
Q 3319 1084 4775 841 
L 4600 166 
L 5156 166 
L 5156 2388 
Q 5019 2159 4825 1822 
Q 3897 1978 3219 2275 
Q 2872 2134 2472 2019 
Q 3509 1888 4500 1722 
L 4375 1128 
Q 3344 1309 2063 1484 
L 2159 1934 
Q 1856 1859 1525 1797 
Q 1409 2059 1231 2347 
L 1231 166 
L 4569 166 
Q 3297 425 1494 647 
L 1669 1303 
z
" transform="scale(0.015625)"/>
     </defs>
     <use xlink:href="#MicrosoftYaHei-Bold-591a"/>
     <use xlink:href="#MicrosoftYaHei-Bold-6307" transform="translate(100 0)"/>
     <use xlink:href="#MicrosoftYaHei-Bold-6807" transform="translate(200 0)"/>
     <use xlink:href="#MicrosoftYaHei-Bold-96f7" transform="translate(300 0)"/>
     <use xlink:href="#MicrosoftYaHei-Bold-8fbe" transform="translate(400 0)"/>
     <use xlink:href="#MicrosoftYaHei-Bold-5bf9" transform="translate(500 0)"/>
     <use xlink:href="#MicrosoftYaHei-Bold-6bd4" transform="translate(600 0)"/>
     <use xlink:href="#MicrosoftYaHei-Bold-56fe" transform="translate(700 0)"/>
    </g>
   </g>
   <g id="legend_1">
    <g id="patch_10">
     <path d="M 380.933722 83.9025 
L 478.052472 83.9025 
Q 479.652472 83.9025 479.652472 82.3025 
L 479.652472 8.8 
Q 479.652472 7.2 478.052472 7.2 
L 380.933722 7.2 
Q 379.333722 7.2 379.333722 8.8 
L 379.333722 82.3025 
Q 379.333722 83.9025 380.933722 83.9025 
z
" style="fill: #ffffff; opacity: 0.8; stroke: #cccccc; stroke-linejoin: miter"/>
    </g>
    <g id="line2d_17">
     <path d="M 382.533722 13.995 
L 390.533722 13.995 
L 398.533722 13.995 
" style="fill: none; stroke-dasharray: 5.55,2.4; stroke-dashoffset: 0; stroke: #9e9e9e; stroke-width: 1.5"/>
    </g>
    <g id="text_12">
     <!-- 原始向量 ResNet18 -->
     <g transform="translate(404.933722 16.795) scale(0.08 -0.08)">
      <defs>
       <path id="MicrosoftYaHei-539f" d="M 1950 3853 
L 3081 3853 
Q 3200 4153 3306 4472 
L 1256 4472 
L 1256 2772 
Q 1256 1322 1088 634 
Q 919 -103 394 -866 
Q 238 -653 44 -434 
Q 475 209 613 834 
Q 756 1428 756 2659 
L 756 4928 
L 6219 4928 
L 6219 4472 
L 3856 4472 
Q 3716 4134 3584 3853 
L 5719 3853 
L 5719 1291 
L 5250 1291 
L 5250 1416 
L 4094 1416 
L 4094 16 
Q 4094 -772 3381 -766 
Q 3163 -766 2594 -753 
Q 2569 -516 2513 -209 
Q 3000 -272 3281 -272 
Q 3594 -272 3594 91 
L 3594 1416 
L 2419 1416 
L 2419 1291 
L 1950 1291 
L 1950 3853 
z
M 2419 1834 
L 5250 1834 
L 5250 2434 
L 2419 2434 
L 2419 1834 
z
M 5250 3434 
L 2419 3434 
L 2419 2841 
L 5250 2841 
L 5250 3434 
z
M 2488 1172 
L 2919 891 
Q 2313 -9 1613 -703 
Q 1450 -566 1206 -397 
Q 1838 184 2488 1172 
z
M 4925 1159 
Q 5738 391 6313 -266 
L 5894 -641 
Q 5294 122 4556 859 
L 4925 1159 
z
" transform="scale(0.015625)"/>
       <path id="MicrosoftYaHei-59cb" d="M 2838 1984 
L 5850 1984 
L 5850 -828 
L 5375 -828 
L 5375 -391 
L 3313 -391 
L 3313 -834 
L 2838 -834 
L 2838 1984 
z
M 2638 222 
L 2269 -191 
Q 1928 156 1588 484 
Q 1125 -184 381 -778 
Q 250 -584 94 -372 
Q 809 156 1244 809 
Q 797 1228 350 1616 
Q 572 2456 753 3497 
L 113 3497 
L 113 3966 
L 834 3966 
Q 934 4597 1025 5297 
L 1531 5222 
Q 1428 4544 1325 3966 
L 2488 3966 
L 2488 3503 
Q 2341 1828 1863 931 
Q 2288 559 2638 222 
z
M 5225 4484 
Q 5863 3478 6325 2522 
L 5831 2291 
Q 5700 2591 5559 2884 
Q 4572 2825 3200 2697 
Q 3025 2678 2756 2591 
L 2525 3041 
Q 2744 3172 2900 3391 
Q 3406 4147 3925 5334 
L 4450 5166 
Q 3881 4078 3319 3191 
Q 4569 3269 5350 3306 
Q 5097 3803 4819 4284 
L 5225 4484 
z
M 5375 1547 
L 3313 1547 
L 3313 34 
L 5375 34 
L 5375 1547 
z
M 2006 3497 
L 1241 3497 
Q 1044 2463 850 1778 
Q 1191 1503 1497 1247 
Q 1922 2119 2006 3497 
z
" transform="scale(0.015625)"/>
       <path id="MicrosoftYaHei-5411" d="M 1038 -772 
L 550 -772 
L 550 4359 
L 2394 4359 
Q 2550 4822 2694 5328 
L 3231 5178 
Q 3069 4741 2913 4359 
L 5838 4359 
L 5838 -34 
Q 5838 -741 5131 -741 
Q 4738 -741 4181 -728 
Q 4150 -509 4094 -241 
Q 4631 -284 5006 -284 
Q 5350 -284 5350 78 
L 5350 3897 
L 1038 3897 
L 1038 -772 
z
M 1894 2997 
L 4481 2997 
L 4481 803 
L 2369 803 
L 2369 372 
L 1894 372 
L 1894 2997 
z
M 4006 2547 
L 2369 2547 
L 2369 1253 
L 4006 1253 
L 4006 2547 
z
" transform="scale(0.015625)"/>
       <path id="MicrosoftYaHei-91cf" d="M 113 -278 
L 2981 -278 
L 2981 78 
L 475 78 
L 475 403 
L 2981 403 
L 2981 759 
L 1494 759 
L 1494 597 
L 1069 597 
L 1069 2516 
L 5350 2516 
L 5350 597 
L 4925 597 
L 4925 759 
L 3419 759 
L 3419 403 
L 5931 403 
L 5931 78 
L 3419 78 
L 3419 -278 
L 6288 -278 
L 6288 -616 
L 113 -616 
L 113 -278 
z
M 1119 5072 
L 5306 5072 
L 5306 3284 
L 4881 3284 
L 4881 3453 
L 1544 3453 
L 1544 3284 
L 1119 3284 
L 1119 5072 
z
M 163 3153 
L 6263 3153 
L 6263 2816 
L 163 2816 
L 163 3153 
z
M 1544 3778 
L 4881 3778 
L 4881 4116 
L 1544 4116 
L 1544 3778 
z
M 4881 4747 
L 1544 4747 
L 1544 4416 
L 4881 4416 
L 4881 4747 
z
M 3419 1084 
L 4925 1084 
L 4925 1491 
L 3419 1491 
L 3419 1084 
z
M 1494 1084 
L 2981 1084 
L 2981 1491 
L 1494 1491 
L 1494 1084 
z
M 4925 2191 
L 3419 2191 
L 3419 1791 
L 4925 1791 
L 4925 2191 
z
M 1494 1791 
L 2981 1791 
L 2981 2191 
L 1494 2191 
L 1494 1791 
z
" transform="scale(0.015625)"/>
       <path id="MicrosoftYaHei-20" transform="scale(0.015625)"/>
       <path id="MicrosoftYaHei-52" d="M 4159 0 
L 3422 0 
L 2619 1344 
Q 2378 1747 2178 1892 
Q 1978 2038 1700 2038 
L 1250 2038 
L 1250 0 
L 625 0 
L 625 4841 
L 2100 4841 
Q 2806 4841 3206 4500 
Q 3606 4159 3606 3547 
Q 3606 2541 2531 2241 
L 2531 2225 
Q 2731 2141 2876 1984 
Q 3022 1828 3253 1450 
L 4159 0 
z
M 1250 4294 
L 1250 2584 
L 1988 2584 
Q 2416 2584 2683 2834 
Q 2950 3084 2950 3491 
Q 2950 3869 2706 4081 
Q 2463 4294 1997 4294 
L 1250 4294 
z
" transform="scale(0.015625)"/>
       <path id="MicrosoftYaHei-65" d="M 3363 1572 
L 944 1572 
Q 959 1019 1246 717 
Q 1534 416 2050 416 
Q 2631 416 3116 788 
L 3116 241 
Q 2659 -81 1906 -81 
Q 1156 -81 736 394 
Q 316 869 316 1713 
Q 316 2506 777 3022 
Q 1238 3538 1922 3538 
Q 2600 3538 2981 3102 
Q 3363 2666 3363 1881 
L 3363 1572 
z
M 2750 2063 
Q 2747 2531 2528 2787 
Q 2309 3044 1913 3044 
Q 1547 3044 1280 2772 
Q 1013 2500 944 2063 
L 2750 2063 
z
" transform="scale(0.015625)"/>
       <path id="MicrosoftYaHei-73" d="M 353 747 
Q 816 413 1350 413 
Q 2066 413 2066 881 
Q 2066 1081 1909 1211 
Q 1753 1341 1275 1519 
Q 700 1750 528 1976 
Q 356 2203 356 2525 
Q 356 2984 745 3261 
Q 1134 3538 1703 3538 
Q 2144 3538 2522 3384 
L 2522 2794 
Q 2134 3044 1644 3044 
Q 1350 3044 1165 2916 
Q 981 2788 981 2578 
Q 981 2372 1114 2256 
Q 1247 2141 1703 1959 
Q 2281 1744 2484 1512 
Q 2688 1281 2688 941 
Q 2688 466 2298 192 
Q 1909 -81 1291 -81 
Q 753 -81 353 122 
L 353 747 
z
" transform="scale(0.015625)"/>
       <path id="MicrosoftYaHei-4e" d="M 4578 0 
L 3838 0 
L 1403 3766 
Q 1300 3925 1238 4081 
L 1219 4081 
Q 1244 3919 1244 3403 
L 1244 0 
L 625 0 
L 625 4841 
L 1409 4841 
L 3778 1141 
Q 3947 878 3978 806 
L 3991 806 
Q 3959 1013 3959 1513 
L 3959 4841 
L 4578 4841 
L 4578 0 
z
" transform="scale(0.015625)"/>
       <path id="MicrosoftYaHei-74" d="M 2206 34 
Q 2006 -75 1666 -75 
Q 738 -75 738 953 
L 738 2950 
L 144 2950 
L 144 3456 
L 738 3456 
L 738 4288 
L 1347 4481 
L 1347 3456 
L 2206 3456 
L 2206 2950 
L 1347 2950 
L 1347 1063 
Q 1347 722 1462 575 
Q 1578 428 1847 428 
Q 2053 428 2206 544 
L 2206 34 
z
" transform="scale(0.015625)"/>
      </defs>
      <use xlink:href="#MicrosoftYaHei-539f"/>
      <use xlink:href="#MicrosoftYaHei-59cb" transform="translate(100 0)"/>
      <use xlink:href="#MicrosoftYaHei-5411" transform="translate(200 0)"/>
      <use xlink:href="#MicrosoftYaHei-91cf" transform="translate(300 0)"/>
      <use xlink:href="#MicrosoftYaHei-20" transform="translate(400 0)"/>
      <use xlink:href="#MicrosoftYaHei-52" transform="translate(429.589844 0)"/>
      <use xlink:href="#MicrosoftYaHei-65" transform="translate(491.873047 0)"/>
      <use xlink:href="#MicrosoftYaHei-73" transform="translate(548.611328 0)"/>
      <use xlink:href="#MicrosoftYaHei-4e" transform="translate(594.900391 0)"/>
      <use xlink:href="#MicrosoftYaHei-65" transform="translate(676.199219 0)"/>
      <use xlink:href="#MicrosoftYaHei-74" transform="translate(732.9375 0)"/>
      <use xlink:href="#MicrosoftYaHei-31" transform="translate(770.193359 0)"/>
      <use xlink:href="#MicrosoftYaHei-38" transform="translate(828.835938 0)"/>
     </g>
    </g>
    <g id="line2d_18">
     <path d="M 382.533722 26.37875 
L 390.533722 26.37875 
L 398.533722 26.37875 
" style="fill: none; stroke-dasharray: 5.55,2.4; stroke-dashoffset: 0; stroke: #78909c; stroke-width: 1.5"/>
    </g>
    <g id="text_13">
     <!-- 1D-CNN (Wen '18) -->
     <g transform="translate(404.933722 29.17875) scale(0.08 -0.08)">
      <defs>
       <path id="MicrosoftYaHei-44" d="M 625 0 
L 625 4841 
L 2006 4841 
Q 3106 4841 3836 4200 
Q 4566 3559 4566 2481 
Q 4566 1356 3836 678 
Q 3106 0 1956 0 
L 625 0 
z
M 1250 4284 
L 1250 553 
L 1953 553 
Q 2875 553 3392 1056 
Q 3909 1559 3909 2466 
Q 3909 3372 3378 3828 
Q 2847 4284 1981 4284 
L 1250 4284 
z
" transform="scale(0.015625)"/>
       <path id="MicrosoftYaHei-43" d="M 3938 200 
Q 3403 -81 2597 -81 
Q 1556 -81 934 580 
Q 313 1241 313 2328 
Q 313 3497 1013 4209 
Q 1713 4922 2791 4922 
Q 3484 4922 3938 4725 
L 3938 4072 
Q 3419 4359 2797 4359 
Q 1988 4359 1478 3820 
Q 969 3281 969 2366 
Q 969 1497 1444 986 
Q 1919 475 2688 475 
Q 3406 475 3938 800 
L 3938 200 
z
" transform="scale(0.015625)"/>
       <path id="MicrosoftYaHei-28" d="M 1531 -1100 
Q 478 100 478 1847 
Q 478 3594 1531 4841 
L 2072 4841 
Q 1016 3544 1016 1853 
Q 1016 166 2066 -1100 
L 1531 -1100 
z
" transform="scale(0.015625)"/>
       <path id="MicrosoftYaHei-57" d="M 6431 4841 
L 5075 0 
L 4347 0 
L 3372 3488 
Q 3306 3725 3294 3988 
L 3281 3988 
Q 3263 3728 3194 3494 
L 2209 0 
L 1488 0 
L 84 4841 
L 775 4841 
L 1763 1184 
Q 1828 938 1841 688 
L 1859 688 
Q 1875 875 1963 1184 
L 3009 4841 
L 3625 4841 
L 4625 1156 
Q 4675 975 4706 694 
L 4719 694 
Q 4734 897 4809 1169 
L 5759 4841 
L 6431 4841 
z
" transform="scale(0.015625)"/>
       <path id="MicrosoftYaHei-6e" d="M 3469 0 
L 2859 0 
L 2859 1966 
Q 2859 3031 2081 3031 
Q 1678 3031 1418 2731 
Q 1159 2431 1159 1972 
L 1159 0 
L 547 0 
L 547 3456 
L 1159 3456 
L 1159 2884 
L 1172 2884 
Q 1563 3538 2306 3538 
Q 2875 3538 3172 3173 
Q 3469 2809 3469 2113 
L 3469 0 
z
" transform="scale(0.015625)"/>
       <path id="MicrosoftYaHei-27" d="M 1131 4847 
L 1028 3341 
L 609 3341 
L 509 4847 
L 1131 4847 
z
" transform="scale(0.015625)"/>
       <path id="MicrosoftYaHei-29" d="M 78 -1100 
Q 1131 163 1131 1853 
Q 1131 3547 72 4841 
L 616 4841 
Q 1672 3603 1672 1847 
Q 1672 91 616 -1100 
L 78 -1100 
z
" transform="scale(0.015625)"/>
      </defs>
      <use xlink:href="#MicrosoftYaHei-31"/>
      <use xlink:href="#MicrosoftYaHei-44" transform="translate(58.642578 0)"/>
      <use xlink:href="#MicrosoftYaHei-2d" transform="translate(134.814453 0)"/>
      <use xlink:href="#MicrosoftYaHei-43" transform="translate(178.076172 0)"/>
      <use xlink:href="#MicrosoftYaHei-4e" transform="translate(244.970703 0)"/>
      <use xlink:href="#MicrosoftYaHei-4e" transform="translate(326.269531 0)"/>
      <use xlink:href="#MicrosoftYaHei-20" transform="translate(407.568359 0)"/>
      <use xlink:href="#MicrosoftYaHei-28" transform="translate(437.158203 0)"/>
      <use xlink:href="#MicrosoftYaHei-57" transform="translate(470.556641 0)"/>
      <use xlink:href="#MicrosoftYaHei-65" transform="translate(569.689453 0)"/>
      <use xlink:href="#MicrosoftYaHei-6e" transform="translate(626.427734 0)"/>
      <use xlink:href="#MicrosoftYaHei-20" transform="translate(688.048828 0)"/>
      <use xlink:href="#MicrosoftYaHei-27" transform="translate(717.638672 0)"/>
      <use xlink:href="#MicrosoftYaHei-31" transform="translate(743.273438 0)"/>
      <use xlink:href="#MicrosoftYaHei-38" transform="translate(801.916016 0)"/>
      <use xlink:href="#MicrosoftYaHei-29" transform="translate(860.558594 0)"/>
     </g>
    </g>
    <g id="line2d_19">
     <path d="M 382.533722 38.7625 
L 390.533722 38.7625 
L 398.533722 38.7625 
" style="fill: none; stroke-dasharray: 5.55,2.4; stroke-dashoffset: 0; stroke: #607d8b; stroke-width: 1.5"/>
    </g>
    <g id="text_14">
     <!-- 平坦VAE (GAP) -->
     <g transform="translate(404.933722 41.5625) scale(0.08 -0.08)">
      <defs>
       <path id="MicrosoftYaHei-5e73" d="M 169 1934 
L 2938 1934 
L 2938 4547 
L 450 4547 
L 450 5028 
L 5975 5028 
L 5975 4547 
L 3463 4547 
L 3463 1934 
L 6250 1934 
L 6250 1453 
L 3463 1453 
L 3463 -847 
L 2938 -847 
L 2938 1453 
L 169 1453 
L 169 1934 
z
M 3950 2559 
Q 4638 3284 5188 4159 
L 5656 3859 
Q 4950 2891 4338 2234 
L 3950 2559 
z
M 769 3859 
L 1163 4134 
Q 1863 3316 2369 2553 
L 1925 2222 
Q 1444 3003 769 3859 
z
" transform="scale(0.015625)"/>
       <path id="MicrosoftYaHei-5766" d="M 2625 4922 
L 5800 4922 
L 5800 747 
L 5325 747 
L 5325 1047 
L 3100 1047 
L 3100 747 
L 2625 747 
L 2625 4922 
z
M 88 559 
Q 531 659 938 759 
L 938 3141 
L 169 3141 
L 169 3584 
L 938 3584 
L 938 5284 
L 1413 5284 
L 1413 3584 
L 2194 3584 
L 2194 3141 
L 1413 3141 
L 1413 875 
Q 1900 1000 2325 1116 
Q 2325 834 2331 603 
Q 1281 359 231 59 
L 88 559 
z
M 3100 1484 
L 5325 1484 
L 5325 2791 
L 3100 2791 
L 3100 1484 
z
M 5325 4484 
L 3100 4484 
L 3100 3228 
L 5325 3228 
L 5325 4484 
z
M 2031 -47 
L 6294 -47 
L 6294 -484 
L 2031 -484 
L 2031 -47 
z
" transform="scale(0.015625)"/>
       <path id="MicrosoftYaHei-56" d="M 4272 4841 
L 2494 0 
L 1800 0 
L 56 4841 
L 750 4841 
L 2053 1056 
Q 2119 869 2150 622 
L 2166 622 
Q 2191 838 2275 1063 
L 3603 4841 
L 4272 4841 
z
" transform="scale(0.015625)"/>
       <path id="MicrosoftYaHei-41" d="M 4428 0 
L 3738 0 
L 3244 1325 
L 1228 1325 
L 763 0 
L 72 0 
L 1916 4841 
L 2584 4841 
L 4428 0 
z
M 3050 1872 
L 2319 3884 
Q 2284 3981 2244 4222 
L 2228 4222 
Q 2194 4003 2150 3884 
L 1425 1872 
L 3050 1872 
z
" transform="scale(0.015625)"/>
       <path id="MicrosoftYaHei-45" d="M 3228 0 
L 625 0 
L 625 4841 
L 3119 4841 
L 3119 4284 
L 1250 4284 
L 1250 2734 
L 2981 2734 
L 2981 2181 
L 1250 2181 
L 1250 553 
L 3228 553 
L 3228 0 
z
" transform="scale(0.015625)"/>
       <path id="MicrosoftYaHei-47" d="M 4284 331 
Q 3559 -81 2647 -81 
Q 1597 -81 955 583 
Q 313 1247 313 2356 
Q 313 3478 1022 4200 
Q 1731 4922 2841 4922 
Q 3625 4922 4169 4672 
L 4169 3997 
Q 3588 4363 2784 4363 
Q 1994 4363 1481 3822 
Q 969 3281 969 2397 
Q 969 1488 1441 981 
Q 1913 475 2716 475 
Q 3269 475 3656 688 
L 3656 1997 
L 2606 1997 
L 2606 2550 
L 4284 2550 
L 4284 331 
z
" transform="scale(0.015625)"/>
       <path id="MicrosoftYaHei-50" d="M 1250 1809 
L 1250 0 
L 625 0 
L 625 4841 
L 2000 4841 
Q 2784 4841 3217 4462 
Q 3650 4084 3650 3381 
Q 3650 2669 3144 2226 
Q 2638 1784 1878 1809 
L 1250 1809 
z
M 1250 4291 
L 1250 2359 
L 1828 2359 
Q 2400 2359 2697 2617 
Q 2994 2875 2994 3356 
Q 2994 4291 1888 4291 
L 1250 4291 
z
" transform="scale(0.015625)"/>
      </defs>
      <use xlink:href="#MicrosoftYaHei-5e73"/>
      <use xlink:href="#MicrosoftYaHei-5766" transform="translate(100 0)"/>
      <use xlink:href="#MicrosoftYaHei-56" transform="translate(200 0)"/>
      <use xlink:href="#MicrosoftYaHei-41" transform="translate(261.501953 0)"/>
      <use xlink:href="#MicrosoftYaHei-45" transform="translate(331.863281 0)"/>
      <use xlink:href="#MicrosoftYaHei-20" transform="translate(386.84375 0)"/>
      <use xlink:href="#MicrosoftYaHei-28" transform="translate(416.433594 0)"/>
      <use xlink:href="#MicrosoftYaHei-47" transform="translate(449.832031 0)"/>
      <use xlink:href="#MicrosoftYaHei-41" transform="translate(524.197266 0)"/>
      <use xlink:href="#MicrosoftYaHei-50" transform="translate(594.558594 0)"/>
      <use xlink:href="#MicrosoftYaHei-29" transform="translate(655.740234 0)"/>
     </g>
    </g>
    <g id="line2d_20">
     <path d="M 382.533722 51.14625 
L 390.533722 51.14625 
L 398.533722 51.14625 
" style="fill: none; stroke: #ffb74d; stroke-width: 2.5; stroke-linecap: square"/>
    </g>
    <g id="text_15">
     <!-- SpecRas (best-val) -->
     <g transform="translate(404.933722 53.94625) scale(0.08 -0.08)">
      <defs>
       <path id="MicrosoftYaHei-53" d="M 400 909 
Q 622 716 994 591 
Q 1366 466 1700 466 
Q 2719 466 2719 1191 
Q 2719 1394 2609 1556 
Q 2500 1719 2309 1844 
Q 2119 1969 1594 2228 
Q 866 2591 634 2902 
Q 403 3213 403 3613 
Q 403 4216 887 4569 
Q 1372 4922 2109 4922 
Q 2831 4922 3169 4747 
L 3169 4066 
Q 2731 4369 2063 4369 
Q 1619 4369 1339 4183 
Q 1059 3997 1059 3666 
Q 1059 3372 1253 3187 
Q 1447 3003 2094 2684 
Q 2806 2344 3090 2003 
Q 3375 1663 3375 1238 
Q 3375 600 2912 259 
Q 2450 -81 1628 -81 
Q 1341 -81 958 -1 
Q 575 78 400 197 
L 400 909 
z
" transform="scale(0.015625)"/>
       <path id="MicrosoftYaHei-70" d="M 1159 488 
L 1159 -1591 
L 547 -1591 
L 547 3456 
L 1159 3456 
L 1159 2859 
L 1172 2859 
Q 1578 3538 2359 3538 
Q 3022 3538 3398 3073 
Q 3775 2609 3775 1828 
Q 3775 966 3348 442 
Q 2922 -81 2200 -81 
Q 1534 -81 1172 488 
L 1159 488 
z
M 1156 1425 
Q 1156 1003 1428 714 
Q 1700 425 2109 425 
Q 2597 425 2872 800 
Q 3147 1175 3147 1838 
Q 3147 2397 2890 2714 
Q 2634 3031 2191 3031 
Q 1738 3031 1447 2709 
Q 1156 2388 1156 1884 
L 1156 1425 
z
" transform="scale(0.015625)"/>
       <path id="MicrosoftYaHei-62" d="M 1159 488 
L 1159 0 
L 547 0 
L 547 5116 
L 1159 5116 
L 1159 2859 
L 1172 2859 
Q 1578 3538 2359 3538 
Q 3009 3538 3392 3080 
Q 3775 2622 3775 1828 
Q 3775 953 3345 436 
Q 2916 -81 2200 -81 
Q 1525 -81 1172 488 
L 1159 488 
z
M 1156 1422 
Q 1156 1003 1428 714 
Q 1700 425 2109 425 
Q 2597 425 2872 800 
Q 3147 1175 3147 1838 
Q 3147 2384 2890 2707 
Q 2634 3031 2191 3031 
Q 1741 3031 1448 2709 
Q 1156 2388 1156 1891 
L 1156 1422 
z
" transform="scale(0.015625)"/>
       <path id="MicrosoftYaHei-76" d="M 3331 3456 
L 1963 0 
L 1344 0 
L 44 3456 
L 713 3456 
L 1556 988 
Q 1659 691 1678 491 
L 1694 491 
Q 1725 753 1803 975 
L 2688 3456 
L 3331 3456 
z
" transform="scale(0.015625)"/>
       <path id="MicrosoftYaHei-6c" d="M 544 0 
L 544 5116 
L 1156 5116 
L 1156 0 
L 544 0 
z
" transform="scale(0.015625)"/>
      </defs>
      <use xlink:href="#MicrosoftYaHei-53"/>
      <use xlink:href="#MicrosoftYaHei-70" transform="translate(57.714844 0)"/>
      <use xlink:href="#MicrosoftYaHei-65" transform="translate(121.582031 0)"/>
      <use xlink:href="#MicrosoftYaHei-63" transform="translate(178.320312 0)"/>
      <use xlink:href="#MicrosoftYaHei-52" transform="translate(228.466797 0)"/>
      <use xlink:href="#MicrosoftYaHei-61" transform="translate(293.75 0)"/>
      <use xlink:href="#MicrosoftYaHei-73" transform="translate(349.023438 0)"/>
      <use xlink:href="#MicrosoftYaHei-20" transform="translate(395.3125 0)"/>
      <use xlink:href="#MicrosoftYaHei-28" transform="translate(424.902344 0)"/>
      <use xlink:href="#MicrosoftYaHei-62" transform="translate(458.300781 0)"/>
      <use xlink:href="#MicrosoftYaHei-65" transform="translate(522.167969 0)"/>
      <use xlink:href="#MicrosoftYaHei-73" transform="translate(578.90625 0)"/>
      <use xlink:href="#MicrosoftYaHei-74" transform="translate(625.195312 0)"/>
      <use xlink:href="#MicrosoftYaHei-2d" transform="translate(656.451172 0)"/>
      <use xlink:href="#MicrosoftYaHei-76" transform="translate(699.712891 0)"/>
      <use xlink:href="#MicrosoftYaHei-61" transform="translate(750.203125 0)"/>
      <use xlink:href="#MicrosoftYaHei-6c" transform="translate(805.476562 0)"/>
      <use xlink:href="#MicrosoftYaHei-29" transform="translate(832.087891 0)"/>
     </g>
    </g>
    <g id="line2d_21">
     <path d="M 382.533722 63.53 
L 390.533722 63.53 
L 398.533722 63.53 
" style="fill: none; stroke: #ff9800; stroke-width: 2.5; stroke-linecap: square"/>
    </g>
    <g id="text_16">
     <!-- SpecRas (SWA) -->
     <g transform="translate(404.933722 66.33) scale(0.08 -0.08)">
      <use xlink:href="#MicrosoftYaHei-53"/>
      <use xlink:href="#MicrosoftYaHei-70" transform="translate(57.714844 0)"/>
      <use xlink:href="#MicrosoftYaHei-65" transform="translate(121.582031 0)"/>
      <use xlink:href="#MicrosoftYaHei-63" transform="translate(178.320312 0)"/>
      <use xlink:href="#MicrosoftYaHei-52" transform="translate(228.466797 0)"/>
      <use xlink:href="#MicrosoftYaHei-61" transform="translate(293.75 0)"/>
      <use xlink:href="#MicrosoftYaHei-73" transform="translate(349.023438 0)"/>
      <use xlink:href="#MicrosoftYaHei-20" transform="translate(395.3125 0)"/>
      <use xlink:href="#MicrosoftYaHei-28" transform="translate(424.902344 0)"/>
      <use xlink:href="#MicrosoftYaHei-53" transform="translate(458.300781 0)"/>
      <use xlink:href="#MicrosoftYaHei-57" transform="translate(516.015625 0)"/>
      <use xlink:href="#MicrosoftYaHei-41" transform="translate(613.898438 0)"/>
      <use xlink:href="#MicrosoftYaHei-29" transform="translate(684.259766 0)"/>
     </g>
    </g>
    <g id="line2d_22">
     <path d="M 382.533722 75.91375 
L 390.533722 75.91375 
L 398.533722 75.91375 
" style="fill: none; stroke: #e65100; stroke-width: 2.5; stroke-linecap: square"/>
    </g>
    <g id="text_17">
     <!-- HetSpatVAE -->
     <g transform="translate(404.933722 78.71375) scale(0.08 -0.08)">
      <defs>
       <path id="MicrosoftYaHei-48" d="M 4325 0 
L 3700 0 
L 3700 2181 
L 1250 2181 
L 1250 0 
L 625 0 
L 625 4841 
L 1250 4841 
L 1250 2738 
L 3700 2738 
L 3700 4841 
L 4325 4841 
L 4325 0 
z
" transform="scale(0.015625)"/>
      </defs>
      <use xlink:href="#MicrosoftYaHei-48"/>
      <use xlink:href="#MicrosoftYaHei-65" transform="translate(77.34375 0)"/>
      <use xlink:href="#MicrosoftYaHei-74" transform="translate(134.082031 0)"/>
      <use xlink:href="#MicrosoftYaHei-53" transform="translate(171.337891 0)"/>
      <use xlink:href="#MicrosoftYaHei-70" transform="translate(229.052734 0)"/>
      <use xlink:href="#MicrosoftYaHei-61" transform="translate(291.544922 0)"/>
      <use xlink:href="#MicrosoftYaHei-74" transform="translate(346.818359 0)"/>
      <use xlink:href="#MicrosoftYaHei-56" transform="translate(384.074219 0)"/>
      <use xlink:href="#MicrosoftYaHei-41" transform="translate(445.576172 0)"/>
      <use xlink:href="#MicrosoftYaHei-45" transform="translate(515.9375 0)"/>
     </g>
    </g>
   </g>
  </g>
 </g>
 <defs>
  <clipPath id="p5f2d1a7591">
   <path d="M 360.511272 214.2992 
C 360.511272 191.198123 355.960863 168.321674 347.120463 146.979061 
C 338.280064 125.636449 325.321597 106.242732 308.986668 89.907803 
C 292.651739 73.572875 273.258023 60.614408 251.91541 51.774008 
C 230.572798 42.933609 207.696349 38.3832 184.595272 38.3832 
C 161.494194 38.3832 138.617745 42.933609 117.275133 51.774008 
C 95.93252 60.614408 76.538804 73.572875 60.203875 89.907803 
C 43.868946 106.242732 30.910479 125.636449 22.07008 146.979061 
C 13.22968 168.321674 8.679272 191.198123 8.679272 214.2992 
C 8.679272 237.400277 13.22968 260.276726 22.07008 281.619339 
C 30.910479 302.961951 43.868946 322.355668 60.203875 338.690597 
C 76.538804 355.025525 95.93252 367.983992 117.275133 376.824392 
C 138.617745 385.664791 161.494194 390.2152 184.595272 390.2152 
C 207.696349 390.2152 230.572798 385.664791 251.91541 376.824392 
C 273.258023 367.983992 292.651739 355.025525 308.986668 338.690597 
C 325.321597 322.355668 338.280064 302.961951 347.120463 281.619339 
C 355.960863 260.276726 360.511272 237.400277 360.511272 214.2992 
M 184.595272 214.2992 
C 184.595272 214.2992 184.595272 214.2992 184.595272 214.2992 
C 184.595272 214.2992 184.595272 214.2992 184.595272 214.2992 
C 184.595272 214.2992 184.595272 214.2992 184.595272 214.2992 
C 184.595272 214.2992 184.595272 214.2992 184.595272 214.2992 
C 184.595272 214.2992 184.595272 214.2992 184.595272 214.2992 
C 184.595272 214.2992 184.595272 214.2992 184.595272 214.2992 
C 184.595272 214.2992 184.595272 214.2992 184.595272 214.2992 
C 184.595272 214.2992 184.595272 214.2992 184.595272 214.2992 
C 184.595272 214.2992 184.595272 214.2992 184.595272 214.2992 
C 184.595272 214.2992 184.595272 214.2992 184.595272 214.2992 
C 184.595272 214.2992 184.595272 214.2992 184.595272 214.2992 
C 184.595272 214.2992 184.595272 214.2992 184.595272 214.2992 
C 184.595272 214.2992 184.595272 214.2992 184.595272 214.2992 
C 184.595272 214.2992 184.595272 214.2992 184.595272 214.2992 
C 184.595272 214.2992 184.595272 214.2992 184.595272 214.2992 
C 184.595272 214.2992 184.595272 214.2992 184.595272 214.2992 
z
"/>
  </clipPath>
 </defs>
</svg>
